<svg version="1.1" viewBox="0.0 0.0 960.0 540.0" fill="none" stroke="none" stroke-linecap="square" stroke-miterlimit="10" xmlns:xlink="http://www.w3.org/1999/xlink" xmlns="http://www.w3.org/2000/svg"><clipPath id="g1d8d4292e72_0_0.0"><path d="m0 0l960.0 0l0 540.0l-960.0 0l0 -540.0z" clip-rule="nonzero"/></clipPath><g clip-path="url(#g1d8d4292e72_0_0.0)"><path fill="#000000" fill-opacity="0.0" d="m0 0l960.0 0l0 540.0l-960.0 0z" fill-rule="evenodd"/><path fill="#efefef" d="m54.706036 15.881889l391.7638 0l0 193.88538l479.11813 0.9593048l-0.881897 308.10437l-868.2362 0z" fill-rule="evenodd"/><path fill="#666666" d="m419.4828 455.6911l-44.125977 -39.874023l51.433075 29.858276z" fill-rule="evenodd"/><path fill="#e06666" d="m230.73753 320.95276l0 0c0 7.871155 33.53282 14.251953 74.89763 14.251953c41.364838 0 74.897644 -6.3807983 74.897644 -14.251953l0 85.51181c0 7.871155 -33.532806 14.251953 -74.897644 14.251953c-41.364807 0 -74.89763 -6.3807983 -74.89763 -14.251953z" fill-rule="evenodd"/><path fill="#eca3a3" d="m230.73753 320.95276l0 0c0 -7.871155 33.53282 -14.251984 74.89763 -14.251984c41.364838 0 74.897644 6.380829 74.897644 14.251984l0 0c0 7.871155 -33.532806 14.251953 -74.897644 14.251953c-41.364807 0 -74.89763 -6.3807983 -74.89763 -14.251953z" fill-rule="evenodd"/><path fill="#000000" fill-opacity="0.0" d="m380.5328 320.95276l0 0c0 7.871155 -33.532806 14.251953 -74.897644 14.251953c-41.364807 0 -74.89763 -6.3807983 -74.89763 -14.251953l0 0c0 -7.871155 33.53282 -14.251984 74.89763 -14.251984c41.364838 0 74.897644 6.380829 74.897644 14.251984l0 85.51181c0 7.871155 -33.532806 14.251953 -74.897644 14.251953c-41.364807 0 -74.89763 -6.3807983 -74.89763 -14.251953l0 -85.51181" fill-rule="evenodd"/><path fill="#ffffff" d="m266.97366 356.1309q-1.296875 0 -2.25 -0.546875q-0.9375 -0.546875 -1.453125 -1.53125q-0.515625 -1.0 -0.515625 -2.359375q0 -2.015625 1.140625 -3.171875q1.140625 -1.15625 3.078125 -1.15625q0.796875 0 1.578125 0.28125q0.78125 0.265625 1.28125 0.75l-0.546875 1.234375q-0.484375 -0.453125 -1.078125 -0.65625q-0.578125 -0.21875 -1.09375 -0.21875q-1.234375 0 -1.90625 0.765625q-0.65625 0.765625 -0.65625 2.1875q0 1.421875 0.65625 2.234375q0.671875 0.796875 1.90625 0.796875q0.515625 0 1.09375 -0.203125q0.59375 -0.21875 1.078125 -0.671875l0.546875 1.25q-0.5 0.453125 -1.296875 0.734375q-0.78125 0.28125 -1.5625 0.28125zm7.8719788 0q-1.28125 0 -2.21875 -0.53125q-0.9375 -0.546875 -1.453125 -1.515625q-0.5 -0.984375 -0.5 -2.34375q0 -1.34375 0.5 -2.3125q0.515625 -0.984375 1.453125 -1.515625q0.9375 -0.546875 2.21875 -0.546875q1.25 0 2.171875 0.546875q0.9375 0.53125 1.453125 1.515625q0.53125 0.96875 0.53125 2.3125q0 1.359375 -0.53125 2.34375q-0.515625 0.96875 -1.453125 1.515625q-0.921875 0.53125 -2.171875 0.53125zm0 -1.359375q1.078125 0 1.734375 -0.765625q0.65625 -0.78125 0.65625 -2.265625q0 -1.46875 -0.65625 -2.234375q-0.65625 -0.78125 -1.734375 -0.78125q-1.09375 0 -1.75 0.78125q-0.65625 0.765625 -0.65625 2.234375q0 1.484375 0.65625 2.265625q0.65625 0.765625 1.75 0.765625zm6.1496887 1.203125l0 -8.453125l1.703125 0l0 1.359375q0.375 -0.71875 1.046875 -1.109375q0.6875 -0.40625 1.578125 -0.40625q1.9375 0 2.515625 1.703125q0.40625 -0.8125 1.140625 -1.25q0.75 -0.453125 1.703125 -0.453125q2.84375 0 2.84375 3.390625l0 5.21875l-1.75 0l0 -5.125q0 -1.078125 -0.375 -1.578125q-0.375 -0.5 -1.21875 -0.5q-0.953125 0 -1.515625 0.671875q-0.546875 0.65625 -0.546875 1.796875l0 4.734375l-1.75 0l0 -5.125q0 -1.078125 -0.375 -1.578125q-0.359375 -0.5 -1.203125 -0.5q-0.953125 0 -1.5 0.671875q-0.546875 0.65625 -0.546875 1.796875l0 4.734375l-1.75 0zm15.006073 0l0 -8.453125l1.703125 0l0 1.359375q0.375 -0.71875 1.046875 -1.109375q0.6875 -0.40625 1.578125 -0.40625q1.9375 0 2.515625 1.703125q0.40625 -0.8125 1.140625 -1.25q0.75 -0.453125 1.703125 -0.453125q2.84375 0 2.84375 3.390625l0 5.21875l-1.75 0l0 -5.125q0 -1.078125 -0.375 -1.578125q-0.375 -0.5 -1.21875 -0.5q-0.953125 0 -1.515625 0.671875q-0.546875 0.65625 -0.546875 1.796875l0 4.734375l-1.75 0l0 -5.125q0 -1.078125 -0.375 -1.578125q-0.359375 -0.5 -1.203125 -0.5q-0.953125 0 -1.5 0.671875q-0.546875 0.65625 -0.546875 1.796875l0 4.734375l-1.75 0zm17.990448 0.15625q-3.078125 0 -3.078125 -3.40625l0 -5.203125l1.75 0l0 5.21875q0 1.015625 0.421875 1.5q0.421875 0.484375 1.3125 0.484375q1.0 0 1.609375 -0.65625q0.609375 -0.65625 0.609375 -1.765625l0 -4.78125l1.75 0l0 8.453125l-1.6875 0l0 -1.359375q-0.421875 0.75 -1.125 1.140625q-0.6875 0.375 -1.5625 0.375zm6.8440247 -0.15625l0 -8.453125l1.6875 0l0 1.40625q0.4375 -0.765625 1.1875 -1.15625q0.765625 -0.40625 1.703125 -0.40625q2.984375 0 2.984375 3.390625l0 5.21875l-1.75 0l0 -5.109375q0 -1.09375 -0.421875 -1.59375q-0.421875 -0.5 -1.328125 -0.5q-1.046875 0 -1.6875 0.671875q-0.625 0.65625 -0.625 1.75l0 4.78125l-1.75 0zm9.824707 -10.421875l0 -1.8125l2.046875 0l0 1.8125l-2.046875 0zm0.15625 10.421875l0 -8.453125l1.75 0l0 8.453125l-1.75 0zm7.8044434 0.15625q-1.59375 0 -2.375 -0.8125q-0.765625 -0.8125 -0.765625 -2.359375l0 -4.09375l-1.65625 0l0 -1.34375l1.65625 0l0 -2.546875l1.75 0l0 2.546875l2.609375 0l0 1.34375l-2.609375 0l0 3.953125q0 0.921875 0.375 1.390625q0.390625 0.46875 1.28125 0.46875q0.28125 0 0.53125 -0.0625q0.265625 -0.0625 0.53125 -0.140625l0.265625 1.3125q-0.25 0.15625 -0.71875 0.25q-0.453125 0.09375 -0.875 0.09375zm3.7117004 2.96875l1.515625 -3.34375l-3.546875 -8.234375l1.875 0l2.609375 6.421875l2.625 -6.421875l1.796875 0l-5.03125 11.578125l-1.84375 0z" fill-rule="nonzero"/><path fill="#ffffff" d="m265.17703 380.2559q-1.140625 0 -2.140625 -0.28125q-0.984375 -0.265625 -1.75 -0.828125l0.546875 -1.25q0.765625 0.515625 1.5625 0.75q0.796875 0.25 1.65625 0.25q2.421875 0 2.421875 -2.421875l0 -1.34375q-0.359375 0.765625 -1.140625 1.203125q-0.765625 0.4375 -1.71875 0.4375q-1.140625 0 -2.0 -0.53125q-0.84375 -0.53125 -1.3125 -1.46875q-0.453125 -0.953125 -0.453125 -2.21875q0 -1.25 0.453125 -2.1875q0.46875 -0.953125 1.3125 -1.46875q0.859375 -0.53125 2.0 -0.53125q0.96875 0 1.734375 0.4375q0.765625 0.421875 1.125 1.1875l0 -1.46875l1.703125 0l0 7.75q0 1.984375 -1.03125 2.984375q-1.015625 1.0 -2.96875 1.0zm-0.140625 -4.859375q1.109375 0 1.765625 -0.765625q0.65625 -0.765625 0.65625 -2.078125q0 -1.3125 -0.65625 -2.0625q-0.65625 -0.765625 -1.765625 -0.765625q-1.109375 0 -1.765625 0.765625q-0.65625 0.75 -0.65625 2.0625q0 1.3125 0.65625 2.078125q0.65625 0.765625 1.765625 0.765625zm10.277222 1.734375q-1.28125 0 -2.21875 -0.53125q-0.9375 -0.546875 -1.453125 -1.515625q-0.5 -0.984375 -0.5 -2.34375q0 -1.34375 0.5 -2.3125q0.515625 -0.984375 1.453125 -1.515625q0.9375 -0.546875 2.21875 -0.546875q1.25 0 2.171875 0.546875q0.9375 0.53125 1.453125 1.515625q0.53125 0.96875 0.53125 2.3125q0 1.359375 -0.53125 2.34375q-0.515625 0.96875 -1.453125 1.515625q-0.921875 0.53125 -2.171875 0.53125zm0 -1.359375q1.078125 0 1.734375 -0.765625q0.65625 -0.78125 0.65625 -2.265625q0 -1.46875 -0.65625 -2.234375q-0.65625 -0.78125 -1.734375 -0.78125q-1.09375 0 -1.75 0.78125q-0.65625 0.765625 -0.65625 2.234375q0 1.484375 0.65625 2.265625q0.65625 0.765625 1.75 0.765625zm8.431213 1.203125l-3.640625 -8.453125l1.890625 0l2.59375 6.421875l2.640625 -6.421875l1.78125 0l-3.6875 8.453125l-1.578125 0zm10.354553 0.15625q-2.078125 0 -3.28125 -1.171875q-1.1875 -1.171875 -1.1875 -3.1875q0 -1.3125 0.515625 -2.296875q0.53125 -1.0 1.46875 -1.546875q0.9375 -0.5625 2.15625 -0.5625q1.75 0 2.75 1.125q1.0 1.109375 1.0 3.0625l0 0.59375l-6.203125 0q0.1875 2.625 2.796875 2.625q0.71875 0 1.421875 -0.21875q0.703125 -0.21875 1.328125 -0.75l0.515625 1.21875q-0.5625 0.515625 -1.46875 0.8125q-0.90625 0.296875 -1.8125 0.296875zm-0.265625 -7.53125q-1.09375 0 -1.734375 0.671875q-0.640625 0.671875 -0.78125 1.796875l4.734375 0q-0.046875 -1.171875 -0.625 -1.8125q-0.578125 -0.65625 -1.59375 -0.65625zm5.6020203 7.375l0 -8.453125l1.6875 0l0 1.5q0.671875 -1.5 2.75 -1.671875l0.5625 -0.03125l0.125 1.484375l-1.0625 0.109375q-2.296875 0.21875 -2.296875 2.359375l0 4.703125l-1.765625 0zm6.4633484 0l0 -8.453125l1.6875 0l0 1.40625q0.4375 -0.765625 1.1875 -1.15625q0.765625 -0.40625 1.703125 -0.40625q2.984375 0 2.984375 3.390625l0 5.21875l-1.75 0l0 -5.109375q0 -1.09375 -0.421875 -1.59375q-0.421875 -0.5 -1.328125 -0.5q-1.046875 0 -1.6875 0.671875q-0.625 0.65625 -0.625 1.75l0 4.78125l-1.75 0zm12.684082 0.15625q-0.890625 0 -1.59375 -0.34375q-0.6875 -0.34375 -1.09375 -0.9375q-0.40625 -0.59375 -0.40625 -1.328125q0 -0.9375 0.46875 -1.46875q0.484375 -0.546875 1.578125 -0.78125q1.109375 -0.25 2.984375 -0.25l0.59375 0l0 -0.453125q0 -0.984375 -0.421875 -1.421875q-0.421875 -0.4375 -1.375 -0.4375q-0.71875 0 -1.453125 0.21875q-0.71875 0.21875 -1.484375 0.6875l-0.53125 -1.234375q0.65625 -0.46875 1.640625 -0.734375q0.984375 -0.28125 1.890625 -0.28125q1.734375 0 2.5625 0.828125q0.828125 0.8125 0.828125 2.5625l0 5.21875l-1.640625 0l0 -1.40625q-0.3125 0.734375 -0.96875 1.15625q-0.65625 0.40625 -1.578125 0.40625zm0.34375 -1.25q0.9375 0 1.5625 -0.65625q0.625 -0.65625 0.625 -1.65625l0 -0.46875l-0.578125 0q-1.265625 0 -1.984375 0.125q-0.71875 0.109375 -1.03125 0.40625q-0.296875 0.28125 -0.296875 0.78125q0 0.65625 0.453125 1.0625q0.453125 0.40625 1.25 0.40625zm6.2582703 1.09375l0 -8.453125l1.6875 0l0 1.40625q0.4375 -0.765625 1.1875 -1.15625q0.765625 -0.40625 1.703125 -0.40625q2.984375 0 2.984375 3.390625l0 5.21875l-1.75 0l0 -5.109375q0 -1.09375 -0.421875 -1.59375q-0.421875 -0.5 -1.328125 -0.5q-1.046875 0 -1.6875 0.671875q-0.625 0.65625 -0.625 1.75l0 4.78125l-1.75 0zm13.6996765 0.15625q-1.296875 0 -2.25 -0.546875q-0.9375 -0.546875 -1.453125 -1.53125q-0.515625 -1.0 -0.515625 -2.359375q0 -2.015625 1.140625 -3.171875q1.140625 -1.15625 3.078125 -1.15625q0.796875 0 1.578125 0.28125q0.78125 0.265625 1.28125 0.75l-0.546875 1.234375q-0.484375 -0.453125 -1.078125 -0.65625q-0.578125 -0.21875 -1.09375 -0.21875q-1.234375 0 -1.90625 0.765625q-0.65625 0.765625 -0.65625 2.1875q0 1.421875 0.65625 2.234375q0.671875 0.796875 1.90625 0.796875q0.515625 0 1.09375 -0.203125q0.59375 -0.21875 1.078125 -0.671875l0.546875 1.25q-0.5 0.453125 -1.296875 0.734375q-0.78125 0.28125 -1.5625 0.28125zm8.168854 0q-2.078125 0 -3.28125 -1.171875q-1.1875 -1.171875 -1.1875 -3.1875q0 -1.3125 0.515625 -2.296875q0.53125 -1.0 1.46875 -1.546875q0.9375 -0.5625 2.15625 -0.5625q1.75 0 2.75 1.125q1.0 1.109375 1.0 3.0625l0 0.59375l-6.203125 0q0.1875 2.625 2.796875 2.625q0.71875 0 1.421875 -0.21875q0.703125 -0.21875 1.328125 -0.75l0.515625 1.21875q-0.5625 0.515625 -1.46875 0.8125q-0.90625 0.296875 -1.8125 0.296875zm-0.265625 -7.53125q-1.09375 0 -1.734375 0.671875q-0.640625 0.671875 -0.78125 1.796875l4.734375 0q-0.046875 -1.171875 -0.625 -1.8125q-0.578125 -0.65625 -1.59375 -0.65625z" fill-rule="nonzero"/><path fill="#ffffff" d="m278.44293 398.1309q-0.96875 0 -1.71875 -0.421875q-0.734375 -0.4375 -1.09375 -1.171875l0 1.4375l-1.71875 0l0 -12.21875l1.75 0l0 5.125q0.375 -0.6875 1.109375 -1.09375q0.734375 -0.421875 1.671875 -0.421875q1.125 0 1.96875 0.546875q0.84375 0.53125 1.296875 1.515625q0.46875 0.96875 0.46875 2.3125q0 1.359375 -0.46875 2.34375q-0.453125 0.984375 -1.296875 1.515625q-0.84375 0.53125 -1.96875 0.53125zm-0.421875 -1.359375q1.078125 0 1.734375 -0.765625q0.65625 -0.78125 0.65625 -2.265625q0 -1.46875 -0.65625 -2.234375q-0.65625 -0.78125 -1.734375 -0.78125q-1.09375 0 -1.75 0.78125q-0.640625 0.765625 -0.640625 2.234375q0 1.484375 0.640625 2.265625q0.65625 0.765625 1.75 0.765625zm8.834595 1.359375q-0.890625 0 -1.59375 -0.34375q-0.6875 -0.34375 -1.09375 -0.9375q-0.40625 -0.59375 -0.40625 -1.328125q0 -0.9375 0.46875 -1.46875q0.484375 -0.546875 1.578125 -0.78125q1.109375 -0.25 2.984375 -0.25l0.59375 0l0 -0.453125q0 -0.984375 -0.421875 -1.421875q-0.421875 -0.4375 -1.375 -0.4375q-0.71875 0 -1.453125 0.21875q-0.71875 0.21875 -1.484375 0.6875l-0.53125 -1.234375q0.65625 -0.46875 1.640625 -0.734375q0.984375 -0.28125 1.890625 -0.28125q1.734375 0 2.5625 0.828125q0.828125 0.8125 0.828125 2.5625l0 5.21875l-1.640625 0l0 -1.40625q-0.3125 0.734375 -0.96875 1.15625q-0.65625 0.40625 -1.578125 0.40625zm0.34375 -1.25q0.9375 0 1.5625 -0.65625q0.625 -0.65625 0.625 -1.65625l0 -0.46875l-0.578125 0q-1.265625 0 -1.984375 0.125q-0.71875 0.109375 -1.03125 0.40625q-0.296875 0.28125 -0.296875 0.78125q0 0.65625 0.453125 1.0625q0.453125 0.40625 1.25 0.40625zm9.97702 1.25q-1.296875 0 -2.25 -0.546875q-0.9375 -0.546875 -1.453125 -1.53125q-0.515625 -1.0 -0.515625 -2.359375q0 -2.015625 1.140625 -3.171875q1.140625 -1.15625 3.078125 -1.15625q0.796875 0 1.578125 0.28125q0.78125 0.265625 1.28125 0.75l-0.546875 1.234375q-0.484375 -0.453125 -1.078125 -0.65625q-0.578125 -0.21875 -1.09375 -0.21875q-1.234375 0 -1.90625 0.765625q-0.65625 0.765625 -0.65625 2.1875q0 1.421875 0.65625 2.234375q0.671875 0.796875 1.90625 0.796875q0.515625 0 1.09375 -0.203125q0.59375 -0.21875 1.078125 -0.671875l0.546875 1.25q-0.5 0.453125 -1.296875 0.734375q-0.78125 0.28125 -1.5625 0.28125zm4.3734436 -0.15625l0 -12.21875l1.75 0l0 7.453125l0.03125 0l3.671875 -3.6875l2.171875 0l-4.0625 4.0625l4.375 4.390625l-2.1875 0l-3.96875 -3.859375l-0.03125 0l0 3.859375l-1.75 0zm12.71933 0.15625q-2.078125 0 -3.28125 -1.171875q-1.1875 -1.171875 -1.1875 -3.1875q0 -1.3125 0.515625 -2.296875q0.53125 -1.0 1.46875 -1.546875q0.9375 -0.5625 2.15625 -0.5625q1.75 0 2.75 1.125q1.0 1.109375 1.0 3.0625l0 0.59375l-6.203125 0q0.1875 2.625 2.796875 2.625q0.71875 0 1.421875 -0.21875q0.703125 -0.21875 1.328125 -0.75l0.515625 1.21875q-0.5625 0.515625 -1.46875 0.8125q-0.90625 0.296875 -1.8125 0.296875zm-0.265625 -7.53125q-1.09375 0 -1.734375 0.671875q-0.640625 0.671875 -0.78125 1.796875l4.734375 0q-0.046875 -1.171875 -0.625 -1.8125q-0.578125 -0.65625 -1.59375 -0.65625zm5.6020203 7.375l0 -8.453125l1.6875 0l0 1.40625q0.4375 -0.765625 1.1875 -1.15625q0.765625 -0.40625 1.703125 -0.40625q2.984375 0 2.984375 3.390625l0 5.21875l-1.75 0l0 -5.109375q0 -1.09375 -0.421875 -1.59375q-0.421875 -0.5 -1.328125 -0.5q-1.046875 0 -1.6875 0.671875q-0.625 0.65625 -0.625 1.75l0 4.78125l-1.75 0zm13.199707 0.15625q-1.109375 0 -1.953125 -0.53125q-0.84375 -0.53125 -1.3125 -1.515625q-0.453125 -0.984375 -0.453125 -2.34375q0 -1.34375 0.453125 -2.3125q0.46875 -0.984375 1.296875 -1.515625q0.84375 -0.546875 1.96875 -0.546875q0.953125 0 1.6875 0.421875q0.75 0.40625 1.125 1.125l0 -5.15625l1.75 0l0 12.21875l-1.71875 0l0 -1.46875q-0.359375 0.765625 -1.125 1.203125q-0.75 0.421875 -1.71875 0.421875zm0.453125 -1.359375q1.078125 0 1.734375 -0.765625q0.65625 -0.78125 0.65625 -2.265625q0 -1.46875 -0.65625 -2.234375q-0.65625 -0.78125 -1.734375 -0.78125q-1.09375 0 -1.75 0.78125q-0.65625 0.765625 -0.65625 2.234375q0 1.484375 0.65625 2.265625q0.65625 0.765625 1.75 0.765625z" fill-rule="nonzero"/><path fill="#76a5af" d="m520.0 328.86615l0 0c0 6.00119 39.095764 10.866119 87.322815 10.866119c48.22711 0 87.322876 -4.864929 87.322876 -10.866119l0 65.19684c0 6.0012207 -39.095764 10.86615 -87.322876 10.86615c-48.22705 0 -87.322815 -4.864929 -87.322815 -10.86615z" fill-rule="evenodd"/><path fill="#acc9cf" d="m520.0 328.86615l0 0c0 -6.0012207 39.095764 -10.86615 87.322815 -10.86615c48.22711 0 87.322876 4.864929 87.322876 10.86615l0 0c0 6.00119 -39.095764 10.866119 -87.322876 10.866119c-48.22705 0 -87.322815 -4.864929 -87.322815 -10.866119z" fill-rule="evenodd"/><path fill="#000000" fill-opacity="0.0" d="m694.6457 328.86615l0 0c0 6.00119 -39.095764 10.866119 -87.322876 10.866119c-48.22705 0 -87.322815 -4.864929 -87.322815 -10.866119l0 0c0 -6.0012207 39.095764 -10.86615 87.322815 -10.86615c48.22711 0 87.322876 4.864929 87.322876 10.86615l0 65.19684c0 6.0012207 -39.095764 10.86615 -87.322876 10.86615c-48.22705 0 -87.322815 -4.864929 -87.322815 -10.86615l0 -65.19684" fill-rule="evenodd"/><path fill="#ffffff" d="m549.37524 362.69388q-1.296875 0 -2.25 -0.546875q-0.9375 -0.546875 -1.453125 -1.53125q-0.515625 -1.0 -0.515625 -2.359375q0 -2.015625 1.140625 -3.171875q1.140625 -1.15625 3.078125 -1.15625q0.796875 0 1.578125 0.28125q0.78125 0.265625 1.28125 0.75l-0.546875 1.234375q-0.484375 -0.453125 -1.078125 -0.65625q-0.578125 -0.21875 -1.09375 -0.21875q-1.234375 0 -1.90625 0.765625q-0.65625 0.765625 -0.65625 2.1875q0 1.421875 0.65625 2.234375q0.671875 0.796875 1.90625 0.796875q0.515625 0 1.09375 -0.203125q0.59375 -0.21875 1.078125 -0.671875l0.546875 1.25q-0.5 0.453125 -1.296875 0.734375q-0.78125 0.28125 -1.5625 0.28125zm7.8719482 0q-1.28125 0 -2.21875 -0.53125q-0.9375 -0.546875 -1.453125 -1.515625q-0.5 -0.984375 -0.5 -2.34375q0 -1.34375 0.5 -2.3125q0.515625 -0.984375 1.453125 -1.515625q0.9375 -0.546875 2.21875 -0.546875q1.25 0 2.171875 0.546875q0.9375 0.53125 1.453125 1.515625q0.53125 0.96875 0.53125 2.3125q0 1.359375 -0.53125 2.34375q-0.515625 0.96875 -1.453125 1.515625q-0.921875 0.53125 -2.171875 0.53125zm0 -1.359375q1.078125 0 1.734375 -0.765625q0.65625 -0.78125 0.65625 -2.265625q0 -1.46875 -0.65625 -2.234375q-0.65625 -0.78125 -1.734375 -0.78125q-1.09375 0 -1.75 0.78125q-0.65625 0.765625 -0.65625 2.234375q0 1.484375 0.65625 2.265625q0.65625 0.765625 1.75 0.765625zm6.149719 1.203125l0 -8.453125l1.703125 0l0 1.359375q0.375 -0.71875 1.046875 -1.109375q0.6875 -0.40625 1.578125 -0.40625q1.9375 0 2.515625 1.703125q0.40625 -0.8125 1.140625 -1.25q0.75 -0.453125 1.703125 -0.453125q2.84375 0 2.84375 3.390625l0 5.21875l-1.75 0l0 -5.125q0 -1.078125 -0.375 -1.578125q-0.375 -0.5 -1.21875 -0.5q-0.953125 0 -1.515625 0.671875q-0.546875 0.65625 -0.546875 1.796875l0 4.734375l-1.75 0l0 -5.125q0 -1.078125 -0.375 -1.578125q-0.359375 -0.5 -1.203125 -0.5q-0.953125 0 -1.5 0.671875q-0.546875 0.65625 -0.546875 1.796875l0 4.734375l-1.75 0zm15.0061035 0l0 -8.453125l1.703125 0l0 1.359375q0.375 -0.71875 1.046875 -1.109375q0.6875 -0.40625 1.578125 -0.40625q1.9375 0 2.515625 1.703125q0.40625 -0.8125 1.140625 -1.25q0.75 -0.453125 1.703125 -0.453125q2.84375 0 2.84375 3.390625l0 5.21875l-1.75 0l0 -5.125q0 -1.078125 -0.375 -1.578125q-0.375 -0.5 -1.21875 -0.5q-0.953125 0 -1.515625 0.671875q-0.546875 0.65625 -0.546875 1.796875l0 4.734375l-1.75 0l0 -5.125q0 -1.078125 -0.375 -1.578125q-0.359375 -0.5 -1.203125 -0.5q-0.953125 0 -1.5 0.671875q-0.546875 0.65625 -0.546875 1.796875l0 4.734375l-1.75 0zm17.990417 0.15625q-3.078125 0 -3.078125 -3.40625l0 -5.203125l1.75 0l0 5.21875q0 1.015625 0.421875 1.5q0.421875 0.484375 1.3125 0.484375q1.0 0 1.609375 -0.65625q0.609375 -0.65625 0.609375 -1.765625l0 -4.78125l1.75 0l0 8.453125l-1.6875 0l0 -1.359375q-0.421875 0.75 -1.125 1.140625q-0.6875 0.375 -1.5625 0.375zm6.844055 -0.15625l0 -8.453125l1.6875 0l0 1.40625q0.4375 -0.765625 1.1875 -1.15625q0.765625 -0.40625 1.703125 -0.40625q2.984375 0 2.984375 3.390625l0 5.21875l-1.75 0l0 -5.109375q0 -1.09375 -0.421875 -1.59375q-0.421875 -0.5 -1.328125 -0.5q-1.046875 0 -1.6875 0.671875q-0.625 0.65625 -0.625 1.75l0 4.78125l-1.75 0zm9.824646 -10.421875l0 -1.8125l2.046875 0l0 1.8125l-2.046875 0zm0.15625 10.421875l0 -8.453125l1.75 0l0 8.453125l-1.75 0zm7.8045044 0.15625q-1.59375 0 -2.375 -0.8125q-0.765625 -0.8125 -0.765625 -2.359375l0 -4.09375l-1.65625 0l0 -1.34375l1.65625 0l0 -2.546875l1.75 0l0 2.546875l2.609375 0l0 1.34375l-2.609375 0l0 3.953125q0 0.921875 0.375 1.390625q0.390625 0.46875 1.28125 0.46875q0.28125 0 0.53125 -0.0625q0.265625 -0.0625 0.53125 -0.140625l0.265625 1.3125q-0.25 0.15625 -0.71875 0.25q-0.453125 0.09375 -0.875 0.09375zm3.71167 2.96875l1.515625 -3.34375l-3.546875 -8.234375l1.875 0l2.609375 6.421875l2.625 -6.421875l1.796875 0l-5.03125 11.578125l-1.84375 0zm15.72406 -2.96875q-3.078125 0 -3.078125 -3.40625l0 -5.203125l1.75 0l0 5.21875q0 1.015625 0.421875 1.5q0.421875 0.484375 1.3125 0.484375q1.0 0 1.609375 -0.65625q0.609375 -0.65625 0.609375 -1.765625l0 -4.78125l1.75 0l0 8.453125l-1.6875 0l0 -1.359375q-0.421875 0.75 -1.125 1.140625q-0.6875 0.375 -1.5625 0.375zm9.79718 0q-1.03125 0 -1.9375 -0.265625q-0.890625 -0.265625 -1.5 -0.75l0.5 -1.1875q0.640625 0.453125 1.40625 0.703125q0.78125 0.234375 1.546875 0.234375q0.921875 0 1.390625 -0.328125q0.46875 -0.328125 0.46875 -0.890625q0 -0.4375 -0.3125 -0.6875q-0.3125 -0.265625 -0.9375 -0.390625l-1.640625 -0.34375q-2.1875 -0.4375 -2.1875 -2.25q0 -1.1875 0.953125 -1.890625q0.953125 -0.71875 2.5 -0.71875q0.875 0 1.6875 0.265625q0.8125 0.25 1.34375 0.765625l-0.5 1.1875q-0.515625 -0.453125 -1.203125 -0.6875q-0.671875 -0.25 -1.328125 -0.25q-0.90625 0 -1.375 0.34375q-0.46875 0.328125 -0.46875 0.90625q0 0.859375 1.15625 1.109375l1.640625 0.328125q1.125 0.21875 1.703125 0.765625q0.578125 0.53125 0.578125 1.453125q0 1.203125 -0.953125 1.890625q-0.953125 0.6875 -2.53125 0.6875zm9.402405 0q-2.078125 0 -3.28125 -1.171875q-1.1875 -1.171875 -1.1875 -3.1875q0 -1.3125 0.515625 -2.296875q0.53125 -1.0 1.46875 -1.546875q0.9375 -0.5625 2.15625 -0.5625q1.75 0 2.75 1.125q1.0 1.109375 1.0 3.0625l0 0.59375l-6.203125 0q0.1875 2.625 2.796875 2.625q0.71875 0 1.421875 -0.21875q0.703125 -0.21875 1.328125 -0.75l0.515625 1.21875q-0.5625 0.515625 -1.46875 0.8125q-0.90625 0.296875 -1.8125 0.296875zm-0.265625 -7.53125q-1.09375 0 -1.734375 0.671875q-0.640625 0.671875 -0.78125 1.796875l4.734375 0q-0.046875 -1.171875 -0.625 -1.8125q-0.578125 -0.65625 -1.59375 -0.65625zm5.6019897 7.375l0 -8.453125l1.6875 0l0 1.5q0.671875 -1.5 2.75 -1.671875l0.5625 -0.03125l0.125 1.484375l-1.0625 0.109375q-2.296875 0.21875 -2.296875 2.359375l0 4.703125l-1.765625 0z" fill-rule="nonzero"/><path fill="#ffffff" d="m580.1306 383.69388q-0.96875 0 -1.71875 -0.421875q-0.734375 -0.4375 -1.09375 -1.171875l0 1.4375l-1.71875 0l0 -12.21875l1.75 0l0 5.125q0.375 -0.6875 1.109375 -1.09375q0.734375 -0.421875 1.671875 -0.421875q1.125 0 1.96875 0.546875q0.84375 0.53125 1.296875 1.515625q0.46875 0.96875 0.46875 2.3125q0 1.359375 -0.46875 2.34375q-0.453125 0.984375 -1.296875 1.515625q-0.84375 0.53125 -1.96875 0.53125zm-0.421875 -1.359375q1.078125 0 1.734375 -0.765625q0.65625 -0.78125 0.65625 -2.265625q0 -1.46875 -0.65625 -2.234375q-0.65625 -0.78125 -1.734375 -0.78125q-1.09375 0 -1.75 0.78125q-0.640625 0.765625 -0.640625 2.234375q0 1.484375 0.640625 2.265625q0.65625 0.765625 1.75 0.765625zm8.834595 1.359375q-0.890625 0 -1.59375 -0.34375q-0.6875 -0.34375 -1.09375 -0.9375q-0.40625 -0.59375 -0.40625 -1.328125q0 -0.9375 0.46875 -1.46875q0.484375 -0.546875 1.578125 -0.78125q1.109375 -0.25 2.984375 -0.25l0.59375 0l0 -0.453125q0 -0.984375 -0.421875 -1.421875q-0.421875 -0.4375 -1.375 -0.4375q-0.71875 0 -1.453125 0.21875q-0.71875 0.21875 -1.484375 0.6875l-0.53125 -1.234375q0.65625 -0.46875 1.640625 -0.734375q0.984375 -0.28125 1.890625 -0.28125q1.734375 0 2.5625 0.828125q0.828125 0.8125 0.828125 2.5625l0 5.21875l-1.640625 0l0 -1.40625q-0.3125 0.734375 -0.96875 1.15625q-0.65625 0.40625 -1.578125 0.40625zm0.34375 -1.25q0.9375 0 1.5625 -0.65625q0.625 -0.65625 0.625 -1.65625l0 -0.46875l-0.578125 0q-1.265625 0 -1.984375 0.125q-0.71875 0.109375 -1.03125 0.40625q-0.296875 0.28125 -0.296875 0.78125q0 0.65625 0.453125 1.0625q0.453125 0.40625 1.25 0.40625zm9.977051 1.25q-1.296875 0 -2.25 -0.546875q-0.9375 -0.546875 -1.453125 -1.53125q-0.515625 -1.0 -0.515625 -2.359375q0 -2.015625 1.140625 -3.171875q1.140625 -1.15625 3.078125 -1.15625q0.796875 0 1.578125 0.28125q0.78125 0.265625 1.28125 0.75l-0.546875 1.234375q-0.484375 -0.453125 -1.078125 -0.65625q-0.578125 -0.21875 -1.09375 -0.21875q-1.234375 0 -1.90625 0.765625q-0.65625 0.765625 -0.65625 2.1875q0 1.421875 0.65625 2.234375q0.671875 0.796875 1.90625 0.796875q0.515625 0 1.09375 -0.203125q0.59375 -0.21875 1.078125 -0.671875l0.546875 1.25q-0.5 0.453125 -1.296875 0.734375q-0.78125 0.28125 -1.5625 0.28125zm4.373413 -0.15625l0 -12.21875l1.75 0l0 7.453125l0.03125 0l3.671875 -3.6875l2.171875 0l-4.0625 4.0625l4.375 4.390625l-2.1875 0l-3.96875 -3.859375l-0.03125 0l0 3.859375l-1.75 0zm12.71936 0.15625q-2.078125 0 -3.28125 -1.171875q-1.1875 -1.171875 -1.1875 -3.1875q0 -1.3125 0.515625 -2.296875q0.53125 -1.0 1.46875 -1.546875q0.9375 -0.5625 2.15625 -0.5625q1.75 0 2.75 1.125q1.0 1.109375 1.0 3.0625l0 0.59375l-6.203125 0q0.1875 2.625 2.796875 2.625q0.71875 0 1.421875 -0.21875q0.703125 -0.21875 1.328125 -0.75l0.515625 1.21875q-0.5625 0.515625 -1.46875 0.8125q-0.90625 0.296875 -1.8125 0.296875zm-0.265625 -7.53125q-1.09375 0 -1.734375 0.671875q-0.640625 0.671875 -0.78125 1.796875l4.734375 0q-0.046875 -1.171875 -0.625 -1.8125q-0.578125 -0.65625 -1.59375 -0.65625zm5.6019897 7.375l0 -8.453125l1.6875 0l0 1.40625q0.4375 -0.765625 1.1875 -1.15625q0.765625 -0.40625 1.703125 -0.40625q2.984375 0 2.984375 3.390625l0 5.21875l-1.75 0l0 -5.109375q0 -1.09375 -0.421875 -1.59375q-0.421875 -0.5 -1.328125 -0.5q-1.046875 0 -1.6875 0.671875q-0.625 0.65625 -0.625 1.75l0 4.78125l-1.75 0zm13.199707 0.15625q-1.109375 0 -1.953125 -0.53125q-0.84375 -0.53125 -1.3125 -1.515625q-0.453125 -0.984375 -0.453125 -2.34375q0 -1.34375 0.453125 -2.3125q0.46875 -0.984375 1.296875 -1.515625q0.84375 -0.546875 1.96875 -0.546875q0.953125 0 1.6875 0.421875q0.75 0.40625 1.125 1.125l0 -5.15625l1.75 0l0 12.21875l-1.71875 0l0 -1.46875q-0.359375 0.765625 -1.125 1.203125q-0.75 0.421875 -1.71875 0.421875zm0.453125 -1.359375q1.078125 0 1.734375 -0.765625q0.65625 -0.78125 0.65625 -2.265625q0 -1.46875 -0.65625 -2.234375q-0.65625 -0.78125 -1.734375 -0.78125q-1.09375 0 -1.75 0.78125q-0.65625 0.765625 -0.65625 2.234375q0 1.484375 0.65625 2.265625q0.65625 0.765625 1.75 0.765625z" fill-rule="nonzero"/><path fill="#76a5af" d="m534.7087 70.530594l123.65314 0l0 99.65314l-123.65314 0z" fill-rule="evenodd"/><path fill="#5e838b" d="m658.3618 70.530594l10.646057 -10.64608l0 99.65313l-10.646057 10.646088z" fill-rule="evenodd"/><path fill="#91b7bf" d="m534.7087 70.530594l10.646057 -10.64608l123.65314 0l-10.646057 10.64608z" fill-rule="evenodd"/><path fill="#000000" fill-opacity="0.0" d="m534.7087 70.530594l10.646057 -10.64608l123.65314 0l0 99.65313l-10.646057 10.646088l-123.65314 0zm0 0l123.65314 0l10.646057 -10.64608m-10.646057 10.64608l0 99.65314" fill-rule="evenodd"/><path fill="#ffffff" d="m557.8737 105.65341q-1.296875 0 -2.25 -0.546875q-0.9375 -0.546875 -1.453125 -1.53125q-0.515625 -1.0 -0.515625 -2.359375q0 -2.015625 1.140625 -3.171875q1.140625 -1.15625 3.078125 -1.15625q0.796875 0 1.578125 0.28125q0.78125 0.265625 1.28125 0.75l-0.546875 1.234375q-0.484375 -0.453125 -1.078125 -0.65625q-0.578125 -0.21875 -1.09375 -0.21875q-1.234375 0 -1.90625 0.765625q-0.65625 0.765625 -0.65625 2.1875q0 1.421875 0.65625 2.234375q0.671875 0.796875 1.90625 0.796875q0.515625 0 1.09375 -0.203125q0.59375 -0.21875 1.078125 -0.671875l0.546875 1.25q-0.5 0.453125 -1.296875 0.734375q-0.78125 0.28125 -1.5625 0.28125zm7.8720093 0q-1.28125 0 -2.21875 -0.53125q-0.9375 -0.546875 -1.453125 -1.515625q-0.5 -0.984375 -0.5 -2.34375q0 -1.34375 0.5 -2.3125q0.515625 -0.984375 1.453125 -1.515625q0.9375 -0.546875 2.21875 -0.546875q1.25 0 2.171875 0.546875q0.9375 0.53125 1.453125 1.515625q0.53125 0.96875 0.53125 2.3125q0 1.359375 -0.53125 2.34375q-0.515625 0.96875 -1.453125 1.515625q-0.921875 0.53125 -2.171875 0.53125zm0 -1.359375q1.078125 0 1.734375 -0.765625q0.65625 -0.78125 0.65625 -2.265625q0 -1.46875 -0.65625 -2.234375q-0.65625 -0.78125 -1.734375 -0.78125q-1.09375 0 -1.75 0.78125q-0.65625 0.765625 -0.65625 2.234375q0 1.484375 0.65625 2.265625q0.65625 0.765625 1.75 0.765625zm6.149658 1.203125l0 -8.453125l1.703125 0l0 1.359375q0.375 -0.71875 1.046875 -1.109375q0.6875 -0.40625 1.578125 -0.40625q1.9375 0 2.515625 1.703125q0.40625 -0.8125 1.140625 -1.25q0.75 -0.453125 1.703125 -0.453125q2.84375 0 2.84375 3.390625l0 5.21875l-1.75 0l0 -5.125q0 -1.078125 -0.375 -1.578125q-0.375 -0.5 -1.21875 -0.5q-0.953125 0 -1.515625 0.671875q-0.546875 0.65625 -0.546875 1.796875l0 4.734375l-1.75 0l0 -5.125q0 -1.078125 -0.375 -1.578125q-0.359375 -0.5 -1.203125 -0.5q-0.953125 0 -1.5 0.671875q-0.546875 0.65625 -0.546875 1.796875l0 4.734375l-1.75 0zm15.0061035 0l0 -8.453125l1.703125 0l0 1.359375q0.375 -0.71875 1.046875 -1.109375q0.6875 -0.40625 1.578125 -0.40625q1.9375 0 2.515625 1.703125q0.40625 -0.8125 1.140625 -1.25q0.75 -0.453125 1.703125 -0.453125q2.84375 0 2.84375 3.390625l0 5.21875l-1.75 0l0 -5.125q0 -1.078125 -0.375 -1.578125q-0.375 -0.5 -1.21875 -0.5q-0.953125 0 -1.515625 0.671875q-0.546875 0.65625 -0.546875 1.796875l0 4.734375l-1.75 0l0 -5.125q0 -1.078125 -0.375 -1.578125q-0.359375 -0.5 -1.203125 -0.5q-0.953125 0 -1.5 0.671875q-0.546875 0.65625 -0.546875 1.796875l0 4.734375l-1.75 0zm17.990417 0.15625q-3.078125 0 -3.078125 -3.40625l0 -5.203125l1.75 0l0 5.21875q0 1.015625 0.421875 1.5q0.421875 0.484375 1.3125 0.484375q1.0 0 1.609375 -0.65625q0.609375 -0.65625 0.609375 -1.765625l0 -4.78125l1.75 0l0 8.453125l-1.6875 0l0 -1.359375q-0.421875 0.75 -1.125 1.140625q-0.6875 0.375 -1.5625 0.375zm6.844055 -0.15625l0 -8.453125l1.6875 0l0 1.40625q0.4375 -0.765625 1.1875 -1.15625q0.765625 -0.40625 1.703125 -0.40625q2.984375 0 2.984375 3.390625l0 5.21875l-1.75 0l0 -5.109375q0 -1.09375 -0.421875 -1.59375q-0.421875 -0.5 -1.328125 -0.5q-1.046875 0 -1.6875 0.671875q-0.625 0.65625 -0.625 1.75l0 4.78125l-1.75 0zm9.824646 -10.421875l0 -1.8125l2.046875 0l0 1.8125l-2.046875 0zm0.15625 10.421875l0 -8.453125l1.75 0l0 8.453125l-1.75 0zm7.8045044 0.15625q-1.59375 0 -2.375 -0.8125q-0.765625 -0.8125 -0.765625 -2.359375l0 -4.09375l-1.65625 0l0 -1.34375l1.65625 0l0 -2.546875l1.75 0l0 2.546875l2.609375 0l0 1.34375l-2.609375 0l0 3.953125q0 0.921875 0.375 1.390625q0.390625 0.46875 1.28125 0.46875q0.28125 0 0.53125 -0.0625q0.265625 -0.0625 0.53125 -0.140625l0.265625 1.3125q-0.25 0.15625 -0.71875 0.25q-0.453125 0.09375 -0.875 0.09375zm3.71167 2.96875l1.515625 -3.34375l-3.546875 -8.234375l1.875 0l2.609375 6.421875l2.625 -6.421875l1.796875 0l-5.03125 11.578125l-1.84375 0z" fill-rule="nonzero"/><path fill="#ffffff" d="m583.7778 126.65341q-3.078125 0 -3.078125 -3.40625l0 -5.203125l1.75 0l0 5.21875q0 1.015625 0.421875 1.5q0.421875 0.484375 1.3125 0.484375q1.0 0 1.609375 -0.65625q0.609375 -0.65625 0.609375 -1.765625l0 -4.78125l1.75 0l0 8.453125l-1.6875 0l0 -1.359375q-0.421875 0.75 -1.125 1.140625q-0.6875 0.375 -1.5625 0.375zm9.79718 0q-1.03125 0 -1.9375 -0.265625q-0.890625 -0.265625 -1.5 -0.75l0.5 -1.1875q0.640625 0.453125 1.40625 0.703125q0.78125 0.234375 1.546875 0.234375q0.921875 0 1.390625 -0.328125q0.46875 -0.328125 0.46875 -0.890625q0 -0.4375 -0.3125 -0.6875q-0.3125 -0.265625 -0.9375 -0.390625l-1.640625 -0.34375q-2.1875 -0.4375 -2.1875 -2.25q0 -1.1875 0.953125 -1.890625q0.953125 -0.71875 2.5 -0.71875q0.875 0 1.6875 0.265625q0.8125 0.25 1.34375 0.765625l-0.5 1.1875q-0.515625 -0.453125 -1.203125 -0.6875q-0.671875 -0.25 -1.328125 -0.25q-0.90625 0 -1.375 0.34375q-0.46875 0.328125 -0.46875 0.90625q0 0.859375 1.15625 1.109375l1.640625 0.328125q1.125 0.21875 1.703125 0.765625q0.578125 0.53125 0.578125 1.453125q0 1.203125 -0.953125 1.890625q-0.953125 0.6875 -2.53125 0.6875zm9.402344 0q-2.078125 0 -3.28125 -1.171875q-1.1875 -1.171875 -1.1875 -3.1875q0 -1.3125 0.515625 -2.296875q0.53125 -1.0 1.46875 -1.546875q0.9375 -0.5625 2.15625 -0.5625q1.75 0 2.75 1.125q1.0 1.109375 1.0 3.0625l0 0.59375l-6.203125 0q0.1875 2.625 2.796875 2.625q0.71875 0 1.421875 -0.21875q0.703125 -0.21875 1.328125 -0.75l0.515625 1.21875q-0.5625 0.515625 -1.46875 0.8125q-0.90625 0.296875 -1.8125 0.296875zm-0.265625 -7.53125q-1.09375 0 -1.734375 0.671875q-0.640625 0.671875 -0.78125 1.796875l4.734375 0q-0.046875 -1.171875 -0.625 -1.8125q-0.578125 -0.65625 -1.59375 -0.65625zm5.602051 7.375l0 -8.453125l1.6875 0l0 1.5q0.671875 -1.5 2.75 -1.671875l0.5625 -0.03125l0.125 1.484375l-1.0625 0.109375q-2.296875 0.21875 -2.296875 2.359375l0 4.703125l-1.765625 0z" fill-rule="nonzero"/><path fill="#ffffff" d="m579.8803 147.65341q-1.296875 0 -2.25 -0.546875q-0.9375 -0.546875 -1.453125 -1.53125q-0.515625 -1.0 -0.515625 -2.359375q0 -2.015625 1.140625 -3.171875q1.140625 -1.15625 3.078125 -1.15625q0.796875 0 1.578125 0.28125q0.78125 0.265625 1.28125 0.75l-0.546875 1.234375q-0.484375 -0.453125 -1.078125 -0.65625q-0.578125 -0.21875 -1.09375 -0.21875q-1.234375 0 -1.90625 0.765625q-0.65625 0.765625 -0.65625 2.1875q0 1.421875 0.65625 2.234375q0.671875 0.796875 1.90625 0.796875q0.515625 0 1.09375 -0.203125q0.59375 -0.21875 1.078125 -0.671875l0.546875 1.25q-0.5 0.453125 -1.296875 0.734375q-0.78125 0.28125 -1.5625 0.28125zm7.123474 0q-1.390625 0 -2.078125 -0.78125q-0.671875 -0.78125 -0.671875 -2.28125l0 -9.3125l1.75 0l0 9.203125q0 1.71875 1.40625 1.71875q0.203125 0 0.375 -0.015625q0.1875 -0.015625 0.375 -0.078125l-0.03125 1.40625q-0.59375 0.140625 -1.125 0.140625zm2.3961182 -10.578125l0 -1.8125l2.046875 0l0 1.8125l-2.046875 0zm0.15625 10.421875l0 -8.453125l1.75 0l0 8.453125l-1.75 0zm8.179443 0.15625q-2.078125 0 -3.28125 -1.171875q-1.1875 -1.171875 -1.1875 -3.1875q0 -1.3125 0.515625 -2.296875q0.53125 -1.0 1.46875 -1.546875q0.9375 -0.5625 2.15625 -0.5625q1.75 0 2.75 1.125q1.0 1.109375 1.0 3.0625l0 0.59375l-6.203125 0q0.1875 2.625 2.796875 2.625q0.71875 0 1.421875 -0.21875q0.703125 -0.21875 1.328125 -0.75l0.515625 1.21875q-0.5625 0.515625 -1.46875 0.8125q-0.90625 0.296875 -1.8125 0.296875zm-0.265625 -7.53125q-1.09375 0 -1.734375 0.671875q-0.640625 0.671875 -0.78125 1.796875l4.734375 0q-0.046875 -1.171875 -0.625 -1.8125q-0.578125 -0.65625 -1.59375 -0.65625zm5.6019897 7.375l0 -8.453125l1.6875 0l0 1.40625q0.4375 -0.765625 1.1875 -1.15625q0.765625 -0.40625 1.703125 -0.40625q2.984375 0 2.984375 3.390625l0 5.21875l-1.75 0l0 -5.109375q0 -1.09375 -0.421875 -1.59375q-0.421875 -0.5 -1.328125 -0.5q-1.046875 0 -1.6875 0.671875q-0.625 0.65625 -0.625 1.75l0 4.78125l-1.75 0zm13.574707 0.15625q-1.59375 0 -2.375 -0.8125q-0.765625 -0.8125 -0.765625 -2.359375l0 -4.09375l-1.65625 0l0 -1.34375l1.65625 0l0 -2.546875l1.75 0l0 2.546875l2.609375 0l0 1.34375l-2.609375 0l0 3.953125q0 0.921875 0.375 1.390625q0.390625 0.46875 1.28125 0.46875q0.28125 0 0.53125 -0.0625q0.265625 -0.0625 0.53125 -0.140625l0.265625 1.3125q-0.25 0.15625 -0.71875 0.25q-0.453125 0.09375 -0.875 0.09375z" fill-rule="nonzero"/><path fill="#666666" d="m397.29135 450.3832l0 0c0 -4.6299133 3.7532654 -8.383209 8.383179 -8.383209l113.81625 0c2.2233887 0 4.355713 0.88323975 5.9278564 2.4553833c1.5721436 1.5721436 2.4553833 3.7044678 2.4553833 5.927826l0 33.532806c0 4.6299133 -3.753296 8.383209 -8.38324 8.383209l-113.81625 0l0 0c-4.6299133 0 -8.383179 -3.753296 -8.383179 -8.383209z" fill-rule="evenodd"/><path fill="#ffffff" d="m458.05548 465.99524q-0.96875 0 -1.8125 -0.234375q-0.828125 -0.21875 -1.46875 -0.703125l0.453125 -1.046875q0.640625 0.4375 1.3125 0.640625q0.671875 0.203125 1.40625 0.203125q2.0625 0 2.0625 -2.046875l0 -1.125q-0.3125 0.640625 -0.96875 1.015625q-0.65625 0.359375 -1.453125 0.359375q-0.96875 0 -1.6875 -0.4375q-0.71875 -0.453125 -1.125 -1.25q-0.390625 -0.8125 -0.390625 -1.875q0 -1.0625 0.390625 -1.859375q0.40625 -0.796875 1.125 -1.234375q0.71875 -0.453125 1.6875 -0.453125q0.8125 0 1.453125 0.375q0.65625 0.359375 0.96875 1.0l0 -1.25l1.4375 0l0 6.5625q0 1.671875 -0.875 2.515625q-0.859375 0.84375 -2.515625 0.84375zm-0.125 -4.09375q0.9375 0 1.5 -0.640625q0.5625 -0.65625 0.5625 -1.765625q0 -1.109375 -0.5625 -1.75q-0.5625 -0.640625 -1.5 -0.640625q-0.9375 0 -1.5 0.640625q-0.546875 0.640625 -0.546875 1.75q0 1.109375 0.546875 1.765625q0.5625 0.640625 1.5 0.640625zm5.455841 -7.484375l0 -1.53125l1.734375 0l0 1.53125l-1.734375 0zm0.140625 8.8125l0 -7.15625l1.46875 0l0 7.15625l-1.46875 0zm6.608368 0.125q-1.359375 0 -2.015625 -0.6875q-0.65625 -0.6875 -0.65625 -1.984375l0 -3.46875l-1.390625 0l0 -1.140625l1.390625 0l0 -2.15625l1.484375 0l0 2.15625l2.203125 0l0 1.140625l-2.203125 0l0 3.34375q0 0.78125 0.328125 1.1875q0.328125 0.390625 1.078125 0.390625q0.234375 0 0.453125 -0.046875q0.21875 -0.0625 0.4375 -0.140625l0.234375 1.125q-0.21875 0.125 -0.609375 0.203125q-0.390625 0.078125 -0.734375 0.078125z" fill-rule="nonzero"/><path fill="#ffffff" d="m424.43866 481.2296l0 -7.15625l1.4375 0l0 1.28125q0.546875 -1.28125 2.3125 -1.421875l0.484375 -0.03125l0.09375 1.265625l-0.890625 0.078125q-1.953125 0.1875 -1.953125 2.015625l0 3.96875l-1.484375 0zm8.707886 0.125q-1.75 0 -2.765625 -0.984375q-1.015625 -0.984375 -1.015625 -2.703125q0 -1.09375 0.453125 -1.9375q0.453125 -0.84375 1.234375 -1.3125q0.796875 -0.46875 1.828125 -0.46875q1.46875 0 2.3125 0.953125q0.859375 0.9375 0.859375 2.59375l0 0.5l-5.25 0q0.171875 2.21875 2.359375 2.21875q0.625 0 1.21875 -0.1875q0.59375 -0.1875 1.109375 -0.625l0.453125 1.015625q-0.484375 0.453125 -1.25 0.703125q-0.765625 0.234375 -1.546875 0.234375zm-0.21875 -6.375q-0.921875 0 -1.46875 0.578125q-0.53125 0.578125 -0.65625 1.53125l4.0 0q-0.03125 -1.0 -0.515625 -1.546875q-0.484375 -0.5625 -1.359375 -0.5625zm4.7454224 8.890625l0 -9.796875l1.4375 0l0 1.21875q0.3125 -0.609375 0.9375 -0.96875q0.640625 -0.375 1.453125 -0.375q0.953125 0 1.65625 0.453125q0.71875 0.453125 1.109375 1.28125q0.390625 0.828125 0.390625 1.96875q0 1.140625 -0.390625 1.984375q-0.390625 0.828125 -1.109375 1.28125q-0.703125 0.4375 -1.65625 0.4375q-0.78125 0 -1.40625 -0.34375q-0.625 -0.34375 -0.953125 -0.9375l0 3.796875l-1.46875 0zm3.46875 -3.65625q0.921875 0 1.46875 -0.65625q0.546875 -0.65625 0.546875 -1.90625q0 -1.25 -0.546875 -1.890625q-0.546875 -0.65625 -1.46875 -0.65625q-0.921875 0 -1.484375 0.65625q-0.546875 0.640625 -0.546875 1.890625q0 1.25 0.546875 1.90625q0.5625 0.65625 1.484375 0.65625zm8.286896 1.140625q-1.078125 0 -1.875 -0.453125q-0.78125 -0.453125 -1.21875 -1.28125q-0.4375 -0.828125 -0.4375 -1.96875q0 -1.140625 0.4375 -1.96875q0.4375 -0.828125 1.21875 -1.28125q0.796875 -0.453125 1.875 -0.453125q1.0625 0 1.84375 0.453125q0.796875 0.453125 1.234375 1.28125q0.453125 0.828125 0.453125 1.96875q0 1.140625 -0.453125 1.96875q-0.4375 0.828125 -1.234375 1.28125q-0.78125 0.453125 -1.84375 0.453125zm0 -1.140625q0.921875 0 1.46875 -0.65625q0.5625 -0.65625 0.5625 -1.90625q0 -1.25 -0.5625 -1.890625q-0.546875 -0.65625 -1.46875 -0.65625q-0.921875 0 -1.484375 0.65625q-0.546875 0.640625 -0.546875 1.890625q0 1.25 0.546875 1.90625q0.5625 0.65625 1.484375 0.65625zm7.687042 1.140625q-0.875 0 -1.640625 -0.21875q-0.765625 -0.234375 -1.28125 -0.640625l0.4375 -1.0q0.53125 0.390625 1.1875 0.59375q0.65625 0.203125 1.3125 0.203125q0.78125 0 1.171875 -0.28125q0.390625 -0.28125 0.390625 -0.75q0 -0.375 -0.265625 -0.578125q-0.25 -0.21875 -0.78125 -0.34375l-1.390625 -0.28125q-1.859375 -0.375 -1.859375 -1.90625q0 -1.0 0.8125 -1.59375q0.8125 -0.609375 2.109375 -0.609375q0.75 0 1.421875 0.21875q0.6875 0.21875 1.140625 0.65625l-0.421875 1.0q-0.4375 -0.390625 -1.015625 -0.59375q-0.5625 -0.203125 -1.125 -0.203125q-0.765625 0 -1.15625 0.296875q-0.390625 0.28125 -0.390625 0.765625q0 0.734375 0.96875 0.9375l1.390625 0.28125q0.953125 0.1875 1.4375 0.640625q0.5 0.453125 0.5 1.234375q0 1.015625 -0.8125 1.59375q-0.8125 0.578125 -2.140625 0.578125zm4.4530334 -8.9375l0 -1.53125l1.734375 0l0 1.53125l-1.734375 0zm0.140625 8.8125l0 -7.15625l1.46875 0l0 7.15625l-1.46875 0zm6.608368 0.125q-1.359375 0 -2.015625 -0.6875q-0.65625 -0.6875 -0.65625 -1.984375l0 -3.46875l-1.390625 0l0 -1.140625l1.390625 0l0 -2.15625l1.484375 0l0 2.15625l2.203125 0l0 1.140625l-2.203125 0l0 3.34375q0 0.78125 0.328125 1.1875q0.328125 0.390625 1.078125 0.390625q0.234375 0 0.453125 -0.046875q0.21875 -0.0625 0.4375 -0.140625l0.234375 1.125q-0.21875 0.125 -0.609375 0.203125q-0.390625 0.078125 -0.734375 0.078125zm5.3230896 0q-1.078125 0 -1.875 -0.453125q-0.78125 -0.453125 -1.21875 -1.28125q-0.4375 -0.828125 -0.4375 -1.96875q0 -1.140625 0.4375 -1.96875q0.4375 -0.828125 1.21875 -1.28125q0.796875 -0.453125 1.875 -0.453125q1.0625 0 1.84375 0.453125q0.796875 0.453125 1.234375 1.28125q0.453125 0.828125 0.453125 1.96875q0 1.140625 -0.453125 1.96875q-0.4375 0.828125 -1.234375 1.28125q-0.78125 0.453125 -1.84375 0.453125zm0 -1.140625q0.921875 0 1.46875 -0.65625q0.5625 -0.65625 0.5625 -1.90625q0 -1.25 -0.5625 -1.890625q-0.546875 -0.65625 -1.46875 -0.65625q-0.921875 0 -1.484375 0.65625q-0.546875 0.640625 -0.546875 1.890625q0 1.25 0.546875 1.90625q0.5625 0.65625 1.484375 0.65625zm5.187042 1.015625l0 -7.15625l1.4375 0l0 1.28125q0.546875 -1.28125 2.3125 -1.421875l0.484375 -0.03125l0.09375 1.265625l-0.890625 0.078125q-1.953125 0.1875 -1.953125 2.015625l0 3.96875l-1.484375 0zm5.326172 -8.8125l0 -1.53125l1.734375 0l0 1.53125l-1.734375 0zm0.140625 8.8125l0 -7.15625l1.46875 0l0 7.15625l-1.46875 0zm6.905243 0.125q-1.75 0 -2.765625 -0.984375q-1.015625 -0.984375 -1.015625 -2.703125q0 -1.09375 0.453125 -1.9375q0.453125 -0.84375 1.234375 -1.3125q0.796875 -0.46875 1.828125 -0.46875q1.46875 0 2.3125 0.953125q0.859375 0.9375 0.859375 2.59375l0 0.5l-5.25 0q0.171875 2.21875 2.359375 2.21875q0.625 0 1.21875 -0.1875q0.59375 -0.1875 1.109375 -0.625l0.453125 1.015625q-0.484375 0.453125 -1.25 0.703125q-0.765625 0.234375 -1.546875 0.234375zm-0.21875 -6.375q-0.921875 0 -1.46875 0.578125q-0.53125 0.578125 -0.65625 1.53125l4.0 0q-0.03125 -1.0 -0.515625 -1.546875q-0.484375 -0.5625 -1.359375 -0.5625zm7.2454224 6.375q-0.875 0 -1.640625 -0.21875q-0.765625 -0.234375 -1.28125 -0.640625l0.4375 -1.0q0.53125 0.390625 1.1875 0.59375q0.65625 0.203125 1.3125 0.203125q0.78125 0 1.171875 -0.28125q0.390625 -0.28125 0.390625 -0.75q0 -0.375 -0.265625 -0.578125q-0.25 -0.21875 -0.78125 -0.34375l-1.390625 -0.28125q-1.859375 -0.375 -1.859375 -1.90625q0 -1.0 0.8125 -1.59375q0.8125 -0.609375 2.109375 -0.609375q0.75 0 1.421875 0.21875q0.6875 0.21875 1.140625 0.65625l-0.421875 1.0q-0.4375 -0.390625 -1.015625 -0.59375q-0.5625 -0.203125 -1.125 -0.203125q-0.765625 0 -1.15625 0.296875q-0.390625 0.28125 -0.390625 0.765625q0 0.734375 0.96875 0.9375l1.390625 0.28125q0.953125 0.1875 1.4375 0.640625q0.5 0.453125 0.5 1.234375q0 1.015625 -0.8125 1.59375q-0.8125 0.578125 -2.140625 0.578125z" fill-rule="nonzero"/><path fill="#666666" d="m500.23492 449.548l34.614136 -48.362183l-23.842499 54.503937z" fill-rule="evenodd"/><path fill="#e06666" d="m238.48557 70.530594l123.65314 0l0 99.65314l-123.65314 0z" fill-rule="evenodd"/><path fill="#b35151" d="m362.1387 70.530594l10.646088 -10.64608l0 99.65313l-10.646088 10.646088z" fill-rule="evenodd"/><path fill="#e68484" d="m238.48557 70.530594l10.646072 -10.64608l123.65315 0l-10.646088 10.64608z" fill-rule="evenodd"/><path fill="#000000" fill-opacity="0.0" d="m238.48557 70.530594l10.646072 -10.64608l123.65315 0l0 99.65313l-10.646088 10.646088l-123.65314 0zm0 0l123.65314 0l10.646088 -10.64608m-10.646088 10.64608l0 99.65314" fill-rule="evenodd"/><path fill="#ffffff" d="m261.65063 105.65341q-1.296875 0 -2.25 -0.546875q-0.9375 -0.546875 -1.453125 -1.53125q-0.515625 -1.0 -0.515625 -2.359375q0 -2.015625 1.140625 -3.171875q1.140625 -1.15625 3.078125 -1.15625q0.796875 0 1.578125 0.28125q0.78125 0.265625 1.28125 0.75l-0.546875 1.234375q-0.484375 -0.453125 -1.078125 -0.65625q-0.578125 -0.21875 -1.09375 -0.21875q-1.234375 0 -1.90625 0.765625q-0.65625 0.765625 -0.65625 2.1875q0 1.421875 0.65625 2.234375q0.671875 0.796875 1.90625 0.796875q0.515625 0 1.09375 -0.203125q0.59375 -0.21875 1.078125 -0.671875l0.546875 1.25q-0.5 0.453125 -1.296875 0.734375q-0.78125 0.28125 -1.5625 0.28125zm7.8719788 0q-1.28125 0 -2.21875 -0.53125q-0.9375 -0.546875 -1.453125 -1.515625q-0.5 -0.984375 -0.5 -2.34375q0 -1.34375 0.5 -2.3125q0.515625 -0.984375 1.453125 -1.515625q0.9375 -0.546875 2.21875 -0.546875q1.25 0 2.171875 0.546875q0.9375 0.53125 1.453125 1.515625q0.53125 0.96875 0.53125 2.3125q0 1.359375 -0.53125 2.34375q-0.515625 0.96875 -1.453125 1.515625q-0.921875 0.53125 -2.171875 0.53125zm0 -1.359375q1.078125 0 1.734375 -0.765625q0.65625 -0.78125 0.65625 -2.265625q0 -1.46875 -0.65625 -2.234375q-0.65625 -0.78125 -1.734375 -0.78125q-1.09375 0 -1.75 0.78125q-0.65625 0.765625 -0.65625 2.234375q0 1.484375 0.65625 2.265625q0.65625 0.765625 1.75 0.765625zm6.1496887 1.203125l0 -8.453125l1.703125 0l0 1.359375q0.375 -0.71875 1.046875 -1.109375q0.6875 -0.40625 1.578125 -0.40625q1.9375 0 2.515625 1.703125q0.40625 -0.8125 1.140625 -1.25q0.75 -0.453125 1.703125 -0.453125q2.84375 0 2.84375 3.390625l0 5.21875l-1.75 0l0 -5.125q0 -1.078125 -0.375 -1.578125q-0.375 -0.5 -1.21875 -0.5q-0.953125 0 -1.515625 0.671875q-0.546875 0.65625 -0.546875 1.796875l0 4.734375l-1.75 0l0 -5.125q0 -1.078125 -0.375 -1.578125q-0.359375 -0.5 -1.203125 -0.5q-0.953125 0 -1.5 0.671875q-0.546875 0.65625 -0.546875 1.796875l0 4.734375l-1.75 0zm15.006073 0l0 -8.453125l1.703125 0l0 1.359375q0.375 -0.71875 1.046875 -1.109375q0.6875 -0.40625 1.578125 -0.40625q1.9375 0 2.515625 1.703125q0.40625 -0.8125 1.140625 -1.25q0.75 -0.453125 1.703125 -0.453125q2.84375 0 2.84375 3.390625l0 5.21875l-1.75 0l0 -5.125q0 -1.078125 -0.375 -1.578125q-0.375 -0.5 -1.21875 -0.5q-0.953125 0 -1.515625 0.671875q-0.546875 0.65625 -0.546875 1.796875l0 4.734375l-1.75 0l0 -5.125q0 -1.078125 -0.375 -1.578125q-0.359375 -0.5 -1.203125 -0.5q-0.953125 0 -1.5 0.671875q-0.546875 0.65625 -0.546875 1.796875l0 4.734375l-1.75 0zm17.990448 0.15625q-3.078125 0 -3.078125 -3.40625l0 -5.203125l1.75 0l0 5.21875q0 1.015625 0.421875 1.5q0.421875 0.484375 1.3125 0.484375q1.0 0 1.609375 -0.65625q0.609375 -0.65625 0.609375 -1.765625l0 -4.78125l1.75 0l0 8.453125l-1.6875 0l0 -1.359375q-0.421875 0.75 -1.125 1.140625q-0.6875 0.375 -1.5625 0.375zm6.8440247 -0.15625l0 -8.453125l1.6875 0l0 1.40625q0.4375 -0.765625 1.1875 -1.15625q0.765625 -0.40625 1.703125 -0.40625q2.984375 0 2.984375 3.390625l0 5.21875l-1.75 0l0 -5.109375q0 -1.09375 -0.421875 -1.59375q-0.421875 -0.5 -1.328125 -0.5q-1.046875 0 -1.6875 0.671875q-0.625 0.65625 -0.625 1.75l0 4.78125l-1.75 0zm9.8246765 -10.421875l0 -1.8125l2.046875 0l0 1.8125l-2.046875 0zm0.15625 10.421875l0 -8.453125l1.75 0l0 8.453125l-1.75 0zm7.804474 0.15625q-1.59375 0 -2.375 -0.8125q-0.765625 -0.8125 -0.765625 -2.359375l0 -4.09375l-1.65625 0l0 -1.34375l1.65625 0l0 -2.546875l1.75 0l0 2.546875l2.609375 0l0 1.34375l-2.609375 0l0 3.953125q0 0.921875 0.375 1.390625q0.390625 0.46875 1.28125 0.46875q0.28125 0 0.53125 -0.0625q0.265625 -0.0625 0.53125 -0.140625l0.265625 1.3125q-0.25 0.15625 -0.71875 0.25q-0.453125 0.09375 -0.875 0.09375zm3.71167 2.96875l1.515625 -3.34375l-3.546875 -8.234375l1.875 0l2.609375 6.421875l2.625 -6.421875l1.796875 0l-5.03125 11.578125l-1.84375 0z" fill-rule="nonzero"/><path fill="#ffffff" d="m259.854 129.77841q-1.140625 0 -2.140625 -0.28125q-0.984375 -0.265625 -1.75 -0.828125l0.546875 -1.25q0.765625 0.515625 1.5625 0.75q0.796875 0.25 1.65625 0.25q2.421875 0 2.421875 -2.421875l0 -1.34375q-0.359375 0.765625 -1.140625 1.203125q-0.765625 0.4375 -1.71875 0.4375q-1.140625 0 -2.0 -0.53125q-0.84375 -0.53125 -1.3125 -1.46875q-0.453125 -0.953125 -0.453125 -2.21875q0 -1.25 0.453125 -2.1875q0.46875 -0.953125 1.3125 -1.46875q0.859375 -0.53125 2.0 -0.53125q0.96875 0 1.734375 0.4375q0.765625 0.421875 1.125 1.1875l0 -1.46875l1.703125 0l0 7.75q0 1.984375 -1.03125 2.984375q-1.015625 1.0 -2.96875 1.0zm-0.140625 -4.859375q1.109375 0 1.765625 -0.765625q0.65625 -0.765625 0.65625 -2.078125q0 -1.3125 -0.65625 -2.0625q-0.65625 -0.765625 -1.765625 -0.765625q-1.109375 0 -1.765625 0.765625q-0.65625 0.75 -0.65625 2.0625q0 1.3125 0.65625 2.078125q0.65625 0.765625 1.765625 0.765625zm10.277222 1.734375q-1.28125 0 -2.21875 -0.53125q-0.9375 -0.546875 -1.453125 -1.515625q-0.5 -0.984375 -0.5 -2.34375q0 -1.34375 0.5 -2.3125q0.515625 -0.984375 1.453125 -1.515625q0.9375 -0.546875 2.21875 -0.546875q1.25 0 2.171875 0.546875q0.9375 0.53125 1.453125 1.515625q0.53125 0.96875 0.53125 2.3125q0 1.359375 -0.53125 2.34375q-0.515625 0.96875 -1.453125 1.515625q-0.921875 0.53125 -2.171875 0.53125zm0 -1.359375q1.078125 0 1.734375 -0.765625q0.65625 -0.78125 0.65625 -2.265625q0 -1.46875 -0.65625 -2.234375q-0.65625 -0.78125 -1.734375 -0.78125q-1.09375 0 -1.75 0.78125q-0.65625 0.765625 -0.65625 2.234375q0 1.484375 0.65625 2.265625q0.65625 0.765625 1.75 0.765625zm8.431183 1.203125l-3.640625 -8.453125l1.890625 0l2.59375 6.421875l2.640625 -6.421875l1.78125 0l-3.6875 8.453125l-1.578125 0zm10.354584 0.15625q-2.078125 0 -3.28125 -1.171875q-1.1875 -1.171875 -1.1875 -3.1875q0 -1.3125 0.515625 -2.296875q0.53125 -1.0 1.46875 -1.546875q0.9375 -0.5625 2.15625 -0.5625q1.75 0 2.75 1.125q1.0 1.109375 1.0 3.0625l0 0.59375l-6.203125 0q0.1875 2.625 2.796875 2.625q0.71875 0 1.421875 -0.21875q0.703125 -0.21875 1.328125 -0.75l0.515625 1.21875q-0.5625 0.515625 -1.46875 0.8125q-0.90625 0.296875 -1.8125 0.296875zm-0.265625 -7.53125q-1.09375 0 -1.734375 0.671875q-0.640625 0.671875 -0.78125 1.796875l4.734375 0q-0.046875 -1.171875 -0.625 -1.8125q-0.578125 -0.65625 -1.59375 -0.65625zm5.6020203 7.375l0 -8.453125l1.6875 0l0 1.5q0.671875 -1.5 2.75 -1.671875l0.5625 -0.03125l0.125 1.484375l-1.0625 0.109375q-2.296875 0.21875 -2.296875 2.359375l0 4.703125l-1.765625 0zm6.4633484 0l0 -8.453125l1.6875 0l0 1.40625q0.4375 -0.765625 1.1875 -1.15625q0.765625 -0.40625 1.703125 -0.40625q2.984375 0 2.984375 3.390625l0 5.21875l-1.75 0l0 -5.109375q0 -1.09375 -0.421875 -1.59375q-0.421875 -0.5 -1.328125 -0.5q-1.046875 0 -1.6875 0.671875q-0.625 0.65625 -0.625 1.75l0 4.78125l-1.75 0zm12.6840515 0.15625q-0.890625 0 -1.59375 -0.34375q-0.6875 -0.34375 -1.09375 -0.9375q-0.40625 -0.59375 -0.40625 -1.328125q0 -0.9375 0.46875 -1.46875q0.484375 -0.546875 1.578125 -0.78125q1.109375 -0.25 2.984375 -0.25l0.59375 0l0 -0.453125q0 -0.984375 -0.421875 -1.421875q-0.421875 -0.4375 -1.375 -0.4375q-0.71875 0 -1.453125 0.21875q-0.71875 0.21875 -1.484375 0.6875l-0.53125 -1.234375q0.65625 -0.46875 1.640625 -0.734375q0.984375 -0.28125 1.890625 -0.28125q1.734375 0 2.5625 0.828125q0.828125 0.8125 0.828125 2.5625l0 5.21875l-1.640625 0l0 -1.40625q-0.3125 0.734375 -0.96875 1.15625q-0.65625 0.40625 -1.578125 0.40625zm0.34375 -1.25q0.9375 0 1.5625 -0.65625q0.625 -0.65625 0.625 -1.65625l0 -0.46875l-0.578125 0q-1.265625 0 -1.984375 0.125q-0.71875 0.109375 -1.03125 0.40625q-0.296875 0.28125 -0.296875 0.78125q0 0.65625 0.453125 1.0625q0.453125 0.40625 1.25 0.40625zm6.2582703 1.09375l0 -8.453125l1.6875 0l0 1.40625q0.4375 -0.765625 1.1875 -1.15625q0.765625 -0.40625 1.703125 -0.40625q2.984375 0 2.984375 3.390625l0 5.21875l-1.75 0l0 -5.109375q0 -1.09375 -0.421875 -1.59375q-0.421875 -0.5 -1.328125 -0.5q-1.046875 0 -1.6875 0.671875q-0.625 0.65625 -0.625 1.75l0 4.78125l-1.75 0zm13.699707 0.15625q-1.296875 0 -2.25 -0.546875q-0.9375 -0.546875 -1.453125 -1.53125q-0.515625 -1.0 -0.515625 -2.359375q0 -2.015625 1.140625 -3.171875q1.140625 -1.15625 3.078125 -1.15625q0.796875 0 1.578125 0.28125q0.78125 0.265625 1.28125 0.75l-0.546875 1.234375q-0.484375 -0.453125 -1.078125 -0.65625q-0.578125 -0.21875 -1.09375 -0.21875q-1.234375 0 -1.90625 0.765625q-0.65625 0.765625 -0.65625 2.1875q0 1.421875 0.65625 2.234375q0.671875 0.796875 1.90625 0.796875q0.515625 0 1.09375 -0.203125q0.59375 -0.21875 1.078125 -0.671875l0.546875 1.25q-0.5 0.453125 -1.296875 0.734375q-0.78125 0.28125 -1.5625 0.28125zm8.168854 0q-2.078125 0 -3.28125 -1.171875q-1.1875 -1.171875 -1.1875 -3.1875q0 -1.3125 0.515625 -2.296875q0.53125 -1.0 1.46875 -1.546875q0.9375 -0.5625 2.15625 -0.5625q1.75 0 2.75 1.125q1.0 1.109375 1.0 3.0625l0 0.59375l-6.203125 0q0.1875 2.625 2.796875 2.625q0.71875 0 1.421875 -0.21875q0.703125 -0.21875 1.328125 -0.75l0.515625 1.21875q-0.5625 0.515625 -1.46875 0.8125q-0.90625 0.296875 -1.8125 0.296875zm-0.265625 -7.53125q-1.09375 0 -1.734375 0.671875q-0.640625 0.671875 -0.78125 1.796875l4.734375 0q-0.046875 -1.171875 -0.625 -1.8125q-0.578125 -0.65625 -1.59375 -0.65625z" fill-rule="nonzero"/><path fill="#ffffff" d="m283.65723 147.65341q-1.296875 0 -2.25 -0.546875q-0.9375 -0.546875 -1.453125 -1.53125q-0.515625 -1.0 -0.515625 -2.359375q0 -2.015625 1.140625 -3.171875q1.140625 -1.15625 3.078125 -1.15625q0.796875 0 1.578125 0.28125q0.78125 0.265625 1.28125 0.75l-0.546875 1.234375q-0.484375 -0.453125 -1.078125 -0.65625q-0.578125 -0.21875 -1.09375 -0.21875q-1.234375 0 -1.90625 0.765625q-0.65625 0.765625 -0.65625 2.1875q0 1.421875 0.65625 2.234375q0.671875 0.796875 1.90625 0.796875q0.515625 0 1.09375 -0.203125q0.59375 -0.21875 1.078125 -0.671875l0.546875 1.25q-0.5 0.453125 -1.296875 0.734375q-0.78125 0.28125 -1.5625 0.28125zm7.1234436 0q-1.390625 0 -2.078125 -0.78125q-0.671875 -0.78125 -0.671875 -2.28125l0 -9.3125l1.75 0l0 9.203125q0 1.71875 1.40625 1.71875q0.203125 0 0.375 -0.015625q0.1875 -0.015625 0.375 -0.078125l-0.03125 1.40625q-0.59375 0.140625 -1.125 0.140625zm2.3961182 -10.578125l0 -1.8125l2.046875 0l0 1.8125l-2.046875 0zm0.15625 10.421875l0 -8.453125l1.75 0l0 8.453125l-1.75 0zm8.179443 0.15625q-2.078125 0 -3.28125 -1.171875q-1.1875 -1.171875 -1.1875 -3.1875q0 -1.3125 0.515625 -2.296875q0.53125 -1.0 1.46875 -1.546875q0.9375 -0.5625 2.15625 -0.5625q1.75 0 2.75 1.125q1.0 1.109375 1.0 3.0625l0 0.59375l-6.203125 0q0.1875 2.625 2.796875 2.625q0.71875 0 1.421875 -0.21875q0.703125 -0.21875 1.328125 -0.75l0.515625 1.21875q-0.5625 0.515625 -1.46875 0.8125q-0.90625 0.296875 -1.8125 0.296875zm-0.265625 -7.53125q-1.09375 0 -1.734375 0.671875q-0.640625 0.671875 -0.78125 1.796875l4.734375 0q-0.046875 -1.171875 -0.625 -1.8125q-0.578125 -0.65625 -1.59375 -0.65625zm5.6020203 7.375l0 -8.453125l1.6875 0l0 1.40625q0.4375 -0.765625 1.1875 -1.15625q0.765625 -0.40625 1.703125 -0.40625q2.984375 0 2.984375 3.390625l0 5.21875l-1.75 0l0 -5.109375q0 -1.09375 -0.421875 -1.59375q-0.421875 -0.5 -1.328125 -0.5q-1.046875 0 -1.6875 0.671875q-0.625 0.65625 -0.625 1.75l0 4.78125l-1.75 0zm13.5746765 0.15625q-1.59375 0 -2.375 -0.8125q-0.765625 -0.8125 -0.765625 -2.359375l0 -4.09375l-1.65625 0l0 -1.34375l1.65625 0l0 -2.546875l1.75 0l0 2.546875l2.609375 0l0 1.34375l-2.609375 0l0 3.953125q0 0.921875 0.375 1.390625q0.390625 0.46875 1.28125 0.46875q0.28125 0 0.53125 -0.0625q0.265625 -0.0625 0.53125 -0.140625l0.265625 1.3125q-0.25 0.15625 -0.71875 0.25q-0.453125 0.09375 -0.875 0.09375z" fill-rule="nonzero"/><path fill="#ea9999" fill-opacity="0.4881" d="m288.86353 195.65486l16.771637 -16.771652l16.771667 16.771652l-8.385834 0l0 85.57478l8.385834 0l-16.771667 16.771667l-16.771637 -16.771667l8.385803 0l0 -85.57478z" fill-rule="evenodd"/><path fill="#ea9999" fill-opacity="0.4881" d="m400.08398 182.04472l-5.929138 5.9370117l117.01575 117.01573l-11.858276 11.874023l-117.01575 -117.01575l-5.9291077 5.9370117l-0.007904053 -23.740158z" fill-rule="evenodd"/><path fill="#000000" fill-opacity="0.0" d="m196.76378 216.17586l106.77165 0l0 34.425186l-106.77165 0z" fill-rule="evenodd"/><path fill="#e06666" d="m209.58615 239.14845l0 -7.8125l1.5625 0l0 1.390625q0.609375 -1.390625 2.53125 -1.546875l0.53125 -0.03125l0.109375 1.375l-0.984375 0.09375q-2.125 0.21875 -2.125 2.1875l0 4.34375l-1.625 0zm9.512268 0.140625q-1.921875 0 -3.03125 -1.078125q-1.09375 -1.078125 -1.09375 -2.953125q0 -1.203125 0.484375 -2.109375q0.484375 -0.921875 1.34375 -1.4375q0.875 -0.515625 2.0 -0.515625q1.609375 0 2.53125 1.03125q0.9375 1.03125 0.9375 2.84375l0 0.546875l-5.734375 0q0.1875 2.421875 2.578125 2.421875q0.671875 0 1.3125 -0.203125q0.65625 -0.203125 1.234375 -0.6875l0.484375 1.125q-0.53125 0.46875 -1.375 0.75q-0.828125 0.265625 -1.671875 0.265625zm-0.234375 -6.953125q-1.015625 0 -1.609375 0.625q-0.578125 0.625 -0.71875 1.65625l4.375 0q-0.046875 -1.078125 -0.578125 -1.671875q-0.53125 -0.609375 -1.46875 -0.609375zm7.6545105 6.953125q-0.8125 0 -1.453125 -0.3125q-0.640625 -0.328125 -1.015625 -0.859375q-0.375 -0.546875 -0.375 -1.234375q0 -0.875 0.4375 -1.359375q0.4375 -0.5 1.453125 -0.71875q1.03125 -0.234375 2.75 -0.234375l0.546875 0l0 -0.40625q0 -0.921875 -0.390625 -1.3125q-0.375 -0.40625 -1.265625 -0.40625q-0.671875 0 -1.34375 0.203125q-0.671875 0.203125 -1.375 0.625l-0.484375 -1.140625q0.609375 -0.421875 1.515625 -0.671875q0.90625 -0.265625 1.75 -0.265625q1.59375 0 2.359375 0.765625q0.765625 0.75 0.765625 2.375l0 4.8125l-1.515625 0l0 -1.296875q-0.28125 0.671875 -0.890625 1.0625q-0.609375 0.375 -1.46875 0.375zm0.328125 -1.15625q0.859375 0 1.4375 -0.59375q0.578125 -0.609375 0.578125 -1.546875l0 -0.421875l-0.53125 0q-1.171875 0 -1.84375 0.109375q-0.65625 0.109375 -0.9375 0.375q-0.265625 0.265625 -0.265625 0.71875q0 0.609375 0.40625 0.984375q0.421875 0.375 1.15625 0.375zm8.7482605 1.15625q-1.015625 0 -1.796875 -0.484375q-0.78125 -0.484375 -1.21875 -1.390625q-0.421875 -0.921875 -0.421875 -2.171875q0 -1.25 0.421875 -2.140625q0.4375 -0.90625 1.203125 -1.40625q0.78125 -0.5 1.8125 -0.5q0.875 0 1.5625 0.390625q0.703125 0.375 1.03125 1.03125l0 -4.75l1.609375 0l0 11.28125l-1.578125 0l0 -1.359375q-0.328125 0.703125 -1.03125 1.109375q-0.6875 0.390625 -1.59375 0.390625zm0.421875 -1.25q0.984375 0 1.59375 -0.71875q0.609375 -0.71875 0.609375 -2.078125q0 -1.359375 -0.609375 -2.0625q-0.609375 -0.71875 -1.59375 -0.71875q-1.015625 0 -1.625 0.71875q-0.609375 0.703125 -0.609375 2.0625q0 1.359375 0.609375 2.078125q0.609375 0.71875 1.625 0.71875zm10.054657 2.171875l-1.21875 -0.375l4.109375 -12.765625l1.25 0.359375l-4.140625 12.78125zm11.288147 -1.0625l-2.984375 -7.8125l1.671875 0l2.09375 5.921875l2.15625 -5.921875l1.25 0l2.125 5.953125l2.140625 -5.953125l1.578125 0l-2.984375 7.8125l-1.46875 0l-2.0625 -5.578125l-2.046875 5.578125l-1.46875 0zm11.426666 0l0 -7.8125l1.5625 0l0 1.390625q0.609375 -1.390625 2.53125 -1.546875l0.53125 -0.03125l0.109375 1.375l-0.984375 0.09375q-2.125 0.21875 -2.125 2.1875l0 4.34375l-1.625 0zm5.8117676 -9.609375l0 -1.6875l1.890625 0l0 1.6875l-1.890625 0zm0.15625 9.609375l0 -7.8125l1.609375 0l0 7.8125l-1.609375 0zm7.2161255 0.140625q-1.484375 0 -2.203125 -0.75q-0.71875 -0.75 -0.71875 -2.171875l0 -3.78125l-1.515625 0l0 -1.25l1.515625 0l0 -2.34375l1.625 0l0 2.34375l2.40625 0l0 1.25l-2.40625 0l0 3.65625q0 0.84375 0.359375 1.28125q0.359375 0.421875 1.171875 0.421875q0.25 0 0.484375 -0.046875q0.25 -0.0625 0.5 -0.140625l0.25 1.21875q-0.234375 0.140625 -0.671875 0.21875q-0.421875 0.09375 -0.796875 0.09375zm6.088135 0q-1.921875 0 -3.03125 -1.078125q-1.09375 -1.078125 -1.09375 -2.953125q0 -1.203125 0.484375 -2.109375q0.484375 -0.921875 1.34375 -1.4375q0.875 -0.515625 2.0 -0.515625q1.609375 0 2.53125 1.03125q0.9375 1.03125 0.9375 2.84375l0 0.546875l-5.734375 0q0.1875 2.421875 2.578125 2.421875q0.671875 0 1.3125 -0.203125q0.65625 -0.203125 1.234375 -0.6875l0.484375 1.125q-0.53125 0.46875 -1.375 0.75q-0.828125 0.265625 -1.671875 0.265625zm-0.234375 -6.953125q-1.015625 0 -1.609375 0.625q-0.578125 0.625 -0.71875 1.65625l4.375 0q-0.046875 -1.078125 -0.578125 -1.671875q-0.53125 -0.609375 -1.46875 -0.609375z" fill-rule="nonzero"/><path fill="#000000" fill-opacity="0.0" d="m350.46982 216.17586l67.87402 0l0 34.425186l-67.87402 0z" fill-rule="evenodd"/><path fill="#e06666" d="m369.2994 239.14845l0 -7.8125l1.5625 0l0 1.390625q0.609375 -1.390625 2.53125 -1.546875l0.53125 -0.03125l0.109375 1.375l-0.984375 0.09375q-2.125 0.21875 -2.125 2.1875l0 4.34375l-1.625 0zm9.512268 0.140625q-1.921875 0 -3.03125 -1.078125q-1.09375 -1.078125 -1.09375 -2.953125q0 -1.203125 0.484375 -2.109375q0.484375 -0.921875 1.34375 -1.4375q0.875 -0.515625 2.0 -0.515625q1.609375 0 2.53125 1.03125q0.9375 1.03125 0.9375 2.84375l0 0.546875l-5.734375 0q0.1875 2.421875 2.578125 2.421875q0.671875 0 1.3125 -0.203125q0.65625 -0.203125 1.234375 -0.6875l0.484375 1.125q-0.53125 0.46875 -1.375 0.75q-0.828125 0.265625 -1.671875 0.265625zm-0.234375 -6.953125q-1.015625 0 -1.609375 0.625q-0.578125 0.625 -0.71875 1.65625l4.375 0q-0.046875 -1.078125 -0.578125 -1.671875q-0.53125 -0.609375 -1.46875 -0.609375zm7.6545105 6.953125q-0.8125 0 -1.453125 -0.3125q-0.640625 -0.328125 -1.015625 -0.859375q-0.375 -0.546875 -0.375 -1.234375q0 -0.875 0.4375 -1.359375q0.4375 -0.5 1.453125 -0.71875q1.03125 -0.234375 2.75 -0.234375l0.546875 0l0 -0.40625q0 -0.921875 -0.390625 -1.3125q-0.375 -0.40625 -1.265625 -0.40625q-0.671875 0 -1.34375 0.203125q-0.671875 0.203125 -1.375 0.625l-0.484375 -1.140625q0.609375 -0.421875 1.515625 -0.671875q0.90625 -0.265625 1.75 -0.265625q1.59375 0 2.359375 0.765625q0.765625 0.75 0.765625 2.375l0 4.8125l-1.515625 0l0 -1.296875q-0.28125 0.671875 -0.890625 1.0625q-0.609375 0.375 -1.46875 0.375zm0.328125 -1.15625q0.859375 0 1.4375 -0.59375q0.578125 -0.609375 0.578125 -1.546875l0 -0.421875l-0.53125 0q-1.171875 0 -1.84375 0.109375q-0.65625 0.109375 -0.9375 0.375q-0.265625 0.265625 -0.265625 0.71875q0 0.609375 0.40625 0.984375q0.421875 0.375 1.15625 0.375zm8.7482605 1.15625q-1.015625 0 -1.796875 -0.484375q-0.78125 -0.484375 -1.21875 -1.390625q-0.421875 -0.921875 -0.421875 -2.171875q0 -1.25 0.421875 -2.140625q0.4375 -0.90625 1.203125 -1.40625q0.78125 -0.5 1.8125 -0.5q0.875 0 1.5625 0.390625q0.703125 0.375 1.03125 1.03125l0 -4.75l1.609375 0l0 11.28125l-1.578125 0l0 -1.359375q-0.328125 0.703125 -1.03125 1.109375q-0.6875 0.390625 -1.59375 0.390625zm0.421875 -1.25q0.984375 0 1.59375 -0.71875q0.609375 -0.71875 0.609375 -2.078125q0 -1.359375 -0.609375 -2.0625q-0.609375 -0.71875 -1.59375 -0.71875q-1.015625 0 -1.625 0.71875q-0.609375 0.703125 -0.609375 2.0625q0 1.359375 0.609375 2.078125q0.609375 0.71875 1.625 0.71875z" fill-rule="nonzero"/><path fill="#a2c4c9" fill-opacity="0.494" d="m580.96326 195.65486l16.771667 -16.771652l16.771667 16.771652l-8.385864 0l0 85.57478l8.385864 0l-16.771667 16.771667l-16.771667 -16.771667l8.385803 0l0 -85.57478z" fill-rule="evenodd"/><path fill="#000000" fill-opacity="0.0" d="m598.4698 216.17586l110.92914 0l0 34.425186l-110.92914 0z" fill-rule="evenodd"/><path fill="#76a5af" d="m613.3709 239.14845l0 -7.8125l1.5625 0l0 1.390625q0.609375 -1.390625 2.53125 -1.546875l0.53125 -0.03125l0.109375 1.375l-0.984375 0.09375q-2.125 0.21875 -2.125 2.1875l0 4.34375l-1.625 0zm9.512268 0.140625q-1.921875 0 -3.03125 -1.078125q-1.09375 -1.078125 -1.09375 -2.953125q0 -1.203125 0.484375 -2.109375q0.484375 -0.921875 1.34375 -1.4375q0.875 -0.515625 2.0 -0.515625q1.609375 0 2.53125 1.03125q0.9375 1.03125 0.9375 2.84375l0 0.546875l-5.734375 0q0.1875 2.421875 2.578125 2.421875q0.671875 0 1.3125 -0.203125q0.65625 -0.203125 1.234375 -0.6875l0.484375 1.125q-0.53125 0.46875 -1.375 0.75q-0.828125 0.265625 -1.671875 0.265625zm-0.234375 -6.953125q-1.015625 0 -1.609375 0.625q-0.578125 0.625 -0.71875 1.65625l4.375 0q-0.046875 -1.078125 -0.578125 -1.671875q-0.53125 -0.609375 -1.46875 -0.609375zm7.654541 6.953125q-0.8125 0 -1.453125 -0.3125q-0.640625 -0.328125 -1.015625 -0.859375q-0.375 -0.546875 -0.375 -1.234375q0 -0.875 0.4375 -1.359375q0.4375 -0.5 1.453125 -0.71875q1.03125 -0.234375 2.75 -0.234375l0.546875 0l0 -0.40625q0 -0.921875 -0.390625 -1.3125q-0.375 -0.40625 -1.265625 -0.40625q-0.671875 0 -1.34375 0.203125q-0.671875 0.203125 -1.375 0.625l-0.484375 -1.140625q0.609375 -0.421875 1.515625 -0.671875q0.90625 -0.265625 1.75 -0.265625q1.59375 0 2.359375 0.765625q0.765625 0.75 0.765625 2.375l0 4.8125l-1.515625 0l0 -1.296875q-0.28125 0.671875 -0.890625 1.0625q-0.609375 0.375 -1.46875 0.375zm0.328125 -1.15625q0.859375 0 1.4375 -0.59375q0.578125 -0.609375 0.578125 -1.546875l0 -0.421875l-0.53125 0q-1.171875 0 -1.84375 0.109375q-0.65625 0.109375 -0.9375 0.375q-0.265625 0.265625 -0.265625 0.71875q0 0.609375 0.40625 0.984375q0.421875 0.375 1.15625 0.375zm8.74823 1.15625q-1.015625 0 -1.796875 -0.484375q-0.78125 -0.484375 -1.21875 -1.390625q-0.421875 -0.921875 -0.421875 -2.171875q0 -1.25 0.421875 -2.140625q0.4375 -0.90625 1.203125 -1.40625q0.78125 -0.5 1.8125 -0.5q0.875 0 1.5625 0.390625q0.703125 0.375 1.03125 1.03125l0 -4.75l1.609375 0l0 11.28125l-1.578125 0l0 -1.359375q-0.328125 0.703125 -1.03125 1.109375q-0.6875 0.390625 -1.59375 0.390625zm0.421875 -1.25q0.984375 0 1.59375 -0.71875q0.609375 -0.71875 0.609375 -2.078125q0 -1.359375 -0.609375 -2.0625q-0.609375 -0.71875 -1.59375 -0.71875q-1.015625 0 -1.625 0.71875q-0.609375 0.703125 -0.609375 2.0625q0 1.359375 0.609375 2.078125q0.609375 0.71875 1.625 0.71875zm10.0546875 2.171875l-1.21875 -0.375l4.109375 -12.765625l1.25 0.359375l-4.140625 12.78125zm11.288147 -1.0625l-2.984375 -7.8125l1.671875 0l2.09375 5.921875l2.15625 -5.921875l1.25 0l2.125 5.953125l2.140625 -5.953125l1.578125 0l-2.984375 7.8125l-1.46875 0l-2.0625 -5.578125l-2.046875 5.578125l-1.46875 0zm11.426636 0l0 -7.8125l1.5625 0l0 1.390625q0.609375 -1.390625 2.53125 -1.546875l0.53125 -0.03125l0.109375 1.375l-0.984375 0.09375q-2.125 0.21875 -2.125 2.1875l0 4.34375l-1.625 0zm5.8117676 -9.609375l0 -1.6875l1.890625 0l0 1.6875l-1.890625 0zm0.15625 9.609375l0 -7.8125l1.609375 0l0 7.8125l-1.609375 0zm7.2161255 0.140625q-1.484375 0 -2.203125 -0.75q-0.71875 -0.75 -0.71875 -2.171875l0 -3.78125l-1.515625 0l0 -1.25l1.515625 0l0 -2.34375l1.625 0l0 2.34375l2.40625 0l0 1.25l-2.40625 0l0 3.65625q0 0.84375 0.359375 1.28125q0.359375 0.421875 1.171875 0.421875q0.25 0 0.484375 -0.046875q0.25 -0.0625 0.5 -0.140625l0.25 1.21875q-0.234375 0.140625 -0.671875 0.21875q-0.421875 0.09375 -0.796875 0.09375zm6.088135 0q-1.921875 0 -3.03125 -1.078125q-1.09375 -1.078125 -1.09375 -2.953125q0 -1.203125 0.484375 -2.109375q0.484375 -0.921875 1.34375 -1.4375q0.875 -0.515625 2.0 -0.515625q1.609375 0 2.53125 1.03125q0.9375 1.03125 0.9375 2.84375l0 0.546875l-5.734375 0q0.1875 2.421875 2.578125 2.421875q0.671875 0 1.3125 -0.203125q0.65625 -0.203125 1.234375 -0.6875l0.484375 1.125q-0.53125 0.46875 -1.375 0.75q-0.828125 0.265625 -1.671875 0.265625zm-0.234375 -6.953125q-1.015625 0 -1.609375 0.625q-0.578125 0.625 -0.71875 1.65625l4.375 0q-0.046875 -1.078125 -0.578125 -1.671875q-0.53125 -0.609375 -1.46875 -0.609375z" fill-rule="nonzero"/><path fill="#a2c4c9" fill-opacity="0.494" d="m500.42258 182.04456l5.929138 5.9369965l-112.41733 112.41731l11.858276 11.874023l112.4173 -112.41731l5.929138 5.9370117l0.007873535 -23.740158z" fill-rule="evenodd"/><path fill="#000000" fill-opacity="0.0" d="m462.46982 216.17586l97.07089 0l0 34.425186l-97.07089 0z" fill-rule="evenodd"/><path fill="#76a5af" d="m495.89786 239.14845l0 -7.8125l1.5625 0l0 1.390625q0.609375 -1.390625 2.53125 -1.546875l0.53125 -0.03125l0.109375 1.375l-0.984375 0.09375q-2.125 0.21875 -2.125 2.1875l0 4.34375l-1.625 0zm9.512268 0.140625q-1.921875 0 -3.03125 -1.078125q-1.09375 -1.078125 -1.09375 -2.953125q0 -1.203125 0.484375 -2.109375q0.484375 -0.921875 1.34375 -1.4375q0.875 -0.515625 2.0 -0.515625q1.609375 0 2.53125 1.03125q0.9375 1.03125 0.9375 2.84375l0 0.546875l-5.734375 0q0.1875 2.421875 2.578125 2.421875q0.671875 0 1.3125 -0.203125q0.65625 -0.203125 1.234375 -0.6875l0.484375 1.125q-0.53125 0.46875 -1.375 0.75q-0.828125 0.265625 -1.671875 0.265625zm-0.234375 -6.953125q-1.015625 0 -1.609375 0.625q-0.578125 0.625 -0.71875 1.65625l4.375 0q-0.046875 -1.078125 -0.578125 -1.671875q-0.53125 -0.609375 -1.46875 -0.609375zm7.6545105 6.953125q-0.8125 0 -1.453125 -0.3125q-0.640625 -0.328125 -1.015625 -0.859375q-0.375 -0.546875 -0.375 -1.234375q0 -0.875 0.4375 -1.359375q0.4375 -0.5 1.453125 -0.71875q1.03125 -0.234375 2.75 -0.234375l0.546875 0l0 -0.40625q0 -0.921875 -0.390625 -1.3125q-0.375 -0.40625 -1.265625 -0.40625q-0.671875 0 -1.34375 0.203125q-0.671875 0.203125 -1.375 0.625l-0.484375 -1.140625q0.609375 -0.421875 1.515625 -0.671875q0.90625 -0.265625 1.75 -0.265625q1.59375 0 2.359375 0.765625q0.765625 0.75 0.765625 2.375l0 4.8125l-1.515625 0l0 -1.296875q-0.28125 0.671875 -0.890625 1.0625q-0.609375 0.375 -1.46875 0.375zm0.328125 -1.15625q0.859375 0 1.4375 -0.59375q0.578125 -0.609375 0.578125 -1.546875l0 -0.421875l-0.53125 0q-1.171875 0 -1.84375 0.109375q-0.65625 0.109375 -0.9375 0.375q-0.265625 0.265625 -0.265625 0.71875q0 0.609375 0.40625 0.984375q0.421875 0.375 1.15625 0.375zm8.74823 1.15625q-1.015625 0 -1.796875 -0.484375q-0.78125 -0.484375 -1.21875 -1.390625q-0.421875 -0.921875 -0.421875 -2.171875q0 -1.25 0.421875 -2.140625q0.4375 -0.90625 1.203125 -1.40625q0.78125 -0.5 1.8125 -0.5q0.875 0 1.5625 0.390625q0.703125 0.375 1.03125 1.03125l0 -4.75l1.609375 0l0 11.28125l-1.578125 0l0 -1.359375q-0.328125 0.703125 -1.03125 1.109375q-0.6875 0.390625 -1.59375 0.390625zm0.421875 -1.25q0.984375 0 1.59375 -0.71875q0.609375 -0.71875 0.609375 -2.078125q0 -1.359375 -0.609375 -2.0625q-0.609375 -0.71875 -1.59375 -0.71875q-1.015625 0 -1.625 0.71875q-0.609375 0.703125 -0.609375 2.0625q0 1.359375 0.609375 2.078125q0.609375 0.71875 1.625 0.71875z" fill-rule="nonzero"/><path fill="#666666" d="m715.937 93.14698l0 0c0 -4.6299133 3.753296 -8.383202 8.383179 -8.383202l90.00525 0c2.2233887 0 4.355713 0.8832321 5.9278564 2.4553833c1.5721436 1.5721588 2.4553833 3.7044525 2.4553833 5.9278183l0 33.532806c0 4.629921 -3.753296 8.383202 -8.38324 8.383202l-90.00525 0l0 0c-4.629883 0 -8.383179 -3.7532806 -8.383179 -8.383202z" fill-rule="evenodd"/><path fill="#ffffff" d="m757.8918 105.993385l-2.71875 -7.15625l1.515625 0l1.921875 5.421875l1.984375 -5.421875l1.140625 0l1.953125 5.453125l1.953125 -5.453125l1.453125 0l-2.734375 7.15625l-1.34375 0l-1.890625 -5.109375l-1.875 5.109375l-1.359375 0zm13.689148 0.125q-1.75 0 -2.765625 -0.984375q-1.015625 -0.984375 -1.015625 -2.703125q0 -1.09375 0.453125 -1.9375q0.453125 -0.84375 1.234375 -1.3125q0.796875 -0.46875 1.828125 -0.46875q1.46875 0 2.3125 0.953125q0.859375 0.9375 0.859375 2.59375l0 0.5l-5.25 0q0.171875 2.21875 2.359375 2.21875q0.625 0 1.21875 -0.1875q0.59375 -0.1875 1.109375 -0.625l0.453125 1.015625q-0.484375 0.453125 -1.25 0.703125q-0.765625 0.234375 -1.546875 0.234375zm-0.21875 -6.375q-0.921875 0 -1.46875 0.578125q-0.53125 0.578125 -0.65625 1.53125l4.0 0q-0.03125 -1.0 -0.515625 -1.546875q-0.484375 -0.5625 -1.359375 -0.5625zm8.573547 6.375q-0.8125 0 -1.453125 -0.359375q-0.625 -0.359375 -0.9375 -0.984375l0 1.21875l-1.4375 0l0 -10.328125l1.46875 0l0 4.328125q0.328125 -0.578125 0.953125 -0.921875q0.625 -0.359375 1.40625 -0.359375q0.953125 0 1.65625 0.453125q0.71875 0.453125 1.109375 1.28125q0.390625 0.828125 0.390625 1.96875q0 1.140625 -0.390625 1.984375q-0.390625 0.828125 -1.109375 1.28125q-0.703125 0.4375 -1.65625 0.4375zm-0.359375 -1.140625q0.921875 0 1.46875 -0.65625q0.546875 -0.65625 0.546875 -1.90625q0 -1.25 -0.546875 -1.890625q-0.546875 -0.65625 -1.46875 -0.65625q-0.921875 0 -1.484375 0.65625q-0.546875 0.640625 -0.546875 1.890625q0 1.25 0.546875 1.90625q0.5625 0.65625 1.484375 0.65625z" fill-rule="nonzero"/><path fill="#ffffff" d="m746.7687 124.118385q-0.8125 0 -1.453125 -0.359375q-0.625 -0.359375 -0.9375 -0.984375l0 1.21875l-1.4375 0l0 -10.328125l1.46875 0l0 4.328125q0.328125 -0.578125 0.953125 -0.921875q0.625 -0.359375 1.40625 -0.359375q0.953125 0 1.65625 0.453125q0.71875 0.453125 1.109375 1.28125q0.390625 0.828125 0.390625 1.96875q0 1.140625 -0.390625 1.984375q-0.390625 0.828125 -1.109375 1.28125q-0.703125 0.4375 -1.65625 0.4375zm-0.359375 -1.140625q0.921875 0 1.46875 -0.65625q0.546875 -0.65625 0.546875 -1.90625q0 -1.25 -0.546875 -1.890625q-0.546875 -0.65625 -1.46875 -0.65625q-0.921875 0 -1.484375 0.65625q-0.546875 0.640625 -0.546875 1.890625q0 1.25 0.546875 1.90625q0.5625 0.65625 1.484375 0.65625zm5.1931763 1.015625l0 -7.15625l1.4375 0l0 1.28125q0.546875 -1.28125 2.3125 -1.421875l0.484375 -0.03125l0.09375 1.265625l-0.890625 0.078125q-1.953125 0.1875 -1.953125 2.015625l0 3.96875l-1.484375 0zm8.457886 0.125q-1.078125 0 -1.875 -0.453125q-0.78125 -0.453125 -1.21875 -1.28125q-0.4375 -0.828125 -0.4375 -1.96875q0 -1.140625 0.4375 -1.96875q0.4375 -0.828125 1.21875 -1.28125q0.796875 -0.453125 1.875 -0.453125q1.0625 0 1.84375 0.453125q0.796875 0.453125 1.234375 1.28125q0.453125 0.828125 0.453125 1.96875q0 1.140625 -0.453125 1.96875q-0.4375 0.828125 -1.234375 1.28125q-0.78125 0.453125 -1.84375 0.453125zm0 -1.140625q0.921875 0 1.46875 -0.65625q0.5625 -0.65625 0.5625 -1.90625q0 -1.25 -0.5625 -1.890625q-0.546875 -0.65625 -1.46875 -0.65625q-0.921875 0 -1.484375 0.65625q-0.546875 0.640625 -0.546875 1.890625q0 1.25 0.546875 1.90625q0.5625 0.65625 1.484375 0.65625zm6.9769287 1.015625l-2.71875 -7.15625l1.515625 0l1.921875 5.421875l1.984375 -5.421875l1.140625 0l1.953125 5.453125l1.953125 -5.453125l1.453125 0l-2.734375 7.15625l-1.34375 0l-1.890625 -5.109375l-1.875 5.109375l-1.359375 0zm12.830688 0.125q-0.875 0 -1.640625 -0.21875q-0.765625 -0.234375 -1.28125 -0.640625l0.4375 -1.0q0.53125 0.390625 1.1875 0.59375q0.65625 0.203125 1.3125 0.203125q0.78125 0 1.171875 -0.28125q0.390625 -0.28125 0.390625 -0.75q0 -0.375 -0.265625 -0.578125q-0.25 -0.21875 -0.78125 -0.34375l-1.390625 -0.28125q-1.859375 -0.375 -1.859375 -1.90625q0 -1.0 0.8125 -1.59375q0.8125 -0.609375 2.109375 -0.609375q0.75 0 1.421875 0.21875q0.6875 0.21875 1.140564 0.65625l-0.42181396 1.0q-0.4375 -0.390625 -1.015625 -0.59375q-0.5625 -0.203125 -1.125 -0.203125q-0.765625 0 -1.15625 0.296875q-0.390625 0.28125 -0.390625 0.765625q0 0.734375 0.96875 0.9375l1.390625 0.28125q0.953125 0.1875 1.4375 0.640625q0.49993896 0.453125 0.49993896 1.234375q0 1.015625 -0.81243896 1.59375q-0.8125 0.578125 -2.140625 0.578125zm7.937378 0q-1.75 0 -2.765625 -0.984375q-1.015625 -0.984375 -1.015625 -2.703125q0 -1.09375 0.453125 -1.9375q0.453125 -0.84375 1.234375 -1.3125q0.796875 -0.46875 1.828125 -0.46875q1.46875 0 2.3125 0.953125q0.859375 0.9375 0.859375 2.59375l0 0.5l-5.25 0q0.171875 2.21875 2.359375 2.21875q0.625 0 1.21875 -0.1875q0.59375 -0.1875 1.109375 -0.625l0.453125 1.015625q-0.484375 0.453125 -1.25 0.703125q-0.765625 0.234375 -1.546875 0.234375zm-0.21875 -6.375q-0.921875 0 -1.46875 0.578125q-0.53125 0.578125 -0.65625 1.53125l4.0 0q-0.03125 -1.0 -0.515625 -1.546875q-0.484375 -0.5625 -1.359375 -0.5625zm4.7454224 6.25l0 -7.15625l1.4375 0l0 1.28125q0.546875 -1.28125 2.3125 -1.421875l0.484375 -0.03125l0.09375 1.265625l-0.890625 0.078125q-1.953125 0.1875 -1.953125 2.015625l0 3.96875l-1.484375 0z" fill-rule="nonzero"/><path fill="#666666" d="m728.72894 115.1212l-52.2677 -28.377953l57.02362 16.913383z" fill-rule="evenodd"/><path fill="#666666" d="m84.28871 93.14698l0 0c0 -4.6299133 3.7532883 -8.383202 8.383202 -8.383202l90.00526 0c2.2233582 0 4.355652 0.8832321 5.9278107 2.4553833c1.5721588 1.5721588 2.4553833 3.7044525 2.4553833 5.9278183l0 33.532806c0 4.629921 -3.7532806 8.383202 -8.383194 8.383202l-90.00526 0l0 0c-4.6299133 0 -8.383202 -3.7532806 -8.383202 -8.383202z" fill-rule="evenodd"/><path fill="#ffffff" d="m104.891525 106.118385q-1.09375 0 -1.890625 -0.453125q-0.796875 -0.46875 -1.25 -1.3125q-0.4375 -0.84375 -0.4375 -1.984375q0 -1.6875 0.96875 -2.671875q0.96875 -0.984375 2.609375 -0.984375q0.671875 0 1.328125 0.234375q0.671875 0.234375 1.09375 0.640625l-0.46875 1.046875q-0.40625 -0.390625 -0.90625 -0.5625q-0.484375 -0.1875 -0.921875 -0.1875q-1.046875 0 -1.609375 0.65625q-0.5625 0.640625 -0.5625 1.84375q0 1.203125 0.5625 1.890625q0.5625 0.671875 1.609375 0.671875q0.4375 0 0.921875 -0.171875q0.5 -0.1875 0.90625 -0.5625l0.46875 1.046875q-0.421875 0.390625 -1.09375 0.625q-0.671875 0.234375 -1.328125 0.234375zm6.650955 0q-1.078125 0 -1.875 -0.453125q-0.78125 -0.453125 -1.21875 -1.28125q-0.4375 -0.828125 -0.4375 -1.96875q0 -1.140625 0.4375 -1.96875q0.4375 -0.828125 1.21875 -1.28125q0.796875 -0.453125 1.875 -0.453125q1.0625 0 1.84375 0.453125q0.796875 0.453125 1.234375 1.28125q0.453125 0.828125 0.453125 1.96875q0 1.140625 -0.453125 1.96875q-0.4375 0.828125 -1.234375 1.28125q-0.78125 0.453125 -1.84375 0.453125zm0 -1.140625q0.921875 0 1.46875 -0.65625q0.5625 -0.65625 0.5625 -1.90625q0 -1.25 -0.5625 -1.890625q-0.546875 -0.65625 -1.46875 -0.65625q-0.921875 0 -1.484375 0.65625q-0.546875 0.640625 -0.546875 1.890625q0 1.25 0.546875 1.90625q0.5625 0.65625 1.484375 0.65625zm5.2026825 1.015625l0 -7.15625l1.4375 0l0 1.15625q0.328125 -0.609375 0.890625 -0.9375q0.578125 -0.34375 1.34375 -0.34375q1.640625 0 2.125 1.4375q0.34375 -0.671875 0.96875 -1.046875q0.625 -0.390625 1.4375 -0.390625q2.40625 0 2.40625 2.875l0 4.40625l-1.484375 0l0 -4.34375q0 -0.90625 -0.3125 -1.328125q-0.3125 -0.421875 -1.03125 -0.421875q-0.8125 0 -1.28125 0.5625q-0.46875 0.5625 -0.46875 1.53125l0 4.0l-1.484375 0l0 -4.34375q0 -0.90625 -0.3125 -1.328125q-0.296875 -0.421875 -1.015625 -0.421875q-0.8125 0 -1.28125 0.5625q-0.453125 0.5625 -0.453125 1.53125l0 4.0l-1.484375 0zm12.692368 0l0 -7.15625l1.4375 0l0 1.15625q0.328125 -0.609375 0.890625 -0.9375q0.578125 -0.34375 1.34375 -0.34375q1.640625 0 2.125 1.4375q0.34375 -0.671875 0.96875 -1.046875q0.625 -0.390625 1.4375 -0.390625q2.40625 0 2.40625 2.875l0 4.40625l-1.484375 0l0 -4.34375q0 -0.90625 -0.3125 -1.328125q-0.3125 -0.421875 -1.03125 -0.421875q-0.8125 0 -1.28125 0.5625q-0.46875 0.5625 -0.46875 1.53125l0 4.0l-1.484375 0l0 -4.34375q0 -0.90625 -0.3125 -1.328125q-0.296875 -0.421875 -1.015625 -0.421875q-0.8125 0 -1.28125 0.5625q-0.453125 0.5625 -0.453125 1.53125l0 4.0l-1.484375 0zm15.770493 0.125q-1.078125 0 -1.875 -0.453125q-0.78125 -0.453125 -1.21875 -1.28125q-0.4375 -0.828125 -0.4375 -1.96875q0 -1.140625 0.4375 -1.96875q0.4375 -0.828125 1.21875 -1.28125q0.796875 -0.453125 1.875 -0.453125q1.0625 0 1.84375 0.453125q0.796875 0.453125 1.234375 1.28125q0.453125 0.828125 0.453125 1.96875q0 1.140625 -0.453125 1.96875q-0.4375 0.828125 -1.234375 1.28125q-0.78125 0.453125 -1.84375 0.453125zm0 -1.140625q0.921875 0 1.46875 -0.65625q0.5625 -0.65625 0.5625 -1.90625q0 -1.25 -0.5625 -1.890625q-0.546875 -0.65625 -1.46875 -0.65625q-0.921875 0 -1.484375 0.65625q-0.546875 0.640625 -0.546875 1.890625q0 1.25 0.546875 1.90625q0.5625 0.65625 1.484375 0.65625zm7.9058075 1.140625q-0.9375 0 -1.65625 -0.4375q-0.703125 -0.453125 -1.109375 -1.28125q-0.390625 -0.84375 -0.390625 -1.984375q0 -1.140625 0.390625 -1.96875q0.40625 -0.828125 1.109375 -1.28125q0.703125 -0.453125 1.65625 -0.453125q0.8125 0 1.4375 0.359375q0.625 0.34375 0.9375 0.9375l0 -4.34375l1.484375 0l0 10.328125l-1.453125 0l0 -1.25q-0.3125 0.65625 -0.953125 1.015625q-0.625 0.359375 -1.453125 0.359375zm0.375 -1.140625q0.921875 0 1.46875 -0.65625q0.5625 -0.65625 0.5625 -1.90625q0 -1.25 -0.5625 -1.890625q-0.546875 -0.65625 -1.46875 -0.65625q-0.921875 0 -1.484375 0.65625q-0.546875 0.640625 -0.546875 1.890625q0 1.25 0.546875 1.90625q0.5625 0.65625 1.484375 0.65625zm5.4275055 -7.796875l0 -1.53125l1.734375 0l0 1.53125l-1.734375 0zm0.140625 8.8125l0 -7.15625l1.46875 0l0 7.15625l-1.46875 0zm6.6083527 0.125q-1.359375 0 -2.015625 -0.6875q-0.65625 -0.6875 -0.65625 -1.984375l0 -3.46875l-1.390625 0l0 -1.140625l1.390625 0l0 -2.15625l1.484375 0l0 2.15625l2.203125 0l0 1.140625l-2.203125 0l0 3.34375q0 0.78125 0.328125 1.1875q0.328125 0.390625 1.078125 0.390625q0.234375 0 0.453125 -0.046875q0.21875 -0.0625 0.4375 -0.140625l0.234375 1.125q-0.21875 0.125 -0.609375 0.203125q-0.390625 0.078125 -0.734375 0.078125zm3.1240845 2.515625l1.28125 -2.828125l-2.984375 -6.96875l1.578125 0l2.203125 5.4375l2.21875 -5.4375l1.53125 0l-4.265625 9.796875l-1.5625 0z" fill-rule="nonzero"/><path fill="#ffffff" d="m110.8754 123.993385l0 -7.15625l1.4375 0l0 1.15625q0.328125 -0.609375 0.890625 -0.9375q0.578125 -0.34375 1.34375 -0.34375q1.640625 0 2.125 1.4375q0.34375 -0.671875 0.96875 -1.046875q0.625 -0.390625 1.4375 -0.390625q2.40625 0 2.40625 2.875l0 4.40625l-1.484375 0l0 -4.34375q0 -0.90625 -0.3125 -1.328125q-0.3125 -0.421875 -1.03125 -0.421875q-0.8125 0 -1.28125 0.5625q-0.46875 0.5625 -0.46875 1.53125l0 4.0l-1.484375 0l0 -4.34375q0 -0.90625 -0.3125 -1.328125q-0.296875 -0.421875 -1.015625 -0.421875q-0.8125 0 -1.28125 0.5625q-0.453125 0.5625 -0.453125 1.53125l0 4.0l-1.484375 0zm14.957993 0.125q-0.75 0 -1.34375 -0.28125q-0.578125 -0.296875 -0.921875 -0.796875q-0.34375 -0.5 -0.34375 -1.125q0 -0.796875 0.40625 -1.25q0.40625 -0.453125 1.328125 -0.65625q0.9375 -0.203125 2.515625 -0.203125l0.5 0l0 -0.390625q0 -0.828125 -0.359375 -1.1875q-0.34375 -0.375 -1.15625 -0.375q-0.609375 0 -1.234375 0.1875q-0.609375 0.171875 -1.25 0.578125l-0.453125 -1.046875q0.546875 -0.390625 1.375 -0.625q0.84375 -0.234375 1.609375 -0.234375q1.46875 0 2.171875 0.703125q0.703125 0.6875 0.703125 2.171875l0 4.40625l-1.390625 0l0 -1.1875q-0.265625 0.609375 -0.828125 0.96875q-0.546875 0.34375 -1.328125 0.34375zm0.296875 -1.046875q0.78125 0 1.3125 -0.546875q0.53125 -0.5625 0.53125 -1.421875l0 -0.390625l-0.484375 0q-1.078125 0 -1.6875 0.109375q-0.59375 0.09375 -0.859375 0.34375q-0.25 0.234375 -0.25 0.65625q0 0.5625 0.375 0.90625q0.390625 0.34375 1.0625 0.34375zm8.432938 1.046875q-1.09375 0 -1.890625 -0.453125q-0.796875 -0.46875 -1.25 -1.3125q-0.4375 -0.84375 -0.4375 -1.984375q0 -1.6875 0.96875 -2.671875q0.96875 -0.984375 2.609375 -0.984375q0.671875 0 1.328125 0.234375q0.671875 0.234375 1.09375 0.640625l-0.46875 1.046875q-0.40625 -0.390625 -0.90625 -0.5625q-0.484375 -0.1875 -0.921875 -0.1875q-1.046875 0 -1.609375 0.65625q-0.5625 0.640625 -0.5625 1.84375q0 1.203125 0.5625 1.890625q0.5625 0.671875 1.609375 0.671875q0.4375 0 0.921875 -0.171875q0.5 -0.1875 0.90625 -0.5625l0.46875 1.046875q-0.421875 0.390625 -1.09375 0.625q-0.671875 0.234375 -1.328125 0.234375zm3.7038727 -0.125l0 -10.328125l1.46875 0l0 4.296875q0.375 -0.625 1.0 -0.9375q0.625 -0.3125 1.390625 -0.3125q2.546875 0 2.546875 2.875l0 4.40625l-1.484375 0l0 -4.328125q0 -0.921875 -0.359375 -1.34375q-0.359375 -0.421875 -1.125 -0.421875q-0.890625 0 -1.4375 0.5625q-0.53125 0.5625 -0.53125 1.484375l0 4.046875l-1.46875 0zm8.301407 -8.8125l0 -1.53125l1.734375 0l0 1.53125l-1.734375 0zm0.140625 8.8125l0 -7.15625l1.46875 0l0 7.15625l-1.46875 0zm3.5614777 0l0 -7.15625l1.4375 0l0 1.1875q0.359375 -0.640625 1.0 -0.96875q0.640625 -0.34375 1.421875 -0.34375q2.546875 0 2.546875 2.875l0 4.40625l-1.484375 0l0 -4.328125q0 -0.921875 -0.359375 -1.34375q-0.359375 -0.421875 -1.125 -0.421875q-0.890625 0 -1.4375 0.5625q-0.53125 0.5625 -0.53125 1.484375l0 4.046875l-1.46875 0zm11.785782 0.125q-1.75 0 -2.765625 -0.984375q-1.015625 -0.984375 -1.015625 -2.703125q0 -1.09375 0.453125 -1.9375q0.453125 -0.84375 1.234375 -1.3125q0.796875 -0.46875 1.828125 -0.46875q1.46875 0 2.3125 0.953125q0.859375 0.9375 0.859375 2.59375l0 0.5l-5.25 0q0.171875 2.21875 2.359375 2.21875q0.625 0 1.21875 -0.1875q0.59375 -0.1875 1.109375 -0.625l0.453125 1.015625q-0.484375 0.453125 -1.25 0.703125q-0.765625 0.234375 -1.546875 0.234375zm-0.21875 -6.375q-0.921875 0 -1.46875 0.578125q-0.53125 0.578125 -0.65625 1.53125l4.0 0q-0.03125 -1.0 -0.515625 -1.546875q-0.484375 -0.5625 -1.359375 -0.5625z" fill-rule="nonzero"/><path fill="#666666" d="m178.20233 107.92934l59.417313 -2.173233l-57.685043 14.456696z" fill-rule="evenodd"/><path fill="#000000" fill-opacity="0.0" d="m709.58795 441.17847l236.66138 0l0 57.57483l-236.66138 0z" fill-rule="evenodd"/><path fill="#666666" d="m776.50793 465.65775q-1.5 0 -2.234375 -0.84375q-0.734375 -0.84375 -0.734375 -2.46875l0 -10.015625l1.875 0l0 9.90625q0 1.84375 1.515625 1.84375q0.21875 0 0.40625 -0.015625q0.203125 -0.015625 0.421875 -0.078125l-0.046875 1.515625q-0.625 0.15625 -1.203125 0.15625zm6.5998535 0q-1.375 0 -2.390625 -0.578125q-1.0 -0.578125 -1.5625 -1.625q-0.546875 -1.0625 -0.546875 -2.515625q0 -1.453125 0.546875 -2.5q0.5625 -1.0625 1.5625 -1.640625q1.015625 -0.578125 2.390625 -0.578125q1.34375 0 2.34375 0.578125q1.015625 0.578125 1.5625 1.640625q0.5625 1.046875 0.5625 2.5q0 1.453125 -0.5625 2.515625q-0.546875 1.046875 -1.5625 1.625q-1.0 0.578125 -2.34375 0.578125zm0 -1.453125q1.15625 0 1.859375 -0.84375q0.71875 -0.84375 0.71875 -2.421875q0 -1.59375 -0.71875 -2.421875q-0.703125 -0.828125 -1.859375 -0.828125q-1.171875 0 -1.890625 0.828125q-0.703125 0.828125 -0.703125 2.421875q0 1.578125 0.703125 2.421875q0.71875 0.84375 1.890625 0.84375zm6.5877075 1.28125l0 -9.109375l1.828125 0l0 1.515625q0.46875 -0.8125 1.28125 -1.234375q0.8125 -0.4375 1.8125 -0.4375q3.234375 0 3.234375 3.65625l0 5.609375l-1.890625 0l0 -5.5q0 -1.171875 -0.46875 -1.71875q-0.453125 -0.546875 -1.421875 -0.546875q-1.125 0 -1.8125 0.71875q-0.6875 0.71875 -0.6875 1.890625l0 5.15625l-1.875 0zm14.870972 3.53125q-1.234375 0 -2.296875 -0.296875q-1.0625 -0.28125 -1.890625 -0.90625l0.578125 -1.34375q0.828125 0.5625 1.6875 0.828125q0.859375 0.265625 1.78125 0.265625q2.609375 0 2.609375 -2.625l0 -1.4375q-0.390625 0.828125 -1.21875 1.296875q-0.828125 0.46875 -1.859375 0.46875q-1.21875 0 -2.140625 -0.5625q-0.90625 -0.578125 -1.421875 -1.59375q-0.5 -1.015625 -0.5 -2.375q0 -1.34375 0.5 -2.359375q0.515625 -1.03125 1.421875 -1.59375q0.921875 -0.5625 2.140625 -0.5625q1.046875 0 1.859375 0.46875q0.828125 0.453125 1.21875 1.28125l0 -1.59375l1.828125 0l0 8.34375q0 2.140625 -1.09375 3.21875q-1.09375 1.078125 -3.203125 1.078125zm-0.15625 -5.234375q1.203125 0 1.90625 -0.8125q0.703125 -0.828125 0.703125 -2.234375q0 -1.421875 -0.703125 -2.234375q-0.703125 -0.8125 -1.90625 -0.8125q-1.1875 0 -1.90625 0.8125q-0.703125 0.8125 -0.703125 2.234375q0 1.40625 0.703125 2.234375q0.71875 0.8125 1.90625 0.8125zm7.097473 -2.515625l0 -1.53125l5.359375 0l0 1.53125l-5.359375 0zm8.019165 4.21875l0 -9.109375l1.828125 0l0 1.625q0.703125 -1.625 2.9375 -1.8125l0.625 -0.03125l0.125 1.609375l-1.140625 0.109375q-2.46875 0.234375 -2.46875 2.546875l0 5.0625l-1.90625 0zm10.20874 0.171875q-3.3125 0 -3.3125 -3.671875l0 -5.609375l1.890625 0l0 5.625q0 1.09375 0.4375 1.625q0.453125 0.515625 1.421875 0.515625q1.0625 0 1.71875 -0.703125q0.671875 -0.71875 0.671875 -1.90625l0 -5.15625l1.890625 0l0 9.109375l-1.828125 0l0 -1.453125q-0.453125 0.796875 -1.203125 1.21875q-0.75 0.40625 -1.6875 0.40625zm7.3654175 -0.171875l0 -9.109375l1.828125 0l0 1.515625q0.46875 -0.8125 1.28125 -1.234375q0.8125 -0.4375 1.8125 -0.4375q3.234375 0 3.234375 3.65625l0 5.609375l-1.890625 0l0 -5.5q0 -1.171875 -0.46875 -1.71875q-0.453125 -0.546875 -1.421875 -0.546875q-1.125 0 -1.8125 0.71875q-0.6875 0.71875 -0.6875 1.890625l0 5.15625l-1.875 0zm10.746033 0l0 -9.109375l1.828125 0l0 1.515625q0.46875 -0.8125 1.28125 -1.234375q0.8125 -0.4375 1.8125 -0.4375q3.234375 0 3.234375 3.65625l0 5.609375l-1.890625 0l0 -5.5q0 -1.171875 -0.46875 -1.71875q-0.453125 -0.546875 -1.421875 -0.546875q-1.125 0 -1.8125 0.71875q-0.6875 0.71875 -0.6875 1.890625l0 5.15625l-1.875 0zm10.574097 -11.21875l0 -1.953125l2.203125 0l0 1.953125l-2.203125 0zm0.171875 11.21875l0 -9.109375l1.875 0l0 9.109375l-1.875 0zm4.5335083 0l0 -9.109375l1.828125 0l0 1.515625q0.46875 -0.8125 1.28125 -1.234375q0.8125 -0.4375 1.8125 -0.4375q3.234375 0 3.234375 3.65625l0 5.609375l-1.890625 0l0 -5.5q0 -1.171875 -0.46875 -1.71875q-0.453125 -0.546875 -1.421875 -0.546875q-1.125 0 -1.8125 0.71875q-0.6875 0.71875 -0.6875 1.890625l0 5.15625l-1.875 0zm14.870972 3.53125q-1.234375 0 -2.296875 -0.296875q-1.0625 -0.28125 -1.890625 -0.90625l0.578125 -1.34375q0.828125 0.5625 1.6875 0.828125q0.859375 0.265625 1.78125 0.265625q2.609375 0 2.609375 -2.625l0 -1.4375q-0.390625 0.828125 -1.21875 1.296875q-0.828125 0.46875 -1.859375 0.46875q-1.21875 0 -2.140625 -0.5625q-0.90625 -0.578125 -1.421875 -1.59375q-0.5 -1.015625 -0.5 -2.375q0 -1.34375 0.5 -2.359375q0.515625 -1.03125 1.421875 -1.59375q0.921875 -0.5625 2.140625 -0.5625q1.046875 0 1.859375 0.46875q0.828125 0.453125 1.21875 1.28125l0 -1.59375l1.828125 0l0 8.34375q0 2.140625 -1.09375 3.21875q-1.09375 1.078125 -3.203125 1.078125zm-0.15625 -5.234375q1.203125 0 1.90625 -0.8125q0.703125 -0.828125 0.703125 -2.234375q0 -1.421875 -0.703125 -2.234375q-0.703125 -0.8125 -1.90625 -0.8125q-1.1875 0 -1.90625 0.8125q-0.703125 0.8125 -0.703125 2.234375q0 1.40625 0.703125 2.234375q0.71875 0.8125 1.90625 0.8125z" fill-rule="nonzero"/><path fill="#666666" d="m771.59503 476.6671l0 -1.953125l2.203125 0l0 1.953125l-2.203125 0zm0.171875 11.21875l0 -9.109375l1.875 0l0 9.109375l-1.875 0zm4.5335083 0l0 -9.109375l1.828125 0l0 1.515625q0.46875 -0.8125 1.28125 -1.234375q0.8125 -0.4375 1.8125 -0.4375q3.234375 0 3.234375 3.65625l0 5.609375l-1.890625 0l0 -5.5q0 -1.171875 -0.46875 -1.71875q-0.453125 -0.546875 -1.421875 -0.546875q-1.125 0 -1.8125 0.71875q-0.6875 0.71875 -0.6875 1.890625l0 5.15625l-1.875 0zm11.277222 0l0 -7.65625l-1.765625 0l0 -1.453125l1.765625 0l0 -0.15625q0 -1.890625 0.953125 -2.84375q0.96875 -0.953125 2.96875 -1.0625l0.828125 -0.0625l0.125 1.421875l-0.859375 0.0625q-1.140625 0.078125 -1.640625 0.625q-0.484375 0.53125 -0.484375 1.59375l0 0.421875l2.5625 0l0 1.453125l-2.5625 0l0 7.65625l-1.890625 0zm5.942505 0l0 -9.109375l1.828125 0l0 1.625q0.703125 -1.625 2.9375 -1.8125l0.625 -0.03125l0.125 1.609375l-1.140625 0.109375q-2.46875 0.234375 -2.46875 2.546875l0 5.0625l-1.90625 0zm9.7716675 0.171875q-0.953125 0 -1.703125 -0.375q-0.734375 -0.375 -1.171875 -1.0q-0.4375 -0.640625 -0.4375 -1.453125q0 -1.0 0.5 -1.578125q0.515625 -0.578125 1.703125 -0.828125q1.1875 -0.265625 3.203125 -0.265625l0.625 0l0 -0.5q0 -1.0625 -0.453125 -1.515625q-0.4375 -0.46875 -1.46875 -0.46875q-0.78125 0 -1.5625 0.234375q-0.78125 0.234375 -1.609375 0.734375l-0.578125 -1.328125q0.71875 -0.5 1.78125 -0.796875q1.0625 -0.296875 2.03125 -0.296875q1.859375 0 2.75 0.890625q0.90625 0.875 0.90625 2.765625l0 5.609375l-1.765625 0l0 -1.515625q-0.34375 0.78125 -1.0625 1.234375q-0.703125 0.453125 -1.6875 0.453125zm0.375 -1.34375q1.0 0 1.671875 -0.703125q0.671875 -0.71875 0.671875 -1.796875l0 -0.5l-0.609375 0q-1.359375 0 -2.140625 0.125q-0.765625 0.125 -1.09375 0.4375q-0.328125 0.3125 -0.328125 0.84375q0 0.71875 0.484375 1.15625q0.484375 0.4375 1.34375 0.4375zm9.924683 1.34375q-1.125 0 -2.09375 -0.28125q-0.96875 -0.296875 -1.625 -0.828125l0.546875 -1.265625q0.6875 0.484375 1.515625 0.75q0.828125 0.265625 1.671875 0.265625q0.984375 0 1.484375 -0.359375q0.515625 -0.359375 0.515625 -0.953125q0 -0.484375 -0.34375 -0.75q-0.328125 -0.28125 -1.0 -0.421875l-1.765625 -0.359375q-2.359375 -0.484375 -2.359375 -2.421875q0 -1.296875 1.015625 -2.046875q1.03125 -0.765625 2.703125 -0.765625q0.953125 0 1.8125 0.28125q0.875 0.265625 1.453125 0.828125l-0.546875 1.265625q-0.5625 -0.484375 -1.296875 -0.734375q-0.71875 -0.265625 -1.421875 -0.265625q-0.96875 0 -1.484375 0.375q-0.5 0.359375 -0.5 0.96875q0 0.9375 1.234375 1.1875l1.765625 0.359375q1.21875 0.25 1.84375 0.828125q0.625 0.578125 0.625 1.5625q0 1.296875 -1.03125 2.046875q-1.015625 0.734375 -2.71875 0.734375zm9.623779 0q-1.71875 0 -2.5625 -0.875q-0.828125 -0.875 -0.828125 -2.546875l0 -4.40625l-1.78125 0l0 -1.453125l1.78125 0l0 -2.734375l1.875 0l0 2.734375l2.828125 0l0 1.453125l-2.828125 0l0 4.265625q0 0.984375 0.421875 1.484375q0.421875 0.5 1.375 0.5q0.296875 0 0.578125 -0.0625q0.28125 -0.0625 0.5625 -0.15625l0.296875 1.421875q-0.28125 0.171875 -0.78125 0.265625q-0.484375 0.109375 -0.9375 0.109375zm2.9345093 -0.171875l0 -9.109375l1.828125 0l0 1.625q0.703125 -1.625 2.9375 -1.8125l0.625 -0.03125l0.125 1.609375l-1.140625 0.109375q-2.46875 0.234375 -2.46875 2.546875l0 5.0625l-1.90625 0zm10.208801 0.171875q-3.3125 0 -3.3125 -3.671875l0 -5.609375l1.890625 0l0 5.625q0 1.09375 0.4375 1.625q0.453125 0.515625 1.421875 0.515625q1.0625 0 1.71875 -0.703125q0.671875 -0.71875 0.671875 -1.90625l0 -5.15625l1.890625 0l0 9.109375l-1.828125 0l0 -1.453125q-0.453125 0.796875 -1.203125 1.21875q-0.75 0.40625 -1.6875 0.40625zm11.3654175 0q-1.390625 0 -2.40625 -0.578125q-1.015625 -0.59375 -1.578125 -1.671875q-0.5625 -1.078125 -0.5625 -2.53125q0 -2.15625 1.234375 -3.40625q1.234375 -1.25 3.3125 -1.25q0.859375 0 1.703125 0.296875q0.84375 0.296875 1.375 0.8125l-0.59375 1.328125q-0.515625 -0.484375 -1.140625 -0.71875q-0.625 -0.234375 -1.1875 -0.234375q-1.328125 0 -2.046875 0.828125q-0.71875 0.828125 -0.71875 2.359375q0 1.53125 0.71875 2.40625q0.71875 0.859375 2.046875 0.859375q0.5625 0 1.1875 -0.234375q0.625 -0.234375 1.140625 -0.71875l0.59375 1.34375q-0.53125 0.515625 -1.390625 0.8125q-0.84375 0.296875 -1.6875 0.296875zm8.60614 0q-1.71875 0 -2.5625 -0.875q-0.828125 -0.875 -0.828125 -2.546875l0 -4.40625l-1.78125 0l0 -1.453125l1.78125 0l0 -2.734375l1.875 0l0 2.734375l2.828125 0l0 1.453125l-2.828125 0l0 4.265625q0 0.984375 0.421875 1.484375q0.421875 0.5 1.375 0.5q0.296875 0 0.578125 -0.0625q0.28125 -0.0625 0.5625 -0.15625l0.296875 1.421875q-0.28125 0.171875 -0.78125 0.265625q-0.484375 0.109375 -0.9375 0.109375zm6.1845093 0q-3.3125 0 -3.3125 -3.671875l0 -5.609375l1.890625 0l0 5.625q0 1.09375 0.4375 1.625q0.453125 0.515625 1.421875 0.515625q1.0625 0 1.71875 -0.703125q0.671875 -0.71875 0.671875 -1.90625l0 -5.15625l1.890625 0l0 9.109375l-1.828125 0l0 -1.453125q-0.453125 0.796875 -1.203125 1.21875q-0.75 0.40625 -1.6875 0.40625zm7.3654175 -0.171875l0 -9.109375l1.828125 0l0 1.625q0.703125 -1.625 2.9375 -1.8125l0.625 -0.03125l0.125 1.609375l-1.140625 0.109375q-2.46875 0.234375 -2.46875 2.546875l0 5.0625l-1.90625 0zm11.09375 0.171875q-2.234375 0 -3.53125 -1.25q-1.28125 -1.265625 -1.28125 -3.453125q0 -1.40625 0.5625 -2.46875q0.578125 -1.078125 1.578125 -1.671875q1.015625 -0.59375 2.328125 -0.59375q1.875 0 2.953125 1.203125q1.09375 1.203125 1.09375 3.3125l0 0.625l-6.6875 0q0.203125 2.84375 3.0 2.84375q0.796875 0 1.546875 -0.234375q0.75 -0.25 1.421875 -0.8125l0.5625 1.296875q-0.609375 0.5625 -1.59375 0.890625q-0.96875 0.3125 -1.953125 0.3125zm-0.28125 -8.125q-1.171875 0 -1.859375 0.734375q-0.6875 0.71875 -0.84375 1.9375l5.09375 0q-0.046875 -1.265625 -0.671875 -1.96875q-0.609375 -0.703125 -1.71875 -0.703125z" fill-rule="nonzero"/></g></svg>