<svg version="1.1" viewBox="0.0 0.0 960.0 540.0" fill="none" stroke="none" stroke-linecap="square" stroke-miterlimit="10" xmlns:xlink="http://www.w3.org/1999/xlink" xmlns="http://www.w3.org/2000/svg"><clipPath id="p.0"><path d="m0 0l960.0 0l0 540.0l-960.0 0l0 -540.0z" clip-rule="nonzero"/></clipPath><g clip-path="url(#p.0)"><path fill="#000000" fill-opacity="0.0" d="m0 0l960.0 0l0 540.0l-960.0 0z" fill-rule="evenodd"/><path fill="#d9ead3" d="m240.20473 60.11778l0 0c0 -3.4106483 2.7648773 -6.175522 6.175522 -6.175522l163.2395 0c1.6378479 0 3.2086182 0.65063477 4.3667603 1.8087692c1.1581421 1.1581345 1.8087769 2.728901 1.8087769 4.3667526l0 174.70407c0 3.4106445 -2.7648926 6.175522 -6.175537 6.175522l-163.2395 0c-3.4106445 0 -6.175522 -2.7648773 -6.175522 -6.175522z" fill-rule="evenodd"/><path fill="#000000" fill-opacity="0.0" d="m328.0 290.53018l0 -49.543304" fill-rule="evenodd"/><path stroke="#d9ead3" stroke-width="3.0" stroke-linejoin="round" stroke-linecap="butt" d="m328.0 290.53018l0 -31.543304" fill-rule="evenodd"/><path fill="#d9ead3" stroke="#d9ead3" stroke-width="3.0" stroke-linecap="butt" d="m332.9552 258.98688l-4.9552 -13.614288l-4.9552 13.614288z" fill-rule="evenodd"/><path fill="#e06666" d="m263.14697 79.14567l0 0c0 3.2289124 28.639679 5.8464584 63.968506 5.8464584c35.328827 0 63.968506 -2.617546 63.968506 -5.8464584l0 35.078743c0 3.2289047 -28.639679 5.8464584 -63.968506 5.8464584c-35.328827 0 -63.968506 -2.6175537 -63.968506 -5.8464584z" fill-rule="evenodd"/><path fill="#eca3a3" d="m263.14697 79.14567l0 0c0 -3.2289047 28.639679 -5.8464584 63.968506 -5.8464584c35.328827 0 63.968506 2.6175537 63.968506 5.8464584l0 0c0 3.2289124 -28.639679 5.8464584 -63.968506 5.8464584c-35.328827 0 -63.968506 -2.617546 -63.968506 -5.8464584z" fill-rule="evenodd"/><path fill="#000000" fill-opacity="0.0" d="m391.08398 79.14567l0 0c0 3.2289124 -28.639679 5.8464584 -63.968506 5.8464584c-35.328827 0 -63.968506 -2.617546 -63.968506 -5.8464584l0 0c0 -3.2289047 28.639679 -5.8464584 63.968506 -5.8464584c35.328827 0 63.968506 2.6175537 63.968506 5.8464584l0 35.078743c0 3.2289047 -28.639679 5.8464584 -63.968506 5.8464584c-35.328827 0 -63.968506 -2.6175537 -63.968506 -5.8464584l0 -35.078743" fill-rule="evenodd"/><path fill="#ffffff" d="m299.77554 106.70014q-1.0625 0 -2.015625 -0.296875q-0.953125 -0.296875 -1.578125 -0.84375l0.484375 -1.0625q0.671875 0.53125 1.484375 0.796875q0.8125 0.25 1.65625 0.25q1.0625 0 1.59375 -0.390625q0.546875 -0.390625 0.546875 -1.0625q0 -0.53125 -0.359375 -0.828125q-0.34375 -0.3125 -1.109375 -0.484375l-1.703125 -0.375q-2.3125 -0.5 -2.3125 -2.390625q0 -1.234375 0.984375 -1.96875q0.984375 -0.75 2.5625 -0.75q0.9375 0 1.78125 0.296875q0.84375 0.28125 1.40625 0.84375l-0.5 1.0625q-0.546875 -0.5 -1.265625 -0.765625q-0.71875 -0.28125 -1.421875 -0.28125q-1.046875 0 -1.59375 0.421875q-0.53125 0.40625 -0.53125 1.078125q0 1.03125 1.375 1.328125l1.703125 0.359375q1.1875 0.265625 1.796875 0.84375q0.625 0.5625 0.625 1.53125q0 1.25 -0.984375 1.96875q-0.984375 0.71875 -2.625 0.71875zm9.458466 0q-1.609375 0 -2.421875 -0.84375q-0.796875 -0.859375 -0.796875 -2.46875l0 -4.75l-1.765625 0l0 -1.171875l1.765625 0l0 -2.78125l1.515625 0l0 2.78125l2.875 0l0 1.171875l-2.875 0l0 4.609375q0 1.0625 0.4375 1.609375q0.453125 0.546875 1.46875 0.546875q0.296875 0 0.59375 -0.0625q0.296875 -0.078125 0.546875 -0.15625l0.25 1.15625q-0.234375 0.125 -0.703125 0.234375q-0.46875 0.125 -0.890625 0.125zm5.7328186 0q-0.921875 0 -1.671875 -0.359375q-0.734375 -0.375 -1.171875 -1.0q-0.421875 -0.640625 -0.421875 -1.421875q0 -0.984375 0.515625 -1.5625q0.515625 -0.578125 1.703125 -0.828125q1.1875 -0.265625 3.234375 -0.265625l0.59375 0l0 -0.578125q0 -1.15625 -0.484375 -1.65625q-0.46875 -0.515625 -1.5 -0.515625q-0.828125 0 -1.59375 0.234375q-0.765625 0.21875 -1.5625 0.75l-0.53125 -1.109375q0.71875 -0.5 1.734375 -0.796875q1.015625 -0.296875 1.953125 -0.296875q1.75 0 2.59375 0.859375q0.84375 0.859375 0.84375 2.671875l0 5.703125l-1.40625 0l0 -1.5625q-0.359375 0.796875 -1.09375 1.265625q-0.734375 0.46875 -1.734375 0.46875zm0.25 -1.140625q1.125 0 1.828125 -0.765625q0.703125 -0.78125 0.703125 -1.984375l0 -0.546875l-0.578125 0q-1.5 0 -2.375 0.140625q-0.859375 0.125 -1.21875 0.484375q-0.34375 0.34375 -0.34375 0.9375q0 0.765625 0.53125 1.25q0.53125 0.484375 1.453125 0.484375zm10.434692 1.140625q-1.609375 0 -2.421875 -0.84375q-0.796875 -0.859375 -0.796875 -2.46875l0 -4.75l-1.765625 0l0 -1.171875l1.765625 0l0 -2.78125l1.515625 0l0 2.78125l2.875 0l0 1.171875l-2.875 0l0 4.609375q0 1.0625 0.4375 1.609375q0.453125 0.546875 1.46875 0.546875q0.296875 0 0.59375 -0.0625q0.296875 -0.078125 0.546875 -0.15625l0.25 1.15625q-0.234375 0.125 -0.703125 0.234375q-0.46875 0.125 -0.890625 0.125zm6.8738403 0q-2.140625 0 -3.390625 -1.25q-1.25 -1.265625 -1.25 -3.4375q0 -1.390625 0.5625 -2.46875q0.5625 -1.078125 1.53125 -1.65625q0.984375 -0.59375 2.265625 -0.59375q1.859375 0 2.890625 1.1875q1.046875 1.1875 1.046875 3.25l0 0.578125l-6.828125 0q0.078125 1.546875 0.890625 2.359375q0.828125 0.8125 2.28125 0.8125q0.828125 0 1.5625 -0.25q0.75 -0.25 1.421875 -0.828125l0.53125 1.0625q-0.625 0.578125 -1.578125 0.90625q-0.9375 0.328125 -1.9375 0.328125zm-0.234375 -8.28125q-1.296875 0 -2.046875 0.796875q-0.734375 0.796875 -0.875 2.109375l5.515625 0q-0.0625 -1.375 -0.734375 -2.140625q-0.65625 -0.765625 -1.859375 -0.765625z" fill-rule="nonzero"/><path fill="#ffffff" d="m337.888 99.52827l0 -6.046875l0.984375 0l0 1.03125q0.296875 -0.5625 0.84375 -0.84375q0.5625 -0.296875 1.234375 -0.296875q2.15625 0 2.15625 2.390625l0 3.765625l-1.0 0l0 -3.703125q0 -0.84375 -0.34375 -1.234375q-0.328125 -0.390625 -1.046875 -0.390625q-0.828125 0 -1.328125 0.515625q-0.484375 0.515625 -0.484375 1.375l0 3.4375l-1.015625 0zm9.455048 -0.5l0 -2.6875l-2.625 0l0 -0.765625l2.625 0l0 -2.609375l0.796875 0l0 2.609375l2.640625 0l0 0.765625l-2.640625 0l0 2.6875l-0.796875 0zm5.681183 0.5l0 -0.875l2.0 0l0 -6.65625l-1.578125 0.984375l-0.4375 -0.75l2.296875 -1.46875l0.734375 0l0 7.890625l1.875 0l0 0.875l-4.890625 0z" fill-rule="nonzero"/><path fill="#3c78d8" d="m263.14697 130.43964l0 0c0 3.2289124 28.639679 5.846451 63.968506 5.846451c35.328827 0 63.968506 -2.6175385 63.968506 -5.846451l0 35.078735c0 3.2289124 -28.639679 5.846451 -63.968506 5.846451c-35.328827 0 -63.968506 -2.6175385 -63.968506 -5.846451z" fill-rule="evenodd"/><path fill="#8aaee7" d="m263.14697 130.43964l0 0c0 -3.2289124 28.639679 -5.8464584 63.968506 -5.8464584c35.328827 0 63.968506 2.617546 63.968506 5.8464584l0 0c0 3.2289124 -28.639679 5.846451 -63.968506 5.846451c-35.328827 0 -63.968506 -2.6175385 -63.968506 -5.846451z" fill-rule="evenodd"/><path fill="#000000" fill-opacity="0.0" d="m391.08398 130.43964l0 0c0 3.2289124 -28.639679 5.846451 -63.968506 5.846451c-35.328827 0 -63.968506 -2.6175385 -63.968506 -5.846451l0 0c0 -3.2289124 28.639679 -5.8464584 63.968506 -5.8464584c35.328827 0 63.968506 2.617546 63.968506 5.8464584l0 35.078735c0 3.2289124 -28.639679 5.846451 -63.968506 5.846451c-35.328827 0 -63.968506 -2.6175385 -63.968506 -5.846451l0 -35.078735" fill-rule="evenodd"/><path fill="#ffffff" d="m287.44043 157.82224l-3.375 -9.0625l1.578125 0l2.5625 7.296875l2.640625 -7.296875l1.296875 0l2.609375 7.3125l2.59375 -7.3125l1.5 0l-3.390625 9.0625l-1.4375 0l-2.546875 -7.03125l-2.578125 7.03125l-1.453125 0zm13.096161 -11.328125l0 -1.6875l1.859375 0l0 1.6875l-1.859375 0zm0.1875 11.328125l0 -9.0625l1.5 0l0 9.0625l-1.5 0zm7.968872 0.171875q-1.609375 0 -2.421875 -0.84375q-0.796875 -0.859375 -0.796875 -2.46875l0 -4.75l-1.765625 0l0 -1.171875l1.765625 0l0 -2.78125l1.515625 0l0 2.78125l2.875 0l0 1.171875l-2.875 0l0 4.609375q0 1.0625 0.4375 1.609375q0.453125 0.546875 1.46875 0.546875q0.296875 0 0.59375 -0.0625q0.296875 -0.078125 0.546875 -0.15625l0.25 1.15625q-0.234375 0.125 -0.703125 0.234375q-0.46875 0.125 -0.890625 0.125zm2.8890686 -0.171875l0 -9.0625l1.46875 0l0 1.546875q0.453125 -0.859375 1.265625 -1.28125q0.828125 -0.4375 1.84375 -0.4375q3.234375 0 3.234375 3.578125l0 5.65625l-1.515625 0l0 -5.5625q0 -1.265625 -0.5 -1.84375q-0.484375 -0.59375 -1.5625 -0.59375q-1.25 0 -2.0 0.78125q-0.734375 0.765625 -0.734375 2.046875l0 5.171875l-1.5 0zm14.674896 0.171875q-2.140625 0 -3.390625 -1.25q-1.25 -1.265625 -1.25 -3.4375q0 -1.390625 0.5625 -2.46875q0.5625 -1.078125 1.53125 -1.65625q0.984375 -0.59375 2.265625 -0.59375q1.859375 0 2.890625 1.1875q1.046875 1.1875 1.046875 3.25l0 0.578125l-6.828125 0q0.078125 1.546875 0.890625 2.359375q0.828125 0.8125 2.28125 0.8125q0.828125 0 1.5625 -0.25q0.75 -0.25 1.421875 -0.828125l0.53125 1.0625q-0.625 0.578125 -1.578125 0.90625q-0.9375 0.328125 -1.9375 0.328125zm-0.234375 -8.28125q-1.296875 0 -2.046875 0.796875q-0.734375 0.796875 -0.875 2.109375l5.515625 0q-0.0625 -1.375 -0.734375 -2.140625q-0.65625 -0.765625 -1.859375 -0.765625zm9.14386 8.28125q-1.0625 0 -2.015625 -0.296875q-0.953125 -0.296875 -1.578125 -0.84375l0.484375 -1.0625q0.671875 0.53125 1.484375 0.796875q0.8125 0.25 1.65625 0.25q1.0625 0 1.59375 -0.390625q0.546875 -0.390625 0.546875 -1.0625q0 -0.53125 -0.359375 -0.828125q-0.34375 -0.3125 -1.109375 -0.484375l-1.703125 -0.375q-2.3125 -0.5 -2.3125 -2.390625q0 -1.234375 0.984375 -1.96875q0.984375 -0.75 2.5625 -0.75q0.9375 0 1.78125 0.296875q0.84375 0.28125 1.40625 0.84375l-0.5 1.0625q-0.546875 -0.5 -1.265625 -0.765625q-0.71875 -0.28125 -1.421875 -0.28125q-1.046875 0 -1.59375 0.421875q-0.53125 0.40625 -0.53125 1.078125q0 1.03125 1.375 1.328125l1.703125 0.359375q1.1875 0.265625 1.796875 0.84375q0.625 0.5625 0.625 1.53125q0 1.25 -0.984375 1.96875q-0.984375 0.71875 -2.625 0.71875zm8.973663 0q-1.0625 0 -2.015625 -0.296875q-0.953125 -0.296875 -1.578125 -0.84375l0.484375 -1.0625q0.671875 0.53125 1.484375 0.796875q0.8125 0.25 1.65625 0.25q1.0625 0 1.59375 -0.390625q0.546875 -0.390625 0.546875 -1.0625q0 -0.53125 -0.359375 -0.828125q-0.34375 -0.3125 -1.109375 -0.484375l-1.703125 -0.375q-2.3125 -0.5 -2.3125 -2.390625q0 -1.234375 0.984375 -1.96875q0.984375 -0.75 2.5625 -0.75q0.9375 0 1.78125 0.296875q0.84375 0.28125 1.40625 0.84375l-0.5 1.0625q-0.546875 -0.5 -1.265625 -0.765625q-0.71875 -0.28125 -1.421875 -0.28125q-1.046875 0 -1.59375 0.421875q-0.53125 0.40625 -0.53125 1.078125q0 1.03125 1.375 1.328125l1.703125 0.359375q1.1875 0.265625 1.796875 0.84375q0.625 0.5625 0.625 1.53125q0 1.25 -0.984375 1.96875q-0.984375 0.71875 -2.625 0.71875z" fill-rule="nonzero"/><path fill="#ffffff" d="m349.56686 150.82224l0 -6.046875l0.984375 0l0 1.03125q0.296875 -0.5625 0.84375 -0.84375q0.5625 -0.296875 1.234375 -0.296875q2.15625 0 2.15625 2.390625l0 3.765625l-1.0 0l0 -3.703125q0 -0.84375 -0.34375 -1.234375q-0.328125 -0.390625 -1.046875 -0.390625q-0.828125 0 -1.328125 0.515625q-0.484375 0.515625 -0.484375 1.375l0 3.4375l-1.015625 0zm9.455048 -0.5l0 -2.6875l-2.625 0l0 -0.765625l2.625 0l0 -2.609375l0.796875 0l0 2.609375l2.640625 0l0 0.765625l-2.640625 0l0 2.6875l-0.796875 0zm5.681183 0.5l0 -0.875l2.0 0l0 -6.65625l-1.578125 0.984375l-0.4375 -0.75l2.296875 -1.46875l0.734375 0l0 7.890625l1.875 0l0 0.875l-4.890625 0z" fill-rule="nonzero"/><path fill="#3c78d8" d="m263.14697 181.7336l0 0c0 3.2289124 28.639679 5.846451 63.968506 5.846451c35.328827 0 63.968506 -2.6175385 63.968506 -5.846451l0 35.078735c0 3.2289124 -28.639679 5.846466 -63.968506 5.846466c-35.328827 0 -63.968506 -2.6175537 -63.968506 -5.846466z" fill-rule="evenodd"/><path fill="#8aaee7" d="m263.14697 181.7336l0 0c0 -3.2289124 28.639679 -5.846451 63.968506 -5.846451c35.328827 0 63.968506 2.6175385 63.968506 5.846451l0 0c0 3.2289124 -28.639679 5.846451 -63.968506 5.846451c-35.328827 0 -63.968506 -2.6175385 -63.968506 -5.846451z" fill-rule="evenodd"/><path fill="#000000" fill-opacity="0.0" d="m391.08398 181.7336l0 0c0 3.2289124 -28.639679 5.846451 -63.968506 5.846451c-35.328827 0 -63.968506 -2.6175385 -63.968506 -5.846451l0 0c0 -3.2289124 28.639679 -5.846451 63.968506 -5.846451c35.328827 0 63.968506 2.6175385 63.968506 5.846451l0 35.078735c0 3.2289124 -28.639679 5.846466 -63.968506 5.846466c-35.328827 0 -63.968506 -2.6175537 -63.968506 -5.846466l0 -35.078735" fill-rule="evenodd"/><path fill="#ffffff" d="m291.09802 209.28807q-1.359375 0 -2.359375 -0.578125q-0.984375 -0.59375 -1.515625 -1.671875q-0.53125 -1.078125 -0.53125 -2.515625q0 -2.15625 1.171875 -3.390625q1.171875 -1.25 3.234375 -1.25q0.828125 0 1.65625 0.296875q0.828125 0.296875 1.359375 0.84375l-0.515625 1.09375q-0.546875 -0.515625 -1.1875 -0.75q-0.640625 -0.25 -1.21875 -0.25q-1.421875 0 -2.1875 0.890625q-0.765625 0.875 -0.765625 2.53125q0 1.625 0.765625 2.578125q0.765625 0.9375 2.1875 0.9375q0.578125 0 1.21875 -0.234375q0.640625 -0.25 1.1875 -0.796875l0.515625 1.109375q-0.53125 0.53125 -1.375 0.84375q-0.828125 0.3125 -1.640625 0.3125zm4.794098 -0.171875l0 -13.15625l1.5 0l0 5.578125q0.453125 -0.8125 1.265625 -1.234375q0.8125 -0.421875 1.8125 -0.421875q3.234375 0 3.234375 3.578125l0 5.65625l-1.515625 0l0 -5.5625q0 -1.265625 -0.5 -1.84375q-0.484375 -0.59375 -1.5625 -0.59375q-1.25 0 -2.0 0.78125q-0.734375 0.765625 -0.734375 2.046875l0 5.171875l-1.5 0zm13.440521 0.171875q-0.921875 0 -1.671875 -0.359375q-0.734375 -0.375 -1.171875 -1.0q-0.421875 -0.640625 -0.421875 -1.421875q0 -0.984375 0.515625 -1.5625q0.515625 -0.578125 1.703125 -0.828125q1.1875 -0.265625 3.234375 -0.265625l0.59375 0l0 -0.578125q0 -1.15625 -0.484375 -1.65625q-0.46875 -0.515625 -1.5 -0.515625q-0.828125 0 -1.59375 0.234375q-0.765625 0.21875 -1.5625 0.75l-0.53125 -1.109375q0.71875 -0.5 1.734375 -0.796875q1.015625 -0.296875 1.953125 -0.296875q1.75 0 2.59375 0.859375q0.84375 0.859375 0.84375 2.671875l0 5.703125l-1.40625 0l0 -1.5625q-0.359375 0.796875 -1.09375 1.265625q-0.734375 0.46875 -1.734375 0.46875zm0.25 -1.140625q1.125 0 1.828125 -0.765625q0.703125 -0.78125 0.703125 -1.984375l0 -0.546875l-0.578125 0q-1.5 0 -2.375 0.140625q-0.859375 0.125 -1.21875 0.484375q-0.34375 0.34375 -0.34375 0.9375q0 0.765625 0.53125 1.25q0.53125 0.484375 1.453125 0.484375zm6.7940674 0.96875l0 -9.0625l1.46875 0l0 1.546875q0.453125 -0.859375 1.265625 -1.28125q0.828125 -0.4375 1.84375 -0.4375q3.234375 0 3.234375 3.578125l0 5.65625l-1.515625 0l0 -5.5625q0 -1.265625 -0.5 -1.84375q-0.484375 -0.59375 -1.5625 -0.59375q-1.25 0 -2.0 0.78125q-0.734375 0.765625 -0.734375 2.046875l0 5.171875l-1.5 0zm14.596741 3.53125q-1.171875 0 -2.203125 -0.3125q-1.03125 -0.3125 -1.84375 -0.921875l0.515625 -1.109375q0.828125 0.609375 1.65625 0.859375q0.84375 0.265625 1.8125 0.265625q2.6875 0 2.6875 -2.765625l0 -1.59375q-0.390625 0.859375 -1.234375 1.359375q-0.828125 0.484375 -1.890625 0.484375q-1.25 0 -2.171875 -0.578125q-0.90625 -0.578125 -1.40625 -1.59375q-0.484375 -1.015625 -0.484375 -2.359375q0 -1.34375 0.484375 -2.359375q0.5 -1.015625 1.40625 -1.578125q0.921875 -0.5625 2.171875 -0.5625q1.0625 0 1.890625 0.484375q0.84375 0.484375 1.234375 1.328125l0 -1.640625l1.46875 0l0 8.40625q0 2.09375 -1.046875 3.140625q-1.03125 1.046875 -3.046875 1.046875zm-0.21875 -4.96875q1.3125 0 2.078125 -0.890625q0.765625 -0.90625 0.765625 -2.40625q0 -1.515625 -0.765625 -2.390625q-0.765625 -0.890625 -2.078125 -0.890625q-1.28125 0 -2.046875 0.890625q-0.765625 0.875 -0.765625 2.390625q0 1.5 0.765625 2.40625q0.765625 0.890625 2.046875 0.890625zm11.229462 1.609375q-2.140625 0 -3.390625 -1.25q-1.25 -1.265625 -1.25 -3.4375q0 -1.390625 0.5625 -2.46875q0.5625 -1.078125 1.53125 -1.65625q0.984375 -0.59375 2.265625 -0.59375q1.859375 0 2.890625 1.1875q1.046875 1.1875 1.046875 3.25l0 0.578125l-6.828125 0q0.078125 1.546875 0.890625 2.359375q0.828125 0.8125 2.28125 0.8125q0.828125 0 1.5625 -0.25q0.75 -0.25 1.421875 -0.828125l0.53125 1.0625q-0.625 0.578125 -1.578125 0.90625q-0.9375 0.328125 -1.9375 0.328125zm-0.234375 -8.28125q-1.296875 0 -2.046875 0.796875q-0.734375 0.796875 -0.875 2.109375l5.515625 0q-0.0625 -1.375 -0.734375 -2.140625q-0.65625 -0.765625 -1.859375 -0.765625z" fill-rule="nonzero"/><path fill="#ffffff" d="m347.34677 202.1162l0 -6.046875l0.984375 0l0 1.03125q0.296875 -0.5625 0.84375 -0.84375q0.5625 -0.296875 1.234375 -0.296875q2.15625 0 2.15625 2.390625l0 3.765625l-1.0 0l0 -3.703125q0 -0.84375 -0.34375 -1.234375q-0.328125 -0.390625 -1.046875 -0.390625q-0.828125 0 -1.328125 0.515625q-0.484375 0.515625 -0.484375 1.375l0 3.4375l-1.015625 0zm9.455048 -0.5l0 -2.6875l-2.625 0l0 -0.765625l2.625 0l0 -2.609375l0.796875 0l0 2.609375l2.640625 0l0 0.765625l-2.640625 0l0 2.6875l-0.796875 0zm5.681183 0.5l0 -0.875l2.0 0l0 -6.65625l-1.578125 0.984375l-0.4375 -0.75l2.296875 -1.46875l0.734375 0l0 7.890625l1.875 0l0 0.875l-4.890625 0z" fill-rule="nonzero"/><path fill="#d9ead3" d="m240.20473 296.7057l0 0c0 -3.4106445 2.7648773 -6.1755066 6.175522 -6.1755066l163.2395 0c1.6378479 0 3.2086182 0.65063477 4.3667603 1.8087769c1.1581421 1.1581421 1.8087769 2.7288818 1.8087769 4.3667297l0 174.7041c0 3.4106445 -2.7648926 6.1755066 -6.175537 6.1755066l-163.2395 0c-3.4106445 0 -6.175522 -2.764862 -6.175522 -6.1755066z" fill-rule="evenodd"/><path fill="#e06666" d="m263.14697 315.73358l0 0c0 3.2289124 28.639679 5.846466 63.968506 5.846466c35.328827 0 63.968506 -2.6175537 63.968506 -5.846466l0 35.078766c0 3.2289124 -28.639679 5.8464355 -63.968506 5.8464355c-35.328827 0 -63.968506 -2.6175232 -63.968506 -5.8464355z" fill-rule="evenodd"/><path fill="#eca3a3" d="m263.14697 315.73358l0 0c0 -3.2288818 28.639679 -5.8464355 63.968506 -5.8464355c35.328827 0 63.968506 2.6175537 63.968506 5.8464355l0 0c0 3.2289124 -28.639679 5.846466 -63.968506 5.846466c-35.328827 0 -63.968506 -2.6175537 -63.968506 -5.846466z" fill-rule="evenodd"/><path fill="#000000" fill-opacity="0.0" d="m391.08398 315.73358l0 0c0 3.2289124 -28.639679 5.846466 -63.968506 5.846466c-35.328827 0 -63.968506 -2.6175537 -63.968506 -5.846466l0 0c0 -3.2288818 28.639679 -5.8464355 63.968506 -5.8464355c35.328827 0 63.968506 2.6175537 63.968506 5.8464355l0 35.078766c0 3.2289124 -28.639679 5.8464355 -63.968506 5.8464355c-35.328827 0 -63.968506 -2.6175232 -63.968506 -5.8464355l0 -35.078766" fill-rule="evenodd"/><path fill="#ffffff" d="m307.23798 343.28806q-1.0625 0 -2.015625 -0.296875q-0.953125 -0.296875 -1.578125 -0.84375l0.484375 -1.0625q0.671875 0.53125 1.484375 0.796875q0.8125 0.25 1.65625 0.25q1.0625 0 1.59375 -0.390625q0.546875 -0.390625 0.546875 -1.0625q0 -0.53125 -0.359375 -0.828125q-0.34375 -0.3125 -1.109375 -0.484375l-1.703125 -0.375q-2.3125 -0.5 -2.3125 -2.390625q0 -1.234375 0.984375 -1.96875q0.984375 -0.75 2.5625 -0.75q0.9375 0 1.78125 0.296875q0.84375 0.28125 1.40625 0.84375l-0.5 1.0625q-0.546875 -0.5 -1.265625 -0.765625q-0.71875 -0.28125 -1.421875 -0.28125q-1.046875 0 -1.59375 0.421875q-0.53125 0.40625 -0.53125 1.078125q0 1.03125 1.375 1.328125l1.703125 0.359375q1.1875 0.265625 1.796875 0.84375q0.625 0.5625 0.625 1.53125q0 1.25 -0.984375 1.96875q-0.984375 0.71875 -2.625 0.71875zm9.458466 0q-1.609375 0 -2.421875 -0.84375q-0.796875 -0.859375 -0.796875 -2.46875l0 -4.75l-1.765625 0l0 -1.171875l1.765625 0l0 -2.78125l1.515625 0l0 2.78125l2.875 0l0 1.171875l-2.875 0l0 4.609375q0 1.0625 0.4375 1.609375q0.453125 0.546875 1.46875 0.546875q0.296875 0 0.59375 -0.0625q0.296875 -0.078125 0.546875 -0.15625l0.25 1.15625q-0.234375 0.125 -0.703125 0.234375q-0.46875 0.125 -0.890625 0.125zm5.7328186 0q-0.921875 0 -1.671875 -0.359375q-0.734375 -0.375 -1.171875 -1.0q-0.421875 -0.640625 -0.421875 -1.421875q0 -0.984375 0.515625 -1.5625q0.515625 -0.578125 1.703125 -0.828125q1.1875 -0.265625 3.234375 -0.265625l0.59375 0l0 -0.578125q0 -1.15625 -0.484375 -1.65625q-0.46875 -0.515625 -1.5 -0.515625q-0.828125 0 -1.59375 0.234375q-0.765625 0.21875 -1.5625 0.75l-0.53125 -1.109375q0.71875 -0.5 1.734375 -0.796875q1.015625 -0.296875 1.953125 -0.296875q1.75 0 2.59375 0.859375q0.84375 0.859375 0.84375 2.671875l0 5.703125l-1.40625 0l0 -1.5625q-0.359375 0.796875 -1.09375 1.265625q-0.734375 0.46875 -1.734375 0.46875zm0.25 -1.140625q1.125 0 1.828125 -0.765625q0.703125 -0.78125 0.703125 -1.984375l0 -0.546875l-0.578125 0q-1.5 0 -2.375 0.140625q-0.859375 0.125 -1.21875 0.484375q-0.34375 0.34375 -0.34375 0.9375q0 0.765625 0.53125 1.25q0.53125 0.484375 1.453125 0.484375zm10.434692 1.140625q-1.609375 0 -2.421875 -0.84375q-0.796875 -0.859375 -0.796875 -2.46875l0 -4.75l-1.765625 0l0 -1.171875l1.765625 0l0 -2.78125l1.515625 0l0 2.78125l2.875 0l0 1.171875l-2.875 0l0 4.609375q0 1.0625 0.4375 1.609375q0.453125 0.546875 1.46875 0.546875q0.296875 0 0.59375 -0.0625q0.296875 -0.078125 0.546875 -0.15625l0.25 1.15625q-0.234375 0.125 -0.703125 0.234375q-0.46875 0.125 -0.890625 0.125zm6.8738403 0q-2.140625 0 -3.390625 -1.25q-1.25 -1.265625 -1.25 -3.4375q0 -1.390625 0.5625 -2.46875q0.5625 -1.078125 1.53125 -1.65625q0.984375 -0.59375 2.265625 -0.59375q1.859375 0 2.890625 1.1875q1.046875 1.1875 1.046875 3.25l0 0.578125l-6.828125 0q0.078125 1.546875 0.890625 2.359375q0.828125 0.8125 2.28125 0.8125q0.828125 0 1.5625 -0.25q0.75 -0.25 1.421875 -0.828125l0.53125 1.0625q-0.625 0.578125 -1.578125 0.90625q-0.9375 0.328125 -1.9375 0.328125zm-0.234375 -8.28125q-1.296875 0 -2.046875 0.796875q-0.734375 0.796875 -0.875 2.109375l5.515625 0q-0.0625 -1.375 -0.734375 -2.140625q-0.65625 -0.765625 -1.859375 -0.765625z" fill-rule="nonzero"/><path fill="#ffffff" d="m345.35043 336.11618l0 -6.046875l0.984375 0l0 1.03125q0.296875 -0.5625 0.84375 -0.84375q0.5625 -0.296875 1.234375 -0.296875q2.15625 0 2.15625 2.390625l0 3.765625l-1.0 0l0 -3.703125q0 -0.84375 -0.34375 -1.234375q-0.328125 -0.390625 -1.046875 -0.390625q-0.828125 0 -1.328125 0.515625q-0.484375 0.515625 -0.484375 1.375l0 3.4375l-1.015625 0z" fill-rule="nonzero"/><path fill="#3c78d8" d="m263.14697 367.02756l0 0c0 3.2289124 28.639679 5.846466 63.968506 5.846466c35.328827 0 63.968506 -2.6175537 63.968506 -5.846466l0 35.078735c0 3.2289124 -28.639679 5.846466 -63.968506 5.846466c-35.328827 0 -63.968506 -2.6175537 -63.968506 -5.846466z" fill-rule="evenodd"/><path fill="#8aaee7" d="m263.14697 367.02756l0 0c0 -3.2289124 28.639679 -5.846466 63.968506 -5.846466c35.328827 0 63.968506 2.6175537 63.968506 5.846466l0 0c0 3.2289124 -28.639679 5.846466 -63.968506 5.846466c-35.328827 0 -63.968506 -2.6175537 -63.968506 -5.846466z" fill-rule="evenodd"/><path fill="#000000" fill-opacity="0.0" d="m391.08398 367.02756l0 0c0 3.2289124 -28.639679 5.846466 -63.968506 5.846466c-35.328827 0 -63.968506 -2.6175537 -63.968506 -5.846466l0 0c0 -3.2289124 28.639679 -5.846466 63.968506 -5.846466c35.328827 0 63.968506 2.6175537 63.968506 5.846466l0 35.078735c0 3.2289124 -28.639679 5.846466 -63.968506 5.846466c-35.328827 0 -63.968506 -2.6175537 -63.968506 -5.846466l0 -35.078735" fill-rule="evenodd"/><path fill="#ffffff" d="m294.90286 394.41016l-3.375 -9.0625l1.578125 0l2.5625 7.296875l2.640625 -7.296875l1.296875 0l2.609375 7.3125l2.59375 -7.3125l1.5 0l-3.390625 9.0625l-1.4375 0l-2.546875 -7.03125l-2.578125 7.03125l-1.453125 0zm13.096161 -11.328125l0 -1.6875l1.859375 0l0 1.6875l-1.859375 0zm0.1875 11.328125l0 -9.0625l1.5 0l0 9.0625l-1.5 0zm7.968872 0.171875q-1.609375 0 -2.421875 -0.84375q-0.796875 -0.859375 -0.796875 -2.46875l0 -4.75l-1.765625 0l0 -1.171875l1.765625 0l0 -2.78125l1.515625 0l0 2.78125l2.875 0l0 1.171875l-2.875 0l0 4.609375q0 1.0625 0.4375 1.609375q0.453125 0.546875 1.46875 0.546875q0.296875 0 0.59375 -0.0625q0.296875 -0.078125 0.546875 -0.15625l0.25 1.15625q-0.234375 0.125 -0.703125 0.234375q-0.46875 0.125 -0.890625 0.125zm2.8890686 -0.171875l0 -9.0625l1.46875 0l0 1.546875q0.453125 -0.859375 1.265625 -1.28125q0.828125 -0.4375 1.84375 -0.4375q3.234375 0 3.234375 3.578125l0 5.65625l-1.515625 0l0 -5.5625q0 -1.265625 -0.5 -1.84375q-0.484375 -0.59375 -1.5625 -0.59375q-1.25 0 -2.0 0.78125q-0.734375 0.765625 -0.734375 2.046875l0 5.171875l-1.5 0zm14.674896 0.171875q-2.140625 0 -3.390625 -1.25q-1.25 -1.265625 -1.25 -3.4375q0 -1.390625 0.5625 -2.46875q0.5625 -1.078125 1.53125 -1.65625q0.984375 -0.59375 2.265625 -0.59375q1.859375 0 2.890625 1.1875q1.046875 1.1875 1.046875 3.25l0 0.578125l-6.828125 0q0.078125 1.546875 0.890625 2.359375q0.828125 0.8125 2.28125 0.8125q0.828125 0 1.5625 -0.25q0.75 -0.25 1.421875 -0.828125l0.53125 1.0625q-0.625 0.578125 -1.578125 0.90625q-0.9375 0.328125 -1.9375 0.328125zm-0.234375 -8.28125q-1.296875 0 -2.046875 0.796875q-0.734375 0.796875 -0.875 2.109375l5.515625 0q-0.0625 -1.375 -0.734375 -2.140625q-0.65625 -0.765625 -1.859375 -0.765625zm9.14386 8.28125q-1.0625 0 -2.015625 -0.296875q-0.953125 -0.296875 -1.578125 -0.84375l0.484375 -1.0625q0.671875 0.53125 1.484375 0.796875q0.8125 0.25 1.65625 0.25q1.0625 0 1.59375 -0.390625q0.546875 -0.390625 0.546875 -1.0625q0 -0.53125 -0.359375 -0.828125q-0.34375 -0.3125 -1.109375 -0.484375l-1.703125 -0.375q-2.3125 -0.5 -2.3125 -2.390625q0 -1.234375 0.984375 -1.96875q0.984375 -0.75 2.5625 -0.75q0.9375 0 1.78125 0.296875q0.84375 0.28125 1.40625 0.84375l-0.5 1.0625q-0.546875 -0.5 -1.265625 -0.765625q-0.71875 -0.28125 -1.421875 -0.28125q-1.046875 0 -1.59375 0.421875q-0.53125 0.40625 -0.53125 1.078125q0 1.03125 1.375 1.328125l1.703125 0.359375q1.1875 0.265625 1.796875 0.84375q0.625 0.5625 0.625 1.53125q0 1.25 -0.984375 1.96875q-0.984375 0.71875 -2.625 0.71875zm8.973663 0q-1.0625 0 -2.015625 -0.296875q-0.953125 -0.296875 -1.578125 -0.84375l0.484375 -1.0625q0.671875 0.53125 1.484375 0.796875q0.8125 0.25 1.65625 0.25q1.0625 0 1.59375 -0.390625q0.546875 -0.390625 0.546875 -1.0625q0 -0.53125 -0.359375 -0.828125q-0.34375 -0.3125 -1.109375 -0.484375l-1.703125 -0.375q-2.3125 -0.5 -2.3125 -2.390625q0 -1.234375 0.984375 -1.96875q0.984375 -0.75 2.5625 -0.75q0.9375 0 1.78125 0.296875q0.84375 0.28125 1.40625 0.84375l-0.5 1.0625q-0.546875 -0.5 -1.265625 -0.765625q-0.71875 -0.28125 -1.421875 -0.28125q-1.046875 0 -1.59375 0.421875q-0.53125 0.40625 -0.53125 1.078125q0 1.03125 1.375 1.328125l1.703125 0.359375q1.1875 0.265625 1.796875 0.84375q0.625 0.5625 0.625 1.53125q0 1.25 -0.984375 1.96875q-0.984375 0.71875 -2.625 0.71875z" fill-rule="nonzero"/><path fill="#ffffff" d="m357.0293 387.41016l0 -6.046875l0.984375 0l0 1.03125q0.296875 -0.5625 0.84375 -0.84375q0.5625 -0.296875 1.234375 -0.296875q2.15625 0 2.15625 2.390625l0 3.765625l-1.0 0l0 -3.703125q0 -0.84375 -0.34375 -1.234375q-0.328125 -0.390625 -1.046875 -0.390625q-0.828125 0 -1.328125 0.515625q-0.484375 0.515625 -0.484375 1.375l0 3.4375l-1.015625 0z" fill-rule="nonzero"/><path fill="#3c78d8" d="m263.14697 418.32153l0 0c0 3.2289124 28.639679 5.8464355 63.968506 5.8464355c35.328827 0 63.968506 -2.6175232 63.968506 -5.8464355l0 35.078735c0 3.2289124 -28.639679 5.8464355 -63.968506 5.8464355c-35.328827 0 -63.968506 -2.6175232 -63.968506 -5.8464355z" fill-rule="evenodd"/><path fill="#8aaee7" d="m263.14697 418.32153l0 0c0 -3.2289124 28.639679 -5.846466 63.968506 -5.846466c35.328827 0 63.968506 2.6175537 63.968506 5.846466l0 0c0 3.2289124 -28.639679 5.8464355 -63.968506 5.8464355c-35.328827 0 -63.968506 -2.6175232 -63.968506 -5.8464355z" fill-rule="evenodd"/><path fill="#000000" fill-opacity="0.0" d="m391.08398 418.32153l0 0c0 3.2289124 -28.639679 5.8464355 -63.968506 5.8464355c-35.328827 0 -63.968506 -2.6175232 -63.968506 -5.8464355l0 0c0 -3.2289124 28.639679 -5.846466 63.968506 -5.846466c35.328827 0 63.968506 2.6175537 63.968506 5.846466l0 35.078735c0 3.2289124 -28.639679 5.8464355 -63.968506 5.8464355c-35.328827 0 -63.968506 -2.6175232 -63.968506 -5.8464355l0 -35.078735" fill-rule="evenodd"/><path fill="#ffffff" d="m298.56046 445.876q-1.359375 0 -2.359375 -0.578125q-0.984375 -0.59375 -1.515625 -1.671875q-0.53125 -1.078125 -0.53125 -2.515625q0 -2.15625 1.171875 -3.390625q1.171875 -1.25 3.234375 -1.25q0.828125 0 1.65625 0.296875q0.828125 0.296875 1.359375 0.84375l-0.515625 1.09375q-0.546875 -0.515625 -1.1875 -0.75q-0.640625 -0.25 -1.21875 -0.25q-1.421875 0 -2.1875 0.890625q-0.765625 0.875 -0.765625 2.53125q0 1.625 0.765625 2.578125q0.765625 0.9375 2.1875 0.9375q0.578125 0 1.21875 -0.234375q0.640625 -0.25 1.1875 -0.796875l0.515625 1.109375q-0.53125 0.53125 -1.375 0.84375q-0.828125 0.3125 -1.640625 0.3125zm4.794098 -0.171875l0 -13.15625l1.5 0l0 5.578125q0.453125 -0.8125 1.265625 -1.234375q0.8125 -0.421875 1.8125 -0.421875q3.234375 0 3.234375 3.578125l0 5.65625l-1.515625 0l0 -5.5625q0 -1.265625 -0.5 -1.84375q-0.484375 -0.59375 -1.5625 -0.59375q-1.25 0 -2.0 0.78125q-0.734375 0.765625 -0.734375 2.046875l0 5.171875l-1.5 0zm13.440521 0.171875q-0.921875 0 -1.671875 -0.359375q-0.734375 -0.375 -1.171875 -1.0q-0.421875 -0.640625 -0.421875 -1.421875q0 -0.984375 0.515625 -1.5625q0.515625 -0.578125 1.703125 -0.828125q1.1875 -0.265625 3.234375 -0.265625l0.59375 0l0 -0.578125q0 -1.15625 -0.484375 -1.65625q-0.46875 -0.515625 -1.5 -0.515625q-0.828125 0 -1.59375 0.234375q-0.765625 0.21875 -1.5625 0.75l-0.53125 -1.109375q0.71875 -0.5 1.734375 -0.796875q1.015625 -0.296875 1.953125 -0.296875q1.75 0 2.59375 0.859375q0.84375 0.859375 0.84375 2.671875l0 5.703125l-1.40625 0l0 -1.5625q-0.359375 0.796875 -1.09375 1.265625q-0.734375 0.46875 -1.734375 0.46875zm0.25 -1.140625q1.125 0 1.828125 -0.765625q0.703125 -0.78125 0.703125 -1.984375l0 -0.546875l-0.578125 0q-1.5 0 -2.375 0.140625q-0.859375 0.125 -1.21875 0.484375q-0.34375 0.34375 -0.34375 0.9375q0 0.765625 0.53125 1.25q0.53125 0.484375 1.453125 0.484375zm6.7940674 0.96875l0 -9.0625l1.46875 0l0 1.546875q0.453125 -0.859375 1.265625 -1.28125q0.828125 -0.4375 1.84375 -0.4375q3.234375 0 3.234375 3.578125l0 5.65625l-1.515625 0l0 -5.5625q0 -1.265625 -0.5 -1.84375q-0.484375 -0.59375 -1.5625 -0.59375q-1.25 0 -2.0 0.78125q-0.734375 0.765625 -0.734375 2.046875l0 5.171875l-1.5 0zm14.596741 3.53125q-1.171875 0 -2.203125 -0.3125q-1.03125 -0.3125 -1.84375 -0.921875l0.515625 -1.109375q0.828125 0.609375 1.65625 0.859375q0.84375 0.265625 1.8125 0.265625q2.6875 0 2.6875 -2.765625l0 -1.59375q-0.390625 0.859375 -1.234375 1.359375q-0.828125 0.484375 -1.890625 0.484375q-1.25 0 -2.171875 -0.578125q-0.90625 -0.578125 -1.40625 -1.59375q-0.484375 -1.015625 -0.484375 -2.359375q0 -1.34375 0.484375 -2.359375q0.5 -1.015625 1.40625 -1.578125q0.921875 -0.5625 2.171875 -0.5625q1.0625 0 1.890625 0.484375q0.84375 0.484375 1.234375 1.328125l0 -1.640625l1.46875 0l0 8.40625q0 2.09375 -1.046875 3.140625q-1.03125 1.046875 -3.046875 1.046875zm-0.21875 -4.96875q1.3125 0 2.078125 -0.890625q0.765625 -0.90625 0.765625 -2.40625q0 -1.515625 -0.765625 -2.390625q-0.765625 -0.890625 -2.078125 -0.890625q-1.28125 0 -2.046875 0.890625q-0.765625 0.875 -0.765625 2.390625q0 1.5 0.765625 2.40625q0.765625 0.890625 2.046875 0.890625zm11.229462 1.609375q-2.140625 0 -3.390625 -1.25q-1.25 -1.265625 -1.25 -3.4375q0 -1.390625 0.5625 -2.46875q0.5625 -1.078125 1.53125 -1.65625q0.984375 -0.59375 2.265625 -0.59375q1.859375 0 2.890625 1.1875q1.046875 1.1875 1.046875 3.25l0 0.578125l-6.828125 0q0.078125 1.546875 0.890625 2.359375q0.828125 0.8125 2.28125 0.8125q0.828125 0 1.5625 -0.25q0.75 -0.25 1.421875 -0.828125l0.53125 1.0625q-0.625 0.578125 -1.578125 0.90625q-0.9375 0.328125 -1.9375 0.328125zm-0.234375 -8.28125q-1.296875 0 -2.046875 0.796875q-0.734375 0.796875 -0.875 2.109375l5.515625 0q-0.0625 -1.375 -0.734375 -2.140625q-0.65625 -0.765625 -1.859375 -0.765625z" fill-rule="nonzero"/><path fill="#ffffff" d="m354.8092 438.70413l0 -6.046875l0.984375 0l0 1.03125q0.296875 -0.5625 0.84375 -0.84375q0.5625 -0.296875 1.234375 -0.296875q2.15625 0 2.15625 2.390625l0 3.765625l-1.0 0l0 -3.703125q0 -0.84375 -0.34375 -1.234375q-0.328125 -0.390625 -1.046875 -0.390625q-0.828125 0 -1.328125 0.515625q-0.484375 0.515625 -0.484375 1.375l0 3.4375l-1.015625 0z" fill-rule="nonzero"/><path fill="#000000" fill-opacity="0.0" d="m327.11548 527.1286l0 -49.543304" fill-rule="evenodd"/><path stroke="#d9ead3" stroke-width="3.0" stroke-linejoin="round" stroke-linecap="butt" d="m327.11548 527.1286l0 -31.543304" fill-rule="evenodd"/><path fill="#d9ead3" stroke="#d9ead3" stroke-width="3.0" stroke-linecap="butt" d="m332.07068 495.5853l-4.9552 -13.614288l-4.9552 13.614288z" fill-rule="evenodd"/><path fill="#fce5cd" d="m544.2047 60.11778l0 0c0 -3.4106483 2.7648926 -6.175522 6.175537 -6.175522l163.2395 0c1.6378784 0 3.2086182 0.65063477 4.3667603 1.8087692c1.1581421 1.1581345 1.8087769 2.728901 1.8087769 4.3667526l0 174.70407c0 3.4106445 -2.7648926 6.175522 -6.175537 6.175522l-163.2395 0c-3.4106445 0 -6.175537 -2.7648773 -6.175537 -6.175522z" fill-rule="evenodd"/><path fill="#000000" fill-opacity="0.0" d="m632.0 290.53018l0 -49.543304" fill-rule="evenodd"/><path stroke="#fce5cd" stroke-width="3.0" stroke-linejoin="round" stroke-linecap="butt" d="m632.0 290.53018l0 -31.543304" fill-rule="evenodd"/><path fill="#fce5cd" stroke="#fce5cd" stroke-width="3.0" stroke-linecap="butt" d="m636.9552 258.98688l-4.9552 -13.614288l-4.9552 13.614288z" fill-rule="evenodd"/><path fill="#f6b26b" d="m567.147 104.27821l0 0c0 3.2289124 28.63971 5.8464584 63.968506 5.8464584c35.328857 0 63.968506 -2.617546 63.968506 -5.8464584l0 35.078735c0 3.2289124 -28.639648 5.846466 -63.968506 5.846466c-35.328796 0 -63.968506 -2.6175537 -63.968506 -5.846466z" fill-rule="evenodd"/><path fill="#f9d0a6" d="m567.147 104.27821l0 0c0 -3.2289047 28.63971 -5.8464584 63.968506 -5.8464584c35.328857 0 63.968506 2.6175537 63.968506 5.8464584l0 0c0 3.2289124 -28.639648 5.8464584 -63.968506 5.8464584c-35.328796 0 -63.968506 -2.617546 -63.968506 -5.8464584z" fill-rule="evenodd"/><path fill="#000000" fill-opacity="0.0" d="m695.084 104.27821l0 0c0 3.2289124 -28.639648 5.8464584 -63.968506 5.8464584c-35.328796 0 -63.968506 -2.617546 -63.968506 -5.8464584l0 0c0 -3.2289047 28.63971 -5.8464584 63.968506 -5.8464584c35.328857 0 63.968506 2.6175537 63.968506 5.8464584l0 35.078735c0 3.2289124 -28.639648 5.846466 -63.968506 5.846466c-35.328796 0 -63.968506 -2.6175537 -63.968506 -5.846466l0 -35.078735" fill-rule="evenodd"/><path fill="#ffffff" d="m592.8867 135.02019l0 -12.421875l1.46875 0l0 1.625q0.40625 -0.84375 1.21875 -1.3125q0.8125 -0.484375 1.890625 -0.484375q1.21875 0 2.125 0.578125q0.90625 0.5625 1.390625 1.625q0.5 1.046875 0.5 2.5q0 1.4375 -0.5 2.5q-0.484375 1.046875 -1.390625 1.625q-0.90625 0.578125 -2.125 0.578125q-1.03125 0 -1.859375 -0.46875q-0.8125 -0.46875 -1.21875 -1.28125l0 4.9375l-1.5 0zm4.265625 -4.40625q1.265625 0 2.03125 -0.90625q0.765625 -0.90625 0.765625 -2.578125q0 -1.703125 -0.765625 -2.59375q-0.765625 -0.890625 -2.03125 -0.890625q-1.265625 0 -2.03125 0.890625q-0.765625 0.890625 -0.765625 2.59375q0 1.671875 0.765625 2.578125q0.765625 0.90625 2.03125 0.90625zm6.610962 1.046875l0 -9.0625l1.46875 0l0 1.625q0.734375 -1.640625 2.984375 -1.8125l0.546875 -0.0625l0.109375 1.3125l-0.953125 0.109375q-1.28125 0.109375 -1.953125 0.8125q-0.671875 0.703125 -0.671875 1.90625l0 5.171875l-1.53125 0zm10.332581 0.171875q-1.328125 0 -2.296875 -0.578125q-0.96875 -0.578125 -1.5 -1.625q-0.53125 -1.0625 -0.53125 -2.5q0 -1.4375 0.53125 -2.484375q0.53125 -1.0625 1.5 -1.640625q0.96875 -0.578125 2.296875 -0.578125q1.3125 0 2.28125 0.578125q0.984375 0.578125 1.515625 1.640625q0.53125 1.046875 0.53125 2.484375q0 1.4375 -0.53125 2.5q-0.53125 1.046875 -1.515625 1.625q-0.96875 0.578125 -2.28125 0.578125zm0 -1.21875q1.265625 0 2.03125 -0.90625q0.765625 -0.90625 0.765625 -2.578125q0 -1.703125 -0.765625 -2.59375q-0.765625 -0.890625 -2.03125 -0.890625q-1.28125 0 -2.046875 0.890625q-0.75 0.890625 -0.75 2.59375q0 1.671875 0.75 2.578125q0.765625 0.90625 2.046875 0.90625zm6.466614 -10.28125l0 -1.6875l1.875 0l0 1.6875l-1.875 0zm-2.21875 14.921875l-0.109375 -1.171875l0.796875 -0.078125q1.71875 -0.140625 1.71875 -2.0625l0 -9.34375l1.515625 0l0 9.1875q0 1.625 -0.765625 2.46875q-0.765625 0.84375 -2.34375 0.953125l-0.8125 0.046875zm10.840393 -3.421875q-2.140625 0 -3.390625 -1.25q-1.25 -1.265625 -1.25 -3.4375q0 -1.390625 0.5625 -2.46875q0.5625 -1.078125 1.53125 -1.65625q0.984375 -0.59375 2.265625 -0.59375q1.859375 0 2.890625 1.1875q1.046875 1.1875 1.046875 3.25l0 0.578125l-6.828125 0q0.078125 1.546875 0.890625 2.359375q0.828125 0.8125 2.28125 0.8125q0.828125 0 1.5625 -0.25q0.75 -0.25 1.421875 -0.828125l0.53125 1.0625q-0.625 0.578125 -1.578125 0.90625q-0.9375 0.328125 -1.9375 0.328125zm-0.234375 -8.28125q-1.296875 0 -2.046875 0.796875q-0.734375 0.796875 -0.875 2.109375l5.515625 0q-0.0625 -1.375 -0.734375 -2.140625q-0.65625 -0.765625 -1.859375 -0.765625zm9.92511 8.28125q-1.359375 0 -2.359375 -0.578125q-0.984375 -0.59375 -1.515625 -1.671875q-0.53125 -1.078125 -0.53125 -2.515625q0 -2.15625 1.171875 -3.390625q1.171875 -1.25 3.234375 -1.25q0.828125 0 1.65625 0.296875q0.828125 0.296875 1.359375 0.84375l-0.515625 1.09375q-0.546875 -0.515625 -1.1875 -0.75q-0.640625 -0.25 -1.21875 -0.25q-1.421875 0 -2.1875 0.890625q-0.765625 0.875 -0.765625 2.53125q0 1.625 0.765625 2.578125q0.765625 0.9375 2.1875 0.9375q0.578125 0 1.21875 -0.234375q0.640625 -0.25 1.1875 -0.796875l0.515625 1.109375q-0.53125 0.53125 -1.375 0.84375q-0.828125 0.3125 -1.640625 0.3125zm8.434753 0q-1.609375 0 -2.421875 -0.84375q-0.796875 -0.859375 -0.796875 -2.46875l0 -4.75l-1.765625 0l0 -1.171875l1.765625 0l0 -2.78125l1.515625 0l0 2.78125l2.875 0l0 1.171875l-2.875 0l0 4.609375q0 1.0625 0.4375 1.609375q0.453125 0.546875 1.46875 0.546875q0.296875 0 0.59375 -0.0625q0.296875 -0.078125 0.546875 -0.15625l0.25 1.15625q-0.234375 0.125 -0.703125 0.234375q-0.46875 0.125 -0.890625 0.125z" fill-rule="nonzero"/><path fill="#ffffff" d="m649.7143 124.66081l0 -6.046875l0.984375 0l0 1.03125q0.296875 -0.5625 0.84375 -0.84375q0.5625 -0.296875 1.234375 -0.296875q2.15625 0 2.15625 2.390625l0 3.765625l-1.0 0l0 -3.703125q0 -0.84375 -0.34375 -1.234375q-0.328125 -0.390625 -1.046875 -0.390625q-0.828125 0 -1.328125 0.515625q-0.484375 0.515625 -0.484375 1.375l0 3.4375l-1.015625 0zm9.455078 -0.5l0 -2.6875l-2.625 0l0 -0.765625l2.625 0l0 -2.609375l0.796875 0l0 2.609375l2.640625 0l0 0.765625l-2.640625 0l0 2.6875l-0.796875 0zm5.6811523 0.5l0 -0.875l2.0 0l0 -6.65625l-1.578125 0.984375l-0.4375 -0.75l2.296875 -1.46875l0.734375 0l0 7.890625l1.875 0l0 0.875l-4.890625 0z" fill-rule="nonzero"/><path fill="#76a5af" d="m567.147 155.57217l0 0c0 3.2289124 28.63971 5.846466 63.968506 5.846466c35.328857 0 63.968506 -2.6175537 63.968506 -5.846466l0 35.07875c0 3.228897 -28.639648 5.846451 -63.968506 5.846451c-35.328796 0 -63.968506 -2.6175537 -63.968506 -5.846451z" fill-rule="evenodd"/><path fill="#acc9cf" d="m567.147 155.57217l0 0c0 -3.228897 28.63971 -5.846451 63.968506 -5.846451c35.328857 0 63.968506 2.6175537 63.968506 5.846451l0 0c0 3.2289124 -28.639648 5.846466 -63.968506 5.846466c-35.328796 0 -63.968506 -2.6175537 -63.968506 -5.846466z" fill-rule="evenodd"/><path fill="#000000" fill-opacity="0.0" d="m695.084 155.57217l0 0c0 3.2289124 -28.639648 5.846466 -63.968506 5.846466c-35.328796 0 -63.968506 -2.6175537 -63.968506 -5.846466l0 0c0 -3.228897 28.63971 -5.846451 63.968506 -5.846451c35.328857 0 63.968506 2.6175537 63.968506 5.846451l0 35.07875c0 3.228897 -28.639648 5.846451 -63.968506 5.846451c-35.328796 0 -63.968506 -2.6175537 -63.968506 -5.846451l0 -35.07875" fill-rule="evenodd"/><path fill="#ffffff" d="m596.8418 186.31415l0 -12.421875l1.46875 0l0 1.625q0.40625 -0.84375 1.21875 -1.3125q0.8125 -0.484375 1.890625 -0.484375q1.21875 0 2.125 0.578125q0.90625 0.5625 1.390625 1.625q0.5 1.046875 0.5 2.5q0 1.4375 -0.5 2.5q-0.484375 1.046875 -1.390625 1.625q-0.90625 0.578125 -2.125 0.578125q-1.03125 0 -1.859375 -0.46875q-0.8125 -0.46875 -1.21875 -1.28125l0 4.9375l-1.5 0zm4.265625 -4.40625q1.265625 0 2.03125 -0.90625q0.765625 -0.90625 0.765625 -2.578125q0 -1.703125 -0.765625 -2.59375q-0.765625 -0.890625 -2.03125 -0.890625q-1.265625 0 -2.03125 0.890625q-0.765625 0.890625 -0.765625 2.59375q0 1.671875 0.765625 2.578125q0.765625 0.90625 2.03125 0.90625zm10.376648 1.21875q-1.328125 0 -2.296875 -0.578125q-0.96875 -0.578125 -1.5 -1.625q-0.53125 -1.0625 -0.53125 -2.5q0 -1.4375 0.53125 -2.484375q0.53125 -1.0625 1.5 -1.640625q0.96875 -0.578125 2.296875 -0.578125q1.3125 0 2.28125 0.578125q0.984375 0.578125 1.515625 1.640625q0.53125 1.046875 0.53125 2.484375q0 1.4375 -0.53125 2.5q-0.53125 1.046875 -1.515625 1.625q-0.96875 0.578125 -2.28125 0.578125zm0 -1.21875q1.265625 0 2.03125 -0.90625q0.765625 -0.90625 0.765625 -2.578125q0 -1.703125 -0.765625 -2.59375q-0.765625 -0.890625 -2.03125 -0.890625q-1.28125 0 -2.046875 0.890625q-0.75 0.890625 -0.75 2.59375q0 1.671875 0.75 2.578125q0.765625 0.90625 2.046875 0.90625zm9.388489 1.21875q-1.390625 0 -2.09375 -0.8125q-0.6875 -0.8125 -0.6875 -2.359375l0 -10.15625l1.5 0l0 10.046875q0 1.984375 1.59375 1.984375q0.46875 0 0.84375 -0.109375l-0.046875 1.265625q-0.578125 0.140625 -1.109375 0.140625zm2.5534668 -11.5l0 -1.6875l1.859375 0l0 1.6875l-1.859375 0zm0.1875 11.328125l0 -9.0625l1.5 0l0 9.0625l-1.5 0zm8.171997 0.171875q-1.359375 0 -2.359375 -0.578125q-0.984375 -0.59375 -1.515625 -1.671875q-0.53125 -1.078125 -0.53125 -2.515625q0 -2.15625 1.171875 -3.390625q1.171875 -1.25 3.234375 -1.25q0.828125 0 1.65625 0.296875q0.828125 0.296875 1.359375 0.84375l-0.515625 1.09375q-0.546875 -0.515625 -1.1875 -0.75q-0.640625 -0.25 -1.21875 -0.25q-1.421875 0 -2.1875 0.890625q-0.765625 0.875 -0.765625 2.53125q0 1.625 0.765625 2.578125q0.765625 0.9375 2.1875 0.9375q0.578125 0 1.21875 -0.234375q0.640625 -0.25 1.1875 -0.796875l0.515625 1.109375q-0.53125 0.53125 -1.375 0.84375q-0.828125 0.3125 -1.640625 0.3125zm5.9156494 3.1875l1.546875 -3.515625l-3.828125 -8.90625l1.640625 0l3.0 7.34375l3.03125 -7.34375l1.578125 0l-5.390625 12.421875l-1.578125 0z" fill-rule="nonzero"/><path fill="#ffffff" d="m645.7592 175.95477l0 -6.046875l0.984375 0l0 1.03125q0.296875 -0.5625 0.84375 -0.84375q0.5625 -0.296875 1.234375 -0.296875q2.15625 0 2.15625 2.390625l0 3.765625l-1.0 0l0 -3.703125q0 -0.84375 -0.34375 -1.234375q-0.328125 -0.390625 -1.046875 -0.390625q-0.828125 0 -1.328125 0.515625q-0.484375 0.515625 -0.484375 1.375l0 3.4375l-1.015625 0zm9.455078 -0.5l0 -2.6875l-2.625 0l0 -0.765625l2.625 0l0 -2.609375l0.796875 0l0 2.609375l2.640625 0l0 0.765625l-2.640625 0l0 2.6875l-0.796875 0zm5.6811523 0.5l0 -0.875l2.0 0l0 -6.65625l-1.578125 0.984375l-0.4375 -0.75l2.296875 -1.46875l0.734375 0l0 7.890625l1.875 0l0 0.875l-4.890625 0z" fill-rule="nonzero"/><path fill="#fce5cd" d="m544.2047 296.7057l0 0c0 -3.4106445 2.7648926 -6.1755066 6.175537 -6.1755066l163.2395 0c1.6378784 0 3.2086182 0.65063477 4.3667603 1.8087769c1.1581421 1.1581421 1.8087769 2.7288818 1.8087769 4.3667297l0 174.7041c0 3.4106445 -2.7648926 6.1755066 -6.175537 6.1755066l-163.2395 0c-3.4106445 0 -6.175537 -2.764862 -6.175537 -6.1755066z" fill-rule="evenodd"/><path fill="#f6b26b" d="m567.147 340.86615l0 0c0 3.2289124 28.63971 5.8464355 63.968506 5.8464355c35.328857 0 63.968506 -2.6175232 63.968506 -5.8464355l0 35.078735c0 3.2289124 -28.639648 5.846466 -63.968506 5.846466c-35.328796 0 -63.968506 -2.6175537 -63.968506 -5.846466z" fill-rule="evenodd"/><path fill="#f9d0a6" d="m567.147 340.86615l0 0c0 -3.2289124 28.63971 -5.846466 63.968506 -5.846466c35.328857 0 63.968506 2.6175537 63.968506 5.846466l0 0c0 3.2289124 -28.639648 5.8464355 -63.968506 5.8464355c-35.328796 0 -63.968506 -2.6175232 -63.968506 -5.8464355z" fill-rule="evenodd"/><path fill="#000000" fill-opacity="0.0" d="m695.084 340.86615l0 0c0 3.2289124 -28.639648 5.8464355 -63.968506 5.8464355c-35.328796 0 -63.968506 -2.6175232 -63.968506 -5.8464355l0 0c0 -3.2289124 28.63971 -5.846466 63.968506 -5.846466c35.328857 0 63.968506 2.6175537 63.968506 5.846466l0 35.078735c0 3.2289124 -28.639648 5.846466 -63.968506 5.846466c-35.328796 0 -63.968506 -2.6175537 -63.968506 -5.846466l0 -35.078735" fill-rule="evenodd"/><path fill="#ffffff" d="m600.3492 371.60812l0 -12.421875l1.46875 0l0 1.625q0.40625 -0.84375 1.21875 -1.3125q0.8125 -0.484375 1.890625 -0.484375q1.21875 0 2.125 0.578125q0.90625 0.5625 1.390625 1.625q0.5 1.046875 0.5 2.5q0 1.4375 -0.5 2.5q-0.484375 1.046875 -1.390625 1.625q-0.90625 0.578125 -2.125 0.578125q-1.03125 0 -1.859375 -0.46875q-0.8125 -0.46875 -1.21875 -1.28125l0 4.9375l-1.5 0zm4.265625 -4.40625q1.265625 0 2.03125 -0.90625q0.765625 -0.90625 0.765625 -2.578125q0 -1.703125 -0.765625 -2.59375q-0.765625 -0.890625 -2.03125 -0.890625q-1.265625 0 -2.03125 0.890625q-0.765625 0.890625 -0.765625 2.59375q0 1.671875 0.765625 2.578125q0.765625 0.90625 2.03125 0.90625zm6.610962 1.046875l0 -9.0625l1.46875 0l0 1.625q0.734375 -1.640625 2.984375 -1.8125l0.546875 -0.0625l0.109375 1.3125l-0.953125 0.109375q-1.28125 0.109375 -1.953125 0.8125q-0.671875 0.703125 -0.671875 1.90625l0 5.171875l-1.53125 0zm10.332581 0.171875q-1.328125 0 -2.296875 -0.578125q-0.96875 -0.578125 -1.5 -1.625q-0.53125 -1.0625 -0.53125 -2.5q0 -1.4375 0.53125 -2.484375q0.53125 -1.0625 1.5 -1.640625q0.96875 -0.578125 2.296875 -0.578125q1.3125 0 2.28125 0.578125q0.984375 0.578125 1.515625 1.640625q0.53125 1.046875 0.53125 2.484375q0 1.4375 -0.53125 2.5q-0.53125 1.046875 -1.515625 1.625q-0.96875 0.578125 -2.28125 0.578125zm0 -1.21875q1.265625 0 2.03125 -0.90625q0.765625 -0.90625 0.765625 -2.578125q0 -1.703125 -0.765625 -2.59375q-0.765625 -0.890625 -2.03125 -0.890625q-1.28125 0 -2.046875 0.890625q-0.75 0.890625 -0.75 2.59375q0 1.671875 0.75 2.578125q0.765625 0.90625 2.046875 0.90625zm6.466614 -10.28125l0 -1.6875l1.875 0l0 1.6875l-1.875 0zm-2.21875 14.921875l-0.109375 -1.171875l0.796875 -0.078125q1.71875 -0.140625 1.71875 -2.0625l0 -9.34375l1.515625 0l0 9.1875q0 1.625 -0.765625 2.46875q-0.765625 0.84375 -2.34375 0.953125l-0.8125 0.046875zm10.840393 -3.421875q-2.140625 0 -3.390625 -1.25q-1.25 -1.265625 -1.25 -3.4375q0 -1.390625 0.5625 -2.46875q0.5625 -1.078125 1.53125 -1.65625q0.984375 -0.59375 2.265625 -0.59375q1.859375 0 2.890625 1.1875q1.046875 1.1875 1.046875 3.25l0 0.578125l-6.828125 0q0.078125 1.546875 0.890625 2.359375q0.828125 0.8125 2.28125 0.8125q0.828125 0 1.5625 -0.25q0.75 -0.25 1.421875 -0.828125l0.53125 1.0625q-0.625 0.578125 -1.578125 0.90625q-0.9375 0.328125 -1.9375 0.328125zm-0.234375 -8.28125q-1.296875 0 -2.046875 0.796875q-0.734375 0.796875 -0.875 2.109375l5.515625 0q-0.0625 -1.375 -0.734375 -2.140625q-0.65625 -0.765625 -1.859375 -0.765625zm9.92511 8.28125q-1.359375 0 -2.359375 -0.578125q-0.984375 -0.59375 -1.515625 -1.671875q-0.53125 -1.078125 -0.53125 -2.515625q0 -2.15625 1.171875 -3.390625q1.171875 -1.25 3.234375 -1.25q0.828125 0 1.65625 0.296875q0.828125 0.296875 1.359375 0.84375l-0.515625 1.09375q-0.546875 -0.515625 -1.1875 -0.75q-0.640625 -0.25 -1.21875 -0.25q-1.421875 0 -2.1875 0.890625q-0.765625 0.875 -0.765625 2.53125q0 1.625 0.765625 2.578125q0.765625 0.9375 2.1875 0.9375q0.578125 0 1.21875 -0.234375q0.640625 -0.25 1.1875 -0.796875l0.515625 1.109375q-0.53125 0.53125 -1.375 0.84375q-0.828125 0.3125 -1.640625 0.3125zm8.434692 0q-1.609375 0 -2.421875 -0.84375q-0.796875 -0.859375 -0.796875 -2.46875l0 -4.75l-1.765625 0l0 -1.171875l1.765625 0l0 -2.78125l1.515625 0l0 2.78125l2.875 0l0 1.171875l-2.875 0l0 4.609375q0 1.0625 0.4375 1.609375q0.453125 0.546875 1.46875 0.546875q0.296875 0 0.59375 -0.0625q0.296875 -0.078125 0.546875 -0.15625l0.25 1.15625q-0.234375 0.125 -0.703125 0.234375q-0.46875 0.125 -0.890625 0.125z" fill-rule="nonzero"/><path fill="#ffffff" d="m657.17676 361.24875l0 -6.046875l0.984375 0l0 1.03125q0.296875 -0.5625 0.84375 -0.84375q0.5625 -0.296875 1.234375 -0.296875q2.15625 0 2.15625 2.390625l0 3.765625l-1.0 0l0 -3.703125q0 -0.84375 -0.34375 -1.234375q-0.328125 -0.390625 -1.046875 -0.390625q-0.828125 0 -1.328125 0.515625q-0.484375 0.515625 -0.484375 1.375l0 3.4375l-1.015625 0z" fill-rule="nonzero"/><path fill="#76a5af" d="m567.147 392.1601l0 0c0 3.2289124 28.63971 5.846466 63.968506 5.846466c35.328857 0 63.968506 -2.6175537 63.968506 -5.846466l0 35.078735c0 3.2289124 -28.639648 5.846466 -63.968506 5.846466c-35.328796 0 -63.968506 -2.6175537 -63.968506 -5.846466z" fill-rule="evenodd"/><path fill="#acc9cf" d="m567.147 392.1601l0 0c0 -3.2289124 28.63971 -5.8464355 63.968506 -5.8464355c35.328857 0 63.968506 2.6175232 63.968506 5.8464355l0 0c0 3.2289124 -28.639648 5.846466 -63.968506 5.846466c-35.328796 0 -63.968506 -2.6175537 -63.968506 -5.846466z" fill-rule="evenodd"/><path fill="#000000" fill-opacity="0.0" d="m695.084 392.1601l0 0c0 3.2289124 -28.639648 5.846466 -63.968506 5.846466c-35.328796 0 -63.968506 -2.6175537 -63.968506 -5.846466l0 0c0 -3.2289124 28.63971 -5.8464355 63.968506 -5.8464355c35.328857 0 63.968506 2.6175232 63.968506 5.8464355l0 35.078735c0 3.2289124 -28.639648 5.846466 -63.968506 5.846466c-35.328796 0 -63.968506 -2.6175537 -63.968506 -5.846466l0 -35.078735" fill-rule="evenodd"/><path fill="#ffffff" d="m604.30426 422.90207l0 -12.421875l1.46875 0l0 1.625q0.40625 -0.84375 1.21875 -1.3125q0.8125 -0.484375 1.890625 -0.484375q1.21875 0 2.125 0.578125q0.90625 0.5625 1.390625 1.625q0.5 1.046875 0.5 2.5q0 1.4375 -0.5 2.5q-0.484375 1.046875 -1.390625 1.625q-0.90625 0.578125 -2.125 0.578125q-1.03125 0 -1.859375 -0.46875q-0.8125 -0.46875 -1.21875 -1.28125l0 4.9375l-1.5 0zm4.265625 -4.40625q1.265625 0 2.03125 -0.90625q0.765625 -0.90625 0.765625 -2.578125q0 -1.703125 -0.765625 -2.59375q-0.765625 -0.890625 -2.03125 -0.890625q-1.265625 0 -2.03125 0.890625q-0.765625 0.890625 -0.765625 2.59375q0 1.671875 0.765625 2.578125q0.765625 0.90625 2.03125 0.90625zm10.376587 1.21875q-1.328125 0 -2.296875 -0.578125q-0.96875 -0.578125 -1.5 -1.625q-0.53125 -1.0625 -0.53125 -2.5q0 -1.4375 0.53125 -2.484375q0.53125 -1.0625 1.5 -1.640625q0.96875 -0.578125 2.296875 -0.578125q1.3125 0 2.28125 0.578125q0.984375 0.578125 1.515625 1.640625q0.53125 1.046875 0.53125 2.484375q0 1.4375 -0.53125 2.5q-0.53125 1.046875 -1.515625 1.625q-0.96875 0.578125 -2.28125 0.578125zm0 -1.21875q1.265625 0 2.03125 -0.90625q0.765625 -0.90625 0.765625 -2.578125q0 -1.703125 -0.765625 -2.59375q-0.765625 -0.890625 -2.03125 -0.890625q-1.28125 0 -2.046875 0.890625q-0.75 0.890625 -0.75 2.59375q0 1.671875 0.75 2.578125q0.765625 0.90625 2.046875 0.90625zm9.388489 1.21875q-1.390625 0 -2.09375 -0.8125q-0.6875 -0.8125 -0.6875 -2.359375l0 -10.15625l1.5 0l0 10.046875q0 1.984375 1.59375 1.984375q0.46875 0 0.84375 -0.109375l-0.046875 1.265625q-0.578125 0.140625 -1.109375 0.140625zm2.5535278 -11.5l0 -1.6875l1.859375 0l0 1.6875l-1.859375 0zm0.1875 11.328125l0 -9.0625l1.5 0l0 9.0625l-1.5 0zm8.171997 0.171875q-1.359375 0 -2.359375 -0.578125q-0.984375 -0.59375 -1.515625 -1.671875q-0.53125 -1.078125 -0.53125 -2.515625q0 -2.15625 1.171875 -3.390625q1.171875 -1.25 3.234375 -1.25q0.828125 0 1.65625 0.296875q0.828125 0.296875 1.359375 0.84375l-0.515625 1.09375q-0.546875 -0.515625 -1.1875 -0.75q-0.640625 -0.25 -1.21875 -0.25q-1.421875 0 -2.1875 0.890625q-0.765625 0.875 -0.765625 2.53125q0 1.625 0.765625 2.578125q0.765625 0.9375 2.1875 0.9375q0.578125 0 1.21875 -0.234375q0.640625 -0.25 1.1875 -0.796875l0.515625 1.109375q-0.53125 0.53125 -1.375 0.84375q-0.828125 0.3125 -1.640625 0.3125zm5.9156494 3.1875l1.546875 -3.515625l-3.828125 -8.90625l1.640625 0l3.0 7.34375l3.03125 -7.34375l1.578125 0l-5.390625 12.421875l-1.578125 0z" fill-rule="nonzero"/><path fill="#ffffff" d="m653.2217 412.5427l0 -6.046875l0.984375 0l0 1.03125q0.296875 -0.5625 0.84375 -0.84375q0.5625 -0.296875 1.234375 -0.296875q2.15625 0 2.15625 2.390625l0 3.765625l-1.0 0l0 -3.703125q0 -0.84375 -0.34375 -1.234375q-0.328125 -0.390625 -1.046875 -0.390625q-0.828125 0 -1.328125 0.515625q-0.484375 0.515625 -0.484375 1.375l0 3.4375l-1.015625 0z" fill-rule="nonzero"/><path fill="#000000" fill-opacity="0.0" d="m631.1155 527.1286l0 -49.543304" fill-rule="evenodd"/><path stroke="#fce5cd" stroke-width="3.0" stroke-linejoin="round" stroke-linecap="butt" d="m631.1155 527.1286l0 -31.543304" fill-rule="evenodd"/><path fill="#fce5cd" stroke="#fce5cd" stroke-width="3.0" stroke-linecap="butt" d="m636.0707 495.5853l-4.9552 -13.614288l-4.9552 13.614288z" fill-rule="evenodd"/><path fill="#000000" fill-opacity="0.0" d="m391.08398 435.8609c38.280396 0 57.419067 -12.952759 76.56082 -25.905518c19.141724 -12.952759 38.28653 -25.905518 76.57303 -25.905518" fill-rule="evenodd"/><path stroke="#666666" stroke-width="2.0" stroke-linejoin="round" stroke-linecap="butt" stroke-dasharray="16.0,6.0" d="m391.08398 435.8609c38.280396 0 57.419098 -12.952759 76.56082 -25.905518c9.570862 -6.4763794 19.142517 -12.952759 31.107208 -17.810028c5.982361 -2.42865 12.563019 -4.4525146 20.040955 -5.869232c3.7389526 -0.708374 7.7023315 -1.2649231 11.927307 -1.6444092c0.2640381 -0.02368164 0.5291748 -0.04675293 0.7952881 -0.06906128l0.7109375 -0.057525635" fill-rule="evenodd"/><path fill="#666666" stroke="#666666" stroke-width="2.0" stroke-linecap="butt" d="m532.3518 387.80618l8.944336 -3.6453857l-9.195007 -2.956787z" fill-rule="evenodd"/><path fill="#000000" fill-opacity="0.0" d="m391.08398 199.27296c38.280396 0 57.419067 -12.952759 76.56082 -25.905518c19.141724 -12.952744 38.28653 -25.905502 76.57303 -25.905502" fill-rule="evenodd"/><path stroke="#666666" stroke-width="2.0" stroke-linejoin="round" stroke-linecap="butt" stroke-dasharray="16.0,6.0" d="m391.08398 199.27296c38.280396 0 57.419098 -12.952759 76.56082 -25.905518c9.570862 -6.476364 19.142517 -12.952744 31.107208 -17.810028c5.982361 -2.42865 12.563019 -4.4525146 20.040955 -5.869217c3.7389526 -0.70835876 7.7023315 -1.2649231 11.927307 -1.6444092c0.2640381 -0.023712158 0.5291748 -0.04673767 0.7952881 -0.06906128l0.7109375 -0.057556152" fill-rule="evenodd"/><path fill="#666666" stroke="#666666" stroke-width="2.0" stroke-linecap="butt" d="m532.3518 151.21826l8.944336 -3.645401l-9.195007 -2.9567719z" fill-rule="evenodd"/><path fill="#000000" fill-opacity="0.0" d="m87.07087 128.35695l153.13385 0l0 39.244095l-153.13385 0z" fill-rule="evenodd"/><path fill="#d9ead3" d="m134.27847 155.46445q-1.421875 0 -2.5 -0.578125q-1.0625 -0.59375 -1.640625 -1.671875q-0.578125 -1.09375 -0.578125 -2.546875q0 -1.453125 0.578125 -2.5q0.578125 -1.0625 1.640625 -1.625q1.078125 -0.578125 2.5 -0.578125q0.890625 0 1.734375 0.28125q0.859375 0.28125 1.421875 0.78125l-0.6875 1.625q-0.484375 -0.421875 -1.09375 -0.640625q-0.609375 -0.234375 -1.15625 -0.234375q-1.21875 0 -1.890625 0.765625q-0.65625 0.75 -0.65625 2.140625q0 1.390625 0.65625 2.1875q0.671875 0.78125 1.890625 0.78125q0.53125 0 1.140625 -0.21875q0.625 -0.234375 1.109375 -0.671875l0.6875 1.640625q-0.5625 0.484375 -1.4375 0.78125q-0.859375 0.28125 -1.71875 0.28125zm8.57222 0q-1.421875 0 -2.46875 -0.578125q-1.046875 -0.578125 -1.625 -1.640625q-0.578125 -1.078125 -0.578125 -2.546875q0 -1.453125 0.578125 -2.515625q0.578125 -1.0625 1.625 -1.640625q1.046875 -0.578125 2.46875 -0.578125q1.421875 0 2.453125 0.578125q1.046875 0.578125 1.625 1.640625q0.578125 1.0625 0.578125 2.515625q0 1.46875 -0.578125 2.546875q-0.578125 1.0625 -1.625 1.640625q-1.03125 0.578125 -2.453125 0.578125zm0 -1.765625q1.046875 0 1.671875 -0.75q0.640625 -0.765625 0.640625 -2.25q0 -1.484375 -0.640625 -2.21875q-0.625 -0.734375 -1.671875 -0.734375q-1.046875 0 -1.6875 0.734375q-0.625 0.734375 -0.625 2.21875q0 1.484375 0.625 2.25q0.640625 0.75 1.6875 0.75zm6.621002 1.578125l0 -9.125l2.28125 0l0 1.40625q0.40625 -0.75 1.125 -1.171875q0.734375 -0.421875 1.6875 -0.421875q2.046875 0 2.6875 1.796875q0.421875 -0.84375 1.21875 -1.3125q0.8125 -0.484375 1.84375 -0.484375q3.078125 0 3.078125 3.75l0 5.5625l-2.34375 0l0 -5.46875q0 -1.046875 -0.34375 -1.53125q-0.34375 -0.484375 -1.15625 -0.484375q-0.921875 0 -1.453125 0.65625q-0.515625 0.640625 -0.515625 1.765625l0 5.0625l-2.328125 0l0 -5.46875q0 -1.046875 -0.34375 -1.53125q-0.34375 -0.484375 -1.140625 -0.484375q-0.921875 0 -1.453125 0.65625q-0.515625 0.640625 -0.515625 1.765625l0 5.0625l-2.328125 0zm16.361542 0l0 -9.125l2.28125 0l0 1.40625q0.40625 -0.75 1.125 -1.171875q0.734375 -0.421875 1.6875 -0.421875q2.046875 0 2.6875 1.796875q0.421875 -0.84375 1.21875 -1.3125q0.8125 -0.484375 1.84375 -0.484375q3.078125 0 3.078125 3.75l0 5.5625l-2.34375 0l0 -5.46875q0 -1.046875 -0.34375 -1.53125q-0.34375 -0.484375 -1.15625 -0.484375q-0.921875 0 -1.453125 0.65625q-0.515625 0.640625 -0.515625 1.765625l0 5.0625l-2.328125 0l0 -5.46875q0 -1.046875 -0.34375 -1.53125q-0.34375 -0.484375 -1.140625 -0.484375q-0.921875 0 -1.453125 0.65625q-0.515625 0.640625 -0.515625 1.765625l0 5.0625l-2.328125 0zm16.174042 -11.078125l0 -2.28125l2.609375 0l0 2.28125l-2.609375 0zm0.15625 11.078125l0 -9.125l2.328125 0l0 9.125l-2.328125 0zm8.9292145 0.1875q-3.625 0 -3.625 -3.578125l0 -3.984375l-1.75 0l0 -1.75l1.75 0l0 -2.71875l2.34375 0l0 2.71875l2.75 0l0 1.75l-2.75 0l0 3.84375q0 0.90625 0.390625 1.359375q0.390625 0.4375 1.265625 0.4375q0.265625 0 0.53125 -0.0625q0.28125 -0.0625 0.59375 -0.140625l0.34375 1.71875q-0.328125 0.1875 -0.84375 0.296875q-0.515625 0.109375 -1.0 0.109375zm8.029312 -0.1875l0 -9.125l2.265625 0l0 1.421875q0.46875 -0.78125 1.265625 -1.1875q0.796875 -0.421875 1.78125 -0.421875q3.21875 0 3.21875 3.75l0 5.5625l-2.328125 0l0 -5.453125q0 -1.0625 -0.40625 -1.546875q-0.390625 -0.484375 -1.234375 -0.484375q-1.03125 0 -1.640625 0.65625q-0.59375 0.640625 -0.59375 1.703125l0 5.125l-2.328125 0zm14.429535 -0.75l0 -3.78125l-3.6875 0l0 -1.640625l3.6875 0l0 -3.671875l1.71875 0l0 3.671875l3.703125 0l0 1.640625l-3.703125 0l0 3.78125l-1.71875 0zm8.490631 0.75l0 -1.984375l2.96875 0l0 -8.4375l-2.296875 1.375l-0.9375 -1.75l3.921875 -2.359375l1.703125 0l0 11.171875l2.78125 0l0 1.984375l-8.140625 0z" fill-rule="nonzero"/><path fill="#000000" fill-opacity="0.0" d="m87.07087 364.4357l153.13385 0l0 39.24408l-153.13385 0z" fill-rule="evenodd"/><path fill="#d9ead3" d="m156.66599 391.54318q-1.421875 0 -2.5 -0.578125q-1.0625 -0.59375 -1.640625 -1.671875q-0.578125 -1.09375 -0.578125 -2.546875q0 -1.453125 0.578125 -2.5q0.578125 -1.0625 1.640625 -1.625q1.078125 -0.578125 2.5 -0.578125q0.890625 0 1.734375 0.28125q0.859375 0.28125 1.421875 0.78125l-0.6875 1.625q-0.484375 -0.421875 -1.09375 -0.640625q-0.609375 -0.234375 -1.15625 -0.234375q-1.21875 0 -1.890625 0.765625q-0.65625 0.75 -0.65625 2.140625q0 1.390625 0.65625 2.1875q0.671875 0.78125 1.890625 0.78125q0.53125 0 1.140625 -0.21875q0.625 -0.234375 1.109375 -0.671875l0.6875 1.640625q-0.5625 0.484375 -1.4375 0.78125q-0.859375 0.28125 -1.71875 0.28125zm8.57222 0q-1.421875 0 -2.46875 -0.578125q-1.046875 -0.578125 -1.625 -1.640625q-0.578125 -1.078125 -0.578125 -2.546875q0 -1.453125 0.578125 -2.515625q0.578125 -1.0625 1.625 -1.640625q1.046875 -0.578125 2.46875 -0.578125q1.421875 0 2.453125 0.578125q1.046875 0.578125 1.625 1.640625q0.578125 1.0625 0.578125 2.515625q0 1.46875 -0.578125 2.546875q-0.578125 1.0625 -1.625 1.640625q-1.03125 0.578125 -2.453125 0.578125zm0 -1.765625q1.046875 0 1.671875 -0.75q0.640625 -0.765625 0.640625 -2.25q0 -1.484375 -0.640625 -2.21875q-0.625 -0.734375 -1.671875 -0.734375q-1.046875 0 -1.6875 0.734375q-0.625 0.734375 -0.625 2.21875q0 1.484375 0.625 2.25q0.640625 0.75 1.6875 0.75zm6.621002 1.578125l0 -9.125l2.28125 0l0 1.40625q0.40625 -0.75 1.125 -1.171875q0.734375 -0.421875 1.6875 -0.421875q2.046875 0 2.6875 1.796875q0.421875 -0.84375 1.21875 -1.3125q0.8125 -0.484375 1.84375 -0.484375q3.078125 0 3.078125 3.75l0 5.5625l-2.34375 0l0 -5.46875q0 -1.046875 -0.34375 -1.53125q-0.34375 -0.484375 -1.15625 -0.484375q-0.921875 0 -1.453125 0.65625q-0.515625 0.640625 -0.515625 1.765625l0 5.0625l-2.328125 0l0 -5.46875q0 -1.046875 -0.34375 -1.53125q-0.34375 -0.484375 -1.140625 -0.484375q-0.921875 0 -1.453125 0.65625q-0.515625 0.640625 -0.515625 1.765625l0 5.0625l-2.328125 0zm16.361542 0l0 -9.125l2.28125 0l0 1.40625q0.40625 -0.75 1.125 -1.171875q0.734375 -0.421875 1.6875 -0.421875q2.046875 0 2.6875 1.796875q0.421875 -0.84375 1.21875 -1.3125q0.8125 -0.484375 1.84375 -0.484375q3.078125 0 3.078125 3.75l0 5.5625l-2.34375 0l0 -5.46875q0 -1.046875 -0.34375 -1.53125q-0.34375 -0.484375 -1.15625 -0.484375q-0.921875 0 -1.453125 0.65625q-0.515625 0.640625 -0.515625 1.765625l0 5.0625l-2.328125 0l0 -5.46875q0 -1.046875 -0.34375 -1.53125q-0.34375 -0.484375 -1.140625 -0.484375q-0.921875 0 -1.453125 0.65625q-0.515625 0.640625 -0.515625 1.765625l0 5.0625l-2.328125 0zm16.174042 -11.078125l0 -2.28125l2.609375 0l0 2.28125l-2.609375 0zm0.15625 11.078125l0 -9.125l2.328125 0l0 9.125l-2.328125 0zm8.9292145 0.1875q-3.625 0 -3.625 -3.578125l0 -3.984375l-1.75 0l0 -1.75l1.75 0l0 -2.71875l2.34375 0l0 2.71875l2.75 0l0 1.75l-2.75 0l0 3.84375q0 0.90625 0.390625 1.359375q0.390625 0.4375 1.265625 0.4375q0.265625 0 0.53125 -0.0625q0.28125 -0.0625 0.59375 -0.140625l0.34375 1.71875q-0.328125 0.1875 -0.84375 0.296875q-0.515625 0.109375 -1.0 0.109375zm8.029312 -0.1875l0 -9.125l2.265625 0l0 1.421875q0.46875 -0.78125 1.265625 -1.1875q0.796875 -0.421875 1.78125 -0.421875q3.21875 0 3.21875 3.75l0 5.5625l-2.328125 0l0 -5.453125q0 -1.0625 -0.40625 -1.546875q-0.390625 -0.484375 -1.234375 -0.484375q-1.03125 0 -1.640625 0.65625q-0.59375 0.640625 -0.59375 1.703125l0 5.125l-2.328125 0z" fill-rule="nonzero"/><path fill="#000000" fill-opacity="0.0" d="m719.7953 127.84777l153.13385 0l0 39.244087l-153.13385 0z" fill-rule="evenodd"/><path fill="#fce5cd" d="m734.21716 154.95526q-1.421875 0 -2.5 -0.578125q-1.0625 -0.59375 -1.640625 -1.671875q-0.578125 -1.09375 -0.578125 -2.546875q0 -1.453125 0.578125 -2.5q0.578125 -1.0625 1.640625 -1.625q1.078125 -0.578125 2.5 -0.578125q0.890625 0 1.734375 0.28125q0.859375 0.28125 1.421875 0.78125l-0.6875 1.625q-0.484375 -0.421875 -1.09375 -0.640625q-0.609375 -0.234375 -1.15625 -0.234375q-1.21875 0 -1.890625 0.765625q-0.65625 0.75 -0.65625 2.140625q0 1.390625 0.65625 2.1875q0.671875 0.78125 1.890625 0.78125q0.53125 0 1.140625 -0.21875q0.625 -0.234375 1.109375 -0.671875l0.6875 1.640625q-0.5625 0.484375 -1.4375 0.78125q-0.859375 0.28125 -1.71875 0.28125zm8.572205 0q-1.421875 0 -2.46875 -0.578125q-1.046875 -0.578125 -1.625 -1.640625q-0.578125 -1.078125 -0.578125 -2.546875q0 -1.453125 0.578125 -2.515625q0.578125 -1.0625 1.625 -1.640625q1.046875 -0.578125 2.46875 -0.578125q1.421875 0 2.453125 0.578125q1.046875 0.578125 1.625 1.640625q0.578125 1.0625 0.578125 2.515625q0 1.46875 -0.578125 2.546875q-0.578125 1.0625 -1.625 1.640625q-1.03125 0.578125 -2.453125 0.578125zm0 -1.765625q1.046875 0 1.671875 -0.75q0.640625 -0.765625 0.640625 -2.25q0 -1.484375 -0.640625 -2.21875q-0.625 -0.734375 -1.671875 -0.734375q-1.046875 0 -1.6875 0.734375q-0.625 0.734375 -0.625 2.21875q0 1.484375 0.625 2.25q0.640625 0.75 1.6875 0.75zm6.6210327 1.578125l0 -9.125l2.28125 0l0 1.40625q0.40625 -0.75 1.125 -1.171875q0.734375 -0.421875 1.6875 -0.421875q2.046875 0 2.6875 1.796875q0.421875 -0.84375 1.21875 -1.3125q0.8125 -0.484375 1.84375 -0.484375q3.078125 0 3.078125 3.75l0 5.5625l-2.34375 0l0 -5.46875q0 -1.046875 -0.34375 -1.53125q-0.34375 -0.484375 -1.15625 -0.484375q-0.921875 0 -1.453125 0.65625q-0.515625 0.640625 -0.515625 1.765625l0 5.0625l-2.328125 0l0 -5.46875q0 -1.046875 -0.34375 -1.53125q-0.34375 -0.484375 -1.140625 -0.484375q-0.921875 0 -1.453125 0.65625q-0.515625 0.640625 -0.515625 1.765625l0 5.0625l-2.328125 0zm16.361511 0l0 -9.125l2.28125 0l0 1.40625q0.40625 -0.75 1.125 -1.171875q0.734375 -0.421875 1.6875 -0.421875q2.046875 0 2.6875 1.796875q0.421875 -0.84375 1.21875 -1.3125q0.8125 -0.484375 1.84375 -0.484375q3.078125 0 3.078125 3.75l0 5.5625l-2.34375 0l0 -5.46875q0 -1.046875 -0.34375 -1.53125q-0.34375 -0.484375 -1.15625 -0.484375q-0.921875 0 -1.453125 0.65625q-0.515625 0.640625 -0.515625 1.765625l0 5.0625l-2.328125 0l0 -5.46875q0 -1.046875 -0.34375 -1.53125q-0.34375 -0.484375 -1.140625 -0.484375q-0.921875 0 -1.453125 0.65625q-0.515625 0.640625 -0.515625 1.765625l0 5.0625l-2.328125 0zm16.174072 -11.078125l0 -2.28125l2.609375 0l0 2.28125l-2.609375 0zm0.15625 11.078125l0 -9.125l2.328125 0l0 9.125l-2.328125 0zm8.929199 0.1875q-3.625 0 -3.625 -3.578125l0 -3.984375l-1.75 0l0 -1.75l1.75 0l0 -2.71875l2.34375 0l0 2.71875l2.75 0l0 1.75l-2.75 0l0 3.84375q0 0.90625 0.390625 1.359375q0.390625 0.4375 1.265625 0.4375q0.265625 0 0.53125 -0.0625q0.28125 -0.0625 0.59375 -0.140625l0.34375 1.71875q-0.328125 0.1875 -0.84375 0.296875q-0.515625 0.109375 -1.0 0.109375zm8.029297 -0.1875l0 -9.125l2.265625 0l0 1.421875q0.46875 -0.78125 1.265625 -1.1875q0.796875 -0.421875 1.78125 -0.421875q3.21875 0 3.21875 3.75l0 5.5625l-2.328125 0l0 -5.453125q0 -1.0625 -0.40625 -1.546875q-0.390625 -0.484375 -1.234375 -0.484375q-1.03125 0 -1.640625 0.65625q-0.59375 0.640625 -0.59375 1.703125l0 5.125l-2.328125 0zm14.429565 -0.75l0 -3.78125l-3.6875 0l0 -1.640625l3.6875 0l0 -3.671875l1.71875 0l0 3.671875l3.703125 0l0 1.640625l-3.703125 0l0 3.78125l-1.71875 0zm8.490601 0.75l0 -1.984375l2.96875 0l0 -8.4375l-2.296875 1.375l-0.9375 -1.75l3.921875 -2.359375l1.703125 0l0 11.171875l2.78125 0l0 1.984375l-8.140625 0z" fill-rule="nonzero"/><path fill="#000000" fill-opacity="0.0" d="m719.7953 364.4357l153.13385 0l0 39.24408l-153.13385 0z" fill-rule="evenodd"/><path fill="#fce5cd" d="m734.21716 391.54318q-1.421875 0 -2.5 -0.578125q-1.0625 -0.59375 -1.640625 -1.671875q-0.578125 -1.09375 -0.578125 -2.546875q0 -1.453125 0.578125 -2.5q0.578125 -1.0625 1.640625 -1.625q1.078125 -0.578125 2.5 -0.578125q0.890625 0 1.734375 0.28125q0.859375 0.28125 1.421875 0.78125l-0.6875 1.625q-0.484375 -0.421875 -1.09375 -0.640625q-0.609375 -0.234375 -1.15625 -0.234375q-1.21875 0 -1.890625 0.765625q-0.65625 0.75 -0.65625 2.140625q0 1.390625 0.65625 2.1875q0.671875 0.78125 1.890625 0.78125q0.53125 0 1.140625 -0.21875q0.625 -0.234375 1.109375 -0.671875l0.6875 1.640625q-0.5625 0.484375 -1.4375 0.78125q-0.859375 0.28125 -1.71875 0.28125zm8.572205 0q-1.421875 0 -2.46875 -0.578125q-1.046875 -0.578125 -1.625 -1.640625q-0.578125 -1.078125 -0.578125 -2.546875q0 -1.453125 0.578125 -2.515625q0.578125 -1.0625 1.625 -1.640625q1.046875 -0.578125 2.46875 -0.578125q1.421875 0 2.453125 0.578125q1.046875 0.578125 1.625 1.640625q0.578125 1.0625 0.578125 2.515625q0 1.46875 -0.578125 2.546875q-0.578125 1.0625 -1.625 1.640625q-1.03125 0.578125 -2.453125 0.578125zm0 -1.765625q1.046875 0 1.671875 -0.75q0.640625 -0.765625 0.640625 -2.25q0 -1.484375 -0.640625 -2.21875q-0.625 -0.734375 -1.671875 -0.734375q-1.046875 0 -1.6875 0.734375q-0.625 0.734375 -0.625 2.21875q0 1.484375 0.625 2.25q0.640625 0.75 1.6875 0.75zm6.6210327 1.578125l0 -9.125l2.28125 0l0 1.40625q0.40625 -0.75 1.125 -1.171875q0.734375 -0.421875 1.6875 -0.421875q2.046875 0 2.6875 1.796875q0.421875 -0.84375 1.21875 -1.3125q0.8125 -0.484375 1.84375 -0.484375q3.078125 0 3.078125 3.75l0 5.5625l-2.34375 0l0 -5.46875q0 -1.046875 -0.34375 -1.53125q-0.34375 -0.484375 -1.15625 -0.484375q-0.921875 0 -1.453125 0.65625q-0.515625 0.640625 -0.515625 1.765625l0 5.0625l-2.328125 0l0 -5.46875q0 -1.046875 -0.34375 -1.53125q-0.34375 -0.484375 -1.140625 -0.484375q-0.921875 0 -1.453125 0.65625q-0.515625 0.640625 -0.515625 1.765625l0 5.0625l-2.328125 0zm16.361511 0l0 -9.125l2.28125 0l0 1.40625q0.40625 -0.75 1.125 -1.171875q0.734375 -0.421875 1.6875 -0.421875q2.046875 0 2.6875 1.796875q0.421875 -0.84375 1.21875 -1.3125q0.8125 -0.484375 1.84375 -0.484375q3.078125 0 3.078125 3.75l0 5.5625l-2.34375 0l0 -5.46875q0 -1.046875 -0.34375 -1.53125q-0.34375 -0.484375 -1.15625 -0.484375q-0.921875 0 -1.453125 0.65625q-0.515625 0.640625 -0.515625 1.765625l0 5.0625l-2.328125 0l0 -5.46875q0 -1.046875 -0.34375 -1.53125q-0.34375 -0.484375 -1.140625 -0.484375q-0.921875 0 -1.453125 0.65625q-0.515625 0.640625 -0.515625 1.765625l0 5.0625l-2.328125 0zm16.174072 -11.078125l0 -2.28125l2.609375 0l0 2.28125l-2.609375 0zm0.15625 11.078125l0 -9.125l2.328125 0l0 9.125l-2.328125 0zm8.929199 0.1875q-3.625 0 -3.625 -3.578125l0 -3.984375l-1.75 0l0 -1.75l1.75 0l0 -2.71875l2.34375 0l0 2.71875l2.75 0l0 1.75l-2.75 0l0 3.84375q0 0.90625 0.390625 1.359375q0.390625 0.4375 1.265625 0.4375q0.265625 0 0.53125 -0.0625q0.28125 -0.0625 0.59375 -0.140625l0.34375 1.71875q-0.328125 0.1875 -0.84375 0.296875q-0.515625 0.109375 -1.0 0.109375zm8.029297 -0.1875l0 -9.125l2.265625 0l0 1.421875q0.46875 -0.78125 1.265625 -1.1875q0.796875 -0.421875 1.78125 -0.421875q3.21875 0 3.21875 3.75l0 5.5625l-2.328125 0l0 -5.453125q0 -1.0625 -0.40625 -1.546875q-0.390625 -0.484375 -1.234375 -0.484375q-1.03125 0 -1.640625 0.65625q-0.59375 0.640625 -0.59375 1.703125l0 5.125l-2.328125 0z" fill-rule="nonzero"/><path fill="#000000" fill-opacity="0.0" d="m240.20473 5.9422574l175.59056 0l0 39.244095l-175.59056 0z" fill-rule="evenodd"/><path fill="#d9ead3" d="m276.38028 38.02118q-1.546875 0 -2.890625 -0.34375q-1.34375 -0.34375 -2.375 -1.078125l0.828125 -1.96875q0.953125 0.640625 2.03125 0.9375q1.09375 0.3125 2.171875 0.3125q3.046875 0 3.046875 -2.921875l0 -1.515625q-0.484375 0.921875 -1.46875 1.46875q-0.984375 0.546875 -2.1875 0.546875q-1.5 0 -2.609375 -0.6875q-1.109375 -0.703125 -1.71875 -1.9375q-0.609375 -1.25 -0.609375 -2.90625q0 -1.65625 0.609375 -2.890625q0.609375 -1.234375 1.71875 -1.921875q1.109375 -0.703125 2.609375 -0.703125q1.25 0 2.21875 0.5625q0.984375 0.5625 1.4375 1.484375l0 -1.8125l2.765625 0l0 9.96875q0 2.6875 -1.4375 4.046875q-1.421875 1.359375 -4.140625 1.359375zm-0.078125 -6.71875q1.328125 0 2.09375 -0.90625q0.765625 -0.90625 0.765625 -2.46875q0 -1.5625 -0.765625 -2.453125q-0.765625 -0.90625 -2.09375 -0.90625q-1.3125 0 -2.078125 0.90625q-0.765625 0.890625 -0.765625 2.453125q0 1.5625 0.765625 2.46875q0.765625 0.90625 2.078125 0.90625zm13.653107 2.640625q-1.734375 0 -3.0 -0.6875q-1.265625 -0.703125 -1.96875 -2.0q-0.703125 -1.3125 -0.703125 -3.078125q0 -1.765625 0.703125 -3.0625q0.703125 -1.296875 1.96875 -2.0q1.265625 -0.703125 3.0 -0.703125q1.71875 0 2.984375 0.703125q1.265625 0.703125 1.96875 2.0q0.703125 1.296875 0.703125 3.0625q0 1.765625 -0.703125 3.078125q-0.703125 1.296875 -1.96875 2.0q-1.265625 0.6875 -2.984375 0.6875zm0 -2.140625q1.265625 0 2.03125 -0.921875q0.765625 -0.921875 0.765625 -2.703125q0 -1.8125 -0.765625 -2.703125q-0.765625 -0.90625 -2.03125 -0.90625q-1.28125 0 -2.046875 0.90625q-0.765625 0.890625 -0.765625 2.703125q0 1.78125 0.765625 2.703125q0.765625 0.921875 2.046875 0.921875zm11.026428 1.921875l-4.796875 -11.078125l3.0 0l3.09375 7.75l3.1875 -7.75l2.828125 0l-4.859375 11.078125l-2.453125 0zm21.181976 0.21875q-1.21875 0 -2.1875 -0.53125q-0.953125 -0.546875 -1.4375 -1.484375l0 1.796875l-2.765625 0l0 -15.96875l2.828125 0l0 6.515625q0.5 -0.828125 1.4375 -1.34375q0.953125 -0.515625 2.125 -0.515625q1.46875 0 2.5625 0.703125q1.09375 0.703125 1.703125 1.984375q0.609375 1.28125 0.609375 3.078125q0 1.765625 -0.609375 3.078125q-0.609375 1.296875 -1.71875 2.0q-1.09375 0.6875 -2.546875 0.6875zm-0.796875 -2.140625q1.28125 0 2.046875 -0.921875q0.765625 -0.921875 0.765625 -2.703125q0 -1.8125 -0.765625 -2.703125q-0.765625 -0.90625 -2.046875 -0.90625q-1.265625 0 -2.03125 0.90625q-0.765625 0.890625 -0.765625 2.703125q0 1.78125 0.765625 2.703125q0.765625 0.921875 2.03125 0.921875zm7.9999695 1.921875l0 -11.078125l2.765625 0l0 1.953125q0.8125 -1.96875 3.484375 -2.1875l0.875 -0.0625l0.171875 2.40625l-1.625 0.15625q-2.796875 0.265625 -2.796875 2.859375l0 5.953125l-2.875 0zm12.424164 0.21875q-1.203125 0 -2.15625 -0.453125q-0.9375 -0.46875 -1.46875 -1.25q-0.53125 -0.796875 -0.53125 -1.796875q0 -1.234375 0.640625 -1.9375q0.640625 -0.71875 2.0625 -1.03125q1.421875 -0.3125 3.828125 -0.3125l0.796875 0l0 -0.484375q0 -1.125 -0.5 -1.625q-0.5 -0.5 -1.6875 -0.5q-0.921875 0 -1.90625 0.28125q-0.96875 0.28125 -1.953125 0.875l-0.828125 -1.9375q0.59375 -0.40625 1.390625 -0.703125q0.8125 -0.3125 1.703125 -0.484375q0.90625 -0.171875 1.6875 -0.171875q2.421875 0 3.59375 1.125q1.1875 1.125 1.1875 3.484375l0 6.703125l-2.640625 0l0 -1.765625q-0.390625 0.921875 -1.234375 1.453125q-0.828125 0.53125 -1.984375 0.53125zm0.578125 -1.9375q1.109375 0 1.84375 -0.765625q0.75 -0.78125 0.75 -1.953125l0 -0.5l-0.78125 0q-2.125 0 -2.953125 0.328125q-0.828125 0.328125 -0.828125 1.1875q0 0.75 0.515625 1.234375q0.53125 0.46875 1.453125 0.46875zm8.158569 1.71875l0 -11.078125l2.765625 0l0 1.71875q0.5625 -0.953125 1.53125 -1.453125q0.96875 -0.5 2.15625 -0.5q3.921875 0 3.921875 4.5625l0 6.75l-2.828125 0l0 -6.609375q0 -1.296875 -0.484375 -1.875q-0.484375 -0.59375 -1.515625 -0.59375q-1.234375 0 -1.984375 0.78125q-0.734375 0.78125 -0.734375 2.0625l0 6.234375l-2.828125 0zm18.378845 0.21875q-1.7499695 0 -3.0468445 -0.703125q-1.28125 -0.71875 -1.984375 -2.03125q-0.703125 -1.3125 -0.703125 -3.078125q0 -1.765625 0.703125 -3.046875q0.703125 -1.28125 1.984375 -1.96875q1.296875 -0.703125 3.0468445 -0.703125q1.0625 0 2.09375 0.34375q1.046875 0.34375 1.734375 0.953125l-0.84375 1.96875q-0.578125 -0.515625 -1.328125 -0.78125q-0.734375 -0.28125 -1.40625 -0.28125q-1.4687195 0 -2.2812195 0.921875q-0.796875 0.921875 -0.796875 2.609375q0 1.6875 0.796875 2.65625q0.8125 0.953125 2.2812195 0.953125q0.65625 0 1.40625 -0.265625q0.75 -0.28125 1.328125 -0.828125l0.84375 2.0q-0.6875 0.59375 -1.734375 0.9375q-1.046875 0.34375 -2.09375 0.34375zm5.5687256 -0.21875l0 -15.96875l2.828125 0l0 6.5q0.578125 -0.90625 1.53125 -1.375q0.953125 -0.46875 2.09375 -0.46875q3.921875 0 3.921875 4.5625l0 6.75l-2.828125 0l0 -6.609375q0 -1.296875 -0.484375 -1.875q-0.484375 -0.59375 -1.515625 -0.59375q-1.234375 0 -1.984375 0.78125q-0.734375 0.78125 -0.734375 2.0625l0 6.234375l-2.828125 0z" fill-rule="nonzero"/><path fill="#000000" fill-opacity="0.0" d="m544.2047 5.9422574l175.59058 0l0 39.244095l-175.59058 0z" fill-rule="evenodd"/><path fill="#fce5cd" d="m557.96704 37.80243l0 -15.15625l2.765625 0l0 1.765625q0.484375 -0.90625 1.4375 -1.453125q0.96875 -0.546875 2.1875 -0.546875q1.453125 0 2.546875 0.703125q1.109375 0.703125 1.71875 1.984375q0.609375 1.28125 0.609375 3.078125q0 1.765625 -0.609375 3.078125q-0.609375 1.296875 -1.703125 2.0q-1.09375 0.6875 -2.5625 0.6875q-1.171875 0 -2.125 -0.5q-0.9375 -0.515625 -1.4375 -1.375l0 5.734375l-2.828125 0zm5.59375 -6.0q1.28125 0 2.046875 -0.921875q0.765625 -0.921875 0.765625 -2.703125q0 -1.8125 -0.765625 -2.703125q-0.765625 -0.90625 -2.046875 -0.90625q-1.265625 0 -2.03125 0.90625q-0.765625 0.890625 -0.765625 2.703125q0 1.78125 0.765625 2.703125q0.765625 0.921875 2.03125 0.921875zm7.999939 1.921875l0 -11.078125l2.765625 0l0 1.953125q0.8125 -1.96875 3.484375 -2.1875l0.875 -0.0625l0.171875 2.40625l-1.625 0.15625q-2.796875 0.265625 -2.796875 2.859375l0 5.953125l-2.875 0zm13.76239 0.21875q-1.734375 0 -3.0 -0.6875q-1.265625 -0.703125 -1.96875 -2.0q-0.703125 -1.3125 -0.703125 -3.078125q0 -1.765625 0.703125 -3.0625q0.703125 -1.296875 1.96875 -2.0q1.265625 -0.703125 3.0 -0.703125q1.71875 0 2.984375 0.703125q1.265625 0.703125 1.96875 2.0q0.703125 1.296875 0.703125 3.0625q0 1.765625 -0.703125 3.078125q-0.703125 1.296875 -1.96875 2.0q-1.265625 0.6875 -2.984375 0.6875zm0 -2.140625q1.265625 0 2.03125 -0.921875q0.765625 -0.921875 0.765625 -2.703125q0 -1.8125 -0.765625 -2.703125q-0.765625 -0.90625 -2.03125 -0.90625q-1.28125 0 -2.046875 0.90625q-0.765625 0.890625 -0.765625 2.703125q0 1.78125 0.765625 2.703125q0.765625 0.921875 2.046875 0.921875zm7.893738 -11.53125l0 -2.765625l3.171875 0l0 2.765625l-3.171875 0zm-2.390625 17.828125l-0.203125 -2.0625l1.03125 -0.109375q1.75 -0.203125 1.75 -2.046875l0 -11.234375l2.828125 0l0 10.875q0 2.21875 -1.015625 3.265625q-1.015625 1.0625 -3.421875 1.234375l-0.96875 0.078125zm13.821045 -4.15625q-1.890625 0 -3.25 -0.6875q-1.359375 -0.703125 -2.09375 -2.0q-0.734375 -1.296875 -0.734375 -3.0625q0 -1.71875 0.703125 -3.0q0.71875 -1.296875 1.96875 -2.03125q1.265625 -0.75 2.875 -0.75q2.359375 0 3.734375 1.5q1.375 1.5 1.375 4.078125l0 0.84375l-7.9375 0q0.3125 2.96875 3.40625 2.96875q0.921875 0 1.84375 -0.28125q0.9375 -0.28125 1.703125 -0.90625l0.796875 1.90625q-0.796875 0.65625 -2.0 1.046875q-1.1875 0.375 -2.390625 0.375zm-0.40625 -9.59375q-1.25 0 -2.03125 0.765625q-0.765625 0.765625 -0.921875 2.078125l5.578125 0q-0.09375 -1.375 -0.765625 -2.109375q-0.671875 -0.734375 -1.859375 -0.734375zm12.342163 9.59375q-1.75 0 -3.046875 -0.703125q-1.28125 -0.71875 -1.984375 -2.03125q-0.703125 -1.3125 -0.703125 -3.078125q0 -1.765625 0.703125 -3.046875q0.703125 -1.28125 1.984375 -1.96875q1.296875 -0.703125 3.046875 -0.703125q1.0625 0 2.09375 0.34375q1.046875 0.34375 1.734375 0.953125l-0.84375 1.96875q-0.578125 -0.515625 -1.328125 -0.78125q-0.734375 -0.28125 -1.40625 -0.28125q-1.46875 0 -2.28125 0.921875q-0.796875 0.921875 -0.796875 2.609375q0 1.6875 0.796875 2.65625q0.8125 0.953125 2.28125 0.953125q0.65625 0 1.40625 -0.265625q0.75 -0.28125 1.328125 -0.828125l0.84375 2.0q-0.6875 0.59375 -1.734375 0.9375q-1.046875 0.34375 -2.09375 0.34375zm10.6922 0q-4.390625 0 -4.390625 -4.34375l0 -4.828125l-2.140625 0l0 -2.125l2.140625 0l0 -3.3125l2.828125 0l0 3.3125l3.359375 0l0 2.125l-3.359375 0l0 4.671875q0 1.09375 0.46875 1.640625q0.484375 0.53125 1.546875 0.53125q0.3125 0 0.65625 -0.078125q0.34375 -0.078125 0.703125 -0.171875l0.4375 2.09375q-0.421875 0.21875 -1.046875 0.34375q-0.609375 0.140625 -1.203125 0.140625zm16.129639 0q-1.21875 0 -2.1875 -0.53125q-0.953125 -0.546875 -1.4375 -1.484375l0 1.796875l-2.765625 0l0 -15.96875l2.828125 0l0 6.515625q0.5 -0.828125 1.4375 -1.34375q0.953125 -0.515625 2.125 -0.515625q1.46875 0 2.5625 0.703125q1.09375 0.703125 1.703125 1.984375q0.609375 1.28125 0.609375 3.078125q0 1.765625 -0.609375 3.078125q-0.609375 1.296875 -1.71875 2.0q-1.09375 0.6875 -2.546875 0.6875zm-0.796875 -2.140625q1.28125 0 2.046875 -0.921875q0.765625 -0.921875 0.765625 -2.703125q0 -1.8125 -0.765625 -2.703125q-0.765625 -0.90625 -2.046875 -0.90625q-1.265625 0 -2.03125 0.90625q-0.765625 0.890625 -0.765625 2.703125q0 1.78125 0.765625 2.703125q0.765625 0.921875 2.03125 0.921875zm8.0 1.921875l0 -11.078125l2.765625 0l0 1.953125q0.8125 -1.96875 3.484375 -2.1875l0.875 -0.0625l0.171875 2.40625l-1.625 0.15625q-2.796875 0.265625 -2.796875 2.859375l0 5.953125l-2.875 0zm12.424133 0.21875q-1.203125 0 -2.15625 -0.453125q-0.9375 -0.46875 -1.46875 -1.25q-0.53125 -0.796875 -0.53125 -1.796875q0 -1.234375 0.640625 -1.9375q0.640625 -0.71875 2.0625 -1.03125q1.421875 -0.3125 3.828125 -0.3125l0.796875 0l0 -0.484375q0 -1.125 -0.5 -1.625q-0.5 -0.5 -1.6875 -0.5q-0.921875 0 -1.90625 0.28125q-0.96875 0.28125 -1.953125 0.875l-0.828125 -1.9375q0.59375 -0.40625 1.390625 -0.703125q0.8125 -0.3125 1.703125 -0.484375q0.90625 -0.171875 1.6875 -0.171875q2.421875 0 3.59375 1.125q1.1875 1.125 1.1875 3.484375l0 6.703125l-2.640625 0l0 -1.765625q-0.390625 0.921875 -1.234375 1.453125q-0.828125 0.53125 -1.984375 0.53125zm0.578125 -1.9375q1.109375 0 1.84375 -0.765625q0.75 -0.78125 0.75 -1.953125l0 -0.5l-0.78125 0q-2.125 0 -2.953125 0.328125q-0.828125 0.328125 -0.828125 1.1875q0 0.75 0.515625 1.234375q0.53125 0.46875 1.453125 0.46875zm8.158569 1.71875l0 -11.078125l2.765625 0l0 1.71875q0.5625 -0.953125 1.53125 -1.453125q0.96875 -0.5 2.15625 -0.5q3.921875 0 3.921875 4.5625l0 6.75l-2.828125 0l0 -6.609375q0 -1.296875 -0.484375 -1.875q-0.484375 -0.59375 -1.515625 -0.59375q-1.234375 0 -1.984375 0.78125q-0.734375 0.78125 -0.734375 2.0625l0 6.234375l-2.828125 0zm18.378906 0.21875q-1.75 0 -3.046875 -0.703125q-1.28125 -0.71875 -1.984375 -2.03125q-0.703125 -1.3125 -0.703125 -3.078125q0 -1.765625 0.703125 -3.046875q0.703125 -1.28125 1.984375 -1.96875q1.296875 -0.703125 3.046875 -0.703125q1.0625 0 2.09375 0.34375q1.046875 0.34375 1.734375 0.953125l-0.84375 1.96875q-0.578125 -0.515625 -1.328125 -0.78125q-0.734375 -0.28125 -1.40625 -0.28125q-1.46875 0 -2.28125 0.921875q-0.796875 0.921875 -0.796875 2.609375q0 1.6875 0.796875 2.65625q0.8125 0.953125 2.28125 0.953125q0.65625 0 1.40625 -0.265625q0.75 -0.28125 1.328125 -0.828125l0.84375 2.0q-0.6875 0.59375 -1.734375 0.9375q-1.046875 0.34375 -2.09375 0.34375zm5.5687256 -0.21875l0 -15.96875l2.828125 0l0 6.5q0.578125 -0.90625 1.53125 -1.375q0.953125 -0.46875 2.09375 -0.46875q3.921875 0 3.921875 4.5625l0 6.75l-2.828125 0l0 -6.609375q0 -1.296875 -0.484375 -1.875q-0.484375 -0.59375 -1.515625 -0.59375q-1.234375 0 -1.984375 0.78125q-0.734375 0.78125 -0.734375 2.0625l0 6.234375l-2.828125 0z" fill-rule="nonzero"/></g></svg>